<?xml version="1.0" encoding="utf-8"?>
<!-- Generator: Adobe Illustrator 23.0.2, SVG Export Plug-In . SVG Version: 6.00 Build 0)  -->
<svg version="1.1" id="レイヤー_1" xmlns="http://www.w3.org/2000/svg" xmlns:xlink="http://www.w3.org/1999/xlink" x="0px"
	 y="0px" viewBox="0 0 560 560" style="enable-background:new 0 0 560 560;" xml:space="preserve">
<path d="M520,279.56c0-0.09-0.02-0.17-0.02-0.26c-0.03-0.23-0.05-0.48-0.07-0.71c0-0.22-0.02-0.43-0.07-0.65
	c-0.02-0.23-0.07-0.45-0.12-0.69c-0.03-0.21-0.07-0.43-0.15-0.65c-0.05-0.2-0.1-0.4-0.17-0.61c-0.07-0.23-0.12-0.45-0.22-0.67
	c-0.05-0.18-0.12-0.36-0.2-0.54c-0.1-0.23-0.2-0.47-0.29-0.69c-0.07-0.16-0.17-0.32-0.25-0.47c-0.12-0.24-0.24-0.48-0.39-0.7
	c-0.07-0.15-0.17-0.28-0.25-0.42c-0.17-0.23-0.32-0.45-0.49-0.69c-0.07-0.12-0.17-0.23-0.27-0.35c-0.17-0.22-0.34-0.44-0.54-0.65
	c-0.1-0.11-0.2-0.22-0.29-0.33c-0.22-0.2-0.42-0.4-0.61-0.6c-0.12-0.1-0.22-0.2-0.34-0.3c-0.22-0.18-0.42-0.37-0.66-0.54
	c-0.1-0.1-0.25-0.18-0.34-0.27c-0.24-0.17-0.47-0.33-0.71-0.48c-0.15-0.09-0.27-0.16-0.39-0.23c-0.25-0.15-0.49-0.28-0.76-0.41
	c-0.12-0.07-0.27-0.13-0.42-0.2c-0.25-0.12-0.52-0.23-0.79-0.34c-0.15-0.06-0.29-0.11-0.44-0.16c-0.27-0.09-0.54-0.18-0.81-0.26
	c-0.17-0.04-0.32-0.09-0.47-0.12c-0.3-0.06-0.56-0.12-0.86-0.17c-0.17-0.04-0.34-0.06-0.49-0.09c-0.3-0.04-0.57-0.06-0.86-0.09
	c-0.07-0.01-0.15-0.02-0.22-0.02c-0.24-0.03-1.42-0.09-3.43-0.09c-0.15,0-0.32,0-0.49,0c-0.74,0-1.54,0.01-2.45,0.04
	c-18.45-0.72-88.35-8.33-167.47-87.32c-2.7-2.7-6.23-4.05-9.77-4.05c-3.53,0-7.07,1.35-9.76,4.05c-5.4,5.4-5.4,14.14,0,19.53
	c32.16,32.21,63.37,53.61,91.02,67.8H53.81C46.18,266.17,40,272.37,40,280c0,7.63,6.18,13.81,13.81,13.81h350.86
	c-27.65,14.2-58.86,35.6-91.02,67.8c-5.4,5.4-5.4,14.14,0,19.54c5.4,5.4,14.13,5.4,19.53,0c79.19-79.05,149.14-86.59,167.51-87.32
	c1.08,0.02,2.09,0.04,2.9,0.04c2.01,0,3.21-0.07,3.48-0.09c0.1,0,0.2-0.02,0.3-0.02c0.2-0.03,0.37-0.05,0.56-0.07
	c0.27-0.04,0.54-0.06,0.79-0.11c0.2-0.04,0.37-0.09,0.54-0.12c0.27-0.06,0.54-0.12,0.79-0.2c0.17-0.05,0.32-0.1,0.49-0.16
	c0.25-0.09,0.52-0.17,0.79-0.28c0.15-0.05,0.27-0.11,0.42-0.17c0.27-0.12,0.54-0.24,0.81-0.38c0.1-0.06,0.22-0.12,0.34-0.2
	c0.25-0.15,0.54-0.29,0.79-0.47c0.1-0.06,0.2-0.15,0.32-0.21c0.24-0.17,0.49-0.36,0.74-0.54c0.1-0.09,0.2-0.17,0.29-0.26
	c0.25-0.18,0.47-0.38,0.69-0.6c0.1-0.09,0.2-0.18,0.3-0.28c0.2-0.21,0.39-0.42,0.59-0.64c0.1-0.12,0.2-0.23,0.3-0.36
	c0.17-0.21,0.34-0.43,0.52-0.65c0.1-0.13,0.2-0.28,0.27-0.43c0.15-0.21,0.29-0.43,0.42-0.65c0.1-0.16,0.2-0.32,0.27-0.49
	c0.12-0.21,0.24-0.44,0.34-0.66c0.07-0.17,0.15-0.36,0.22-0.54c0.1-0.22,0.2-0.44,0.27-0.67c0.07-0.2,0.12-0.38,0.2-0.56
	c0.07-0.23,0.15-0.48,0.2-0.71c0.05-0.2,0.1-0.39,0.12-0.59c0.05-0.25,0.1-0.49,0.15-0.74c0.02-0.2,0.05-0.4,0.05-0.6
	c0.05-0.26,0.05-0.5,0.07-0.76c0-0.07,0.02-0.16,0.02-0.23c0-0.15-0.02-0.28-0.02-0.42C519.98,279.85,520,279.71,520,279.56z"/>
</svg>
