<?xml version="1.0" encoding="utf-8"?>
<!-- Generator: Adobe Illustrator 23.0.1, SVG Export Plug-In . SVG Version: 6.00 Build 0)  -->
<svg version="1.1" id="レイヤー_1" xmlns="http://www.w3.org/2000/svg" xmlns:xlink="http://www.w3.org/1999/xlink" x="0px"
	 y="0px" viewBox="0 0 725.9 480" style="enable-background:new 0 0 725.9 480;" xml:space="preserve">
<path d="M174.2,364c-20.1,0-36.4,16.3-36.4,36.4s16.3,36.4,36.4,36.4s36.4-16.3,36.4-36.4C210.7,380.3,194.3,364,174.2,364z
	 M174.2,410.4c-5.4,0-10-4.5-10-10c0-5.4,4.5-10,10-10s10,4.5,10,10C184.2,405.9,179.8,410.4,174.2,410.4z"/>
<path d="M709,336.5v-260C709,34.3,674.6,0,632.4,0H135.7C70,0,16.8,53.4,16.8,118.9v217.6C6.5,344.2,0,356.3,0,370.1v1.7
	c0,23.1,18.9,42,42,42h54c6.4,37.5,39,66.2,78.5,66.2c39.3,0,72.1-28.7,78.5-66.2h219.9c6.4,37.5,39,66.2,78.5,66.2
	c39.3,0,72.1-28.7,78.5-66.2h54c23.1,0,42-18.9,42-42v-1.7C725.7,356.4,719.1,344.2,709,336.5z M95.9,387.1h-54
	c-8.5,0-15.4-7-15.4-15.4v-1.7c0-8.5,7-15.4,15.4-15.4h67.4C102.5,364.2,97.8,375.2,95.9,387.1z M174.2,453.5
	c-29.2,0-53.1-23.7-53.1-53.1c0-29.3,23.7-53.1,53.1-53.1c29.2,0,53.1,23.7,53.1,53.1C227.3,429.6,203.6,453.5,174.2,453.5z
	 M551.4,453.5c-29.2,0-53.1-23.7-53.1-53.1c0-29.3,23.7-53.1,53.1-53.1c29.2,0,53.1,23.7,53.1,53.1
	C604.3,429.6,580.6,453.5,551.4,453.5z M584.3,328.2L584.3,328.2c-10.1-4.7-21.2-7.4-33-7.4c-39.3,0-72.1,28.7-78.5,66.2H252.7
	c-6.4-37.5-39-66.2-78.5-66.2c-11.8,0-23,2.6-33,7.3h-98V118.9c0-51,41.4-92.4,92.4-92.4h496.8c23,0,42.3,15.6,48.2,36.7H646
	c-16.5,0-29.9,13.5-29.9,29.9v102.2c0,16.5,13.5,29.9,29.9,29.9h36.4v102.8H584.3z M682.3,90v108.9h-36.4c-1.8,0-3.3-1.5-3.3-3.3
	V93.3c0-1.8,1.5-3.3,3.3-3.3H682.3z M699.3,371.7c0,8.5-7,15.4-15.4,15.4h-54c-2-11.9-6.8-23-13.5-32.5h67.4c8.6,0,15.4,7,15.4,15.4
	V371.7z"/>
<path d="M551.4,364c-20.1,0-36.4,16.3-36.4,36.4s16.3,36.4,36.4,36.4s36.4-16.3,36.4-36.4C587.8,380.3,571.5,364,551.4,364z
	 M551.4,410.4c-5.4,0-10-4.5-10-10c0-5.4,4.5-10,10-10c5.4,0,10,4.5,10,10C561.4,405.9,556.8,410.4,551.4,410.4z"/>
<path d="M547,63.2H138.7c-35.2,0-64,28.7-64,64v68.2c0,16.5,13.5,29.9,29.9,29.9H547c16.5,0,29.9-13.5,29.9-29.9V93.2
	C576.9,76.7,563.6,63.2,547,63.2z M181.9,198.9h-0.2h-77.1c-1.8,0-3.3-1.5-3.3-3.3v-68.2c0-20.7,16.8-37.5,37.5-37.5h43.1V198.9z
	 M312.6,198.9H208.4v-109h104.2V198.9z M443.4,198.9H339.2v-109h104.2V198.9z M550.5,195.4c0,1.8-1.5,3.3-3.3,3.3H470v-109h77.1
	c1.8,0,3.3,1.5,3.3,3.3V195.4z"/>
<path d="M653.3,269.2c-7.3,0-13.3,5.9-13.3,13.3v11.8c0,7.3,5.9,13.3,13.3,13.3c7.3,0,13.3-5.9,13.3-13.3v-11.9
	C666.6,275.1,660.6,269.2,653.3,269.2z"/>
</svg>
