<?xml version="1.0" encoding="utf-8"?>
<!-- Generator: Adobe Illustrator 24.0.1, SVG Export Plug-In . SVG Version: 6.00 Build 0)  -->
<svg version="1.1" id="レイヤー_1" xmlns="http://www.w3.org/2000/svg" xmlns:xlink="http://www.w3.org/1999/xlink" x="0px"
	 y="0px" viewBox="0 0 560 560" style="enable-background:new 0 0 560 560;" xml:space="preserve">
<title>balloon_right</title>
<path d="M157.4,173.1l-18.3,32.1l-18.3-32.1h-18.2l24.3,40.8h-18.3v14.6H130v8.7h-24.3v14.6H130v20.4h18.3v-20.4h24.3v-14.6h-24.3
	v-8.7h21.3v-14.6h-18.3l24.3-40.8L157.4,173.1z M485.2,211.5h-38.3c-3-1.2-5-3.6-6.5-7.3c-2.9-7.1-6.1-14.1-9.3-21.1
	c-6.2-13.1-16.2-20.4-30.9-20.4c-31.4-0.1-62.8-0.1-94.1,0c-14.6,0-24.8,7.2-30.9,20.3c-3.2,7-6.4,14-9.3,21.1
	c-1.5,3.7-3.5,6.2-6.5,7.4h-21.5c-4.7-54.6-52.8-95-107.4-90.3c-54.6,4.7-95,52.8-90.3,107.4s52.8,95,107.4,90.3
	c13.5-1.2,26.6-5.1,38.5-11.5V404c-0.1,19.3,15.5,35,34.8,35.1h264.3c19.3-0.1,34.9-15.8,34.8-35.1c0,0,0,0,0,0V246.6
	C520.1,227.3,504.5,211.6,485.2,211.5z M220.9,211.5c-19.3,0.1-34.9,15.8-34.8,35.1V289C148,315,96,305.1,70.1,267
	s-16-90.1,22.1-116s90.1-16,116,22.1c7.8,11.4,12.6,24.7,14,38.4L220.9,211.5z M352.9,397.4c-40.4,0-72.8-33.7-72.9-75.8
	c-0.1-40.9,33-75.2,72.8-75.5c40-0.3,73.7,34.9,73.2,76.6C425.6,364.3,393.2,397.4,352.9,397.4z M488.6,272.2h-31.2v-26h31.2V272.2z
	 M353.8,266.8c-28.9-0.8-52.8,23-53.8,53.4c-1,30,21.7,56,49.7,56.8c31.4,0.9,55.4-21.9,56.3-53.6
	C406.9,292.5,383.9,267.6,353.8,266.8L353.8,266.8z M353.3,356.8c-18.5,0.2-33.3-15.2-33.5-34.8c-0.1-19.1,14.4-34.4,32.8-34.6
	c18.8-0.1,33.4,14.9,33.5,34.6C386.3,340.9,371.5,356.6,353.3,356.8L353.3,356.8z"/>
</svg>
