<?xml version="1.0" encoding="utf-8"?>
<!-- Generator: Adobe Illustrator 24.0.1, SVG Export Plug-In . SVG Version: 6.00 Build 0)  -->
<svg version="1.1" id="レイヤー_1" xmlns="http://www.w3.org/2000/svg" xmlns:xlink="http://www.w3.org/1999/xlink" x="0px"
	 y="0px" viewBox="0 0 560 560" style="enable-background:new 0 0 560 560;" xml:space="preserve">
<style type="text/css">
	.st0{fill-rule:evenodd;clip-rule:evenodd;}
</style>
<g>
	<path class="st0" d="M85.3,238c-28,20.4-45.3,48.2-45.3,78.8c0,38.1,26.7,71.8,67.6,92.3v49.7c0.1,4.6,3.9,8.3,8.5,8.2
		c2.2,0,4.2-0.9,5.8-2.4l38.7-38.1c13.1,2.4,26.5,3.5,39.8,3.5c35.9,0.5,71.2-8.6,102.5-26.1C181.3,397.3,85.5,325.6,85.3,238z"/>
	<path class="st0" d="M321.5,92.9c-109.4,0-198.5,65-198.5,144.9c0,79.9,89.1,144.9,198.5,144.9c13.1,0,26.2-0.9,39.1-2.8l68.7,67.6
		c1.5,1.5,3.6,2.4,5.8,2.4c4.6,0.1,8.4-3.6,8.5-8.3v-89.4c48.1-27.3,76.4-69.4,76.4-114.4C520,157.9,431,92.9,321.5,92.9z"/>
</g>
</svg>
