<svg xmlns="http://www.w3.org/2000/svg" xmlns:xlink="http://www.w3.org/1999/xlink" x="0px"
	 y="0px" viewBox="0 0 560 560" enable-background="new 0 0 560 560" xml:space="preserve">
<g>
	<g>
		<path d="M386.364,363.643c-5.825,6.842-57.155,76.484-65.591,76.417
			c-97.201-0.766-202.604-175.208-193.734-228.591c1.381-8.319,78.824-46.918,86.565-51.481
			c7.743-4.562,0.059-116.929-13.008-119.032s-76.163-0.507-93.002,2.586c-15.98,2.935-33.512,17.362-36.592,29.792
			c-3.081,12.43-15.059,32.413-13.333,110.195c3.612,162.758,168.655,305.988,264.88,324.95
			c76.36,15.048,111.966,11.373,124.745,10.471c12.78-0.901,29.481-15.895,35.64-30.925c6.364-15.532,18.34-77.914,18.509-91.144
			C501.611,383.651,392.189,356.801,386.364,363.643z M362.11,93.207c0.479,0,0.971-0.033,1.423-0.077
			c0.392-0.033,2.036-0.188,4.664-0.188c13.611,0,48.494,3.751,78.38,38.459c36.949,42.927,29.035,83.934,28.689,85.634
			c-1.525,7.038,2.968,14.022,10.003,15.555c0.894,0.188,1.833,0.287,2.787,0.287c6.108,0,11.484-4.325,12.776-10.304
			c1.224-5.637,10.677-56.618-33.76-108.228c-36.934-42.904-81.582-47.538-99.063-47.538c-4.234,0-6.849,0.276-7.39,0.331
			c-7.122,0.828-12.271,7.304-11.478,14.431C349.875,88.199,355.447,93.207,362.11,93.207z M286.906,140.183
			c0.568,0,1.144-0.033,1.683-0.088c0.464-0.044,2.511-0.232,5.807-0.232c16.819,0,59.922,4.634,96.833,47.494
			c45.745,53.143,35.834,103.727,35.4,105.834c-1.788,8.253,3.476,16.438,11.748,18.236c1.07,0.233,2.169,0.342,3.256,0.342
			c7.157,0,13.458-5.086,14.976-12.08c0.594-2.715,13.855-67.287-42.131-132.322c-45.178-52.47-99.257-58.141-120.407-58.141
			c-5.077,0-8.223,0.32-8.901,0.398c-8.356,0.97-14.392,8.561-13.459,16.923C272.575,134.325,279.108,140.183,286.906,140.183z"/>
	</g>
</g>
</svg>
