<?xml version="1.0" encoding="utf-8"?>
<!-- Generator: Adobe Illustrator 24.0.0, SVG Export Plug-In . SVG Version: 6.00 Build 0)  -->
<svg version="1.1" id="レイヤー_1" xmlns="http://www.w3.org/2000/svg" xmlns:xlink="http://www.w3.org/1999/xlink" x="0px"
	 y="0px" viewBox="0 0 560 560" style="enable-background:new 0 0 560 560;" xml:space="preserve">
<style type="text/css">
	.st0{fill-rule:evenodd;clip-rule:evenodd;}
</style>
<path id="dl.svg" class="st0" d="M465.8,519.8H89.2c-12.2,0.4-22.4-9.1-22.9-21.3c-0.4-12.2,9.1-22.4,21.3-22.9c0.5,0,1.1,0,1.6,0
	h376.6c11.8-3.2,24.1,4.5,27.3,16.2c3.2,11.8-3.7,23.9-15.5,27.1C473.8,520.1,469.8,520.1,465.8,519.8z M398.5,265.7
	c-1.7-4.1-5.8-6.8-10.3-6.7H319V50.8c-0.1-6-5-10.9-11-10.8c0,0,0,0-0.1,0h-61.2c-6.1-0.2-11.1,4.6-11.3,10.7c0,0,0,0.1,0,0.1V259
	h-68.8c-4.5,0-8.5,2.6-10.3,6.7c-1.7,4.1-0.7,8.8,2.5,11.8L269.5,402c2.1,2,4.9,3.1,7.9,3.1c2.9,0,5.7-1.1,7.8-3.1L396,277.6
	C399.2,274.6,400.2,269.8,398.5,265.7L398.5,265.7z"/>
</svg>
