<?xml version="1.0" encoding="utf-8"?>
<!-- Generator: Adobe Illustrator 24.0.1, SVG Export Plug-In . SVG Version: 6.00 Build 0)  -->
<svg version="1.1" id="レイヤー_1" xmlns="http://www.w3.org/2000/svg" xmlns:xlink="http://www.w3.org/1999/xlink" x="0px"
	 y="0px" viewBox="0 0 560 560" style="enable-background:new 0 0 560 560;" xml:space="preserve">
<style type="text/css">
	.st0{fill-rule:evenodd;clip-rule:evenodd;}
</style>
<path id="menu_01.svg" class="st0" d="M475.4,520H84.6c-12.2,0.8-22.8-8.4-23.6-20.6c-0.8-12.2,8.4-22.8,20.6-23.6c1-0.1,2-0.1,3,0
	h390.9c12.2-0.8,22.8,8.4,23.6,20.6c0.8,12.2-8.4,22.8-20.6,23.6C477.5,520,476.4,520,475.4,520z M405.6,265.8
	c-1.9-4.2-6.1-6.8-10.6-6.8h-71.8V50.8c-0.2-6.2-5.3-11-11.5-10.8c0,0,0,0,0,0h-63.5c-6.2-0.2-11.4,4.6-11.6,10.8V259H165
	c-4.6,0-8.8,2.6-10.8,6.8c-1.7,4.1-0.7,8.8,2.6,11.9l115,124.5c2.2,2,5.2,3.2,8.2,3.1c3,0,5.9-1.1,8.1-3.1l115-124.5
	C406.5,274.6,407.5,269.8,405.6,265.8L405.6,265.8z"/>
</svg>
