<?xml version="1.0" encoding="utf-8"?>
<!-- Generator: Adobe Illustrator 23.0.1, SVG Export Plug-In . SVG Version: 6.00 Build 0)  -->
<svg version="1.1" id="レイヤー_1" xmlns="http://www.w3.org/2000/svg" xmlns:xlink="http://www.w3.org/1999/xlink" x="0px"
	 y="0px" viewBox="0 0 560 560" style="enable-background:new 0 0 560 560;" xml:space="preserve">
<style type="text/css">
	.st0{fill:#000000;}
	.st1{fill:#000000;}
	.st2{fill:#000000;}
	.st3{fill:#000000;}
</style>
<g>
	<path class="st0" d="M280,40.5c-132.55,0-240,107.45-240,240c0,132.55,107.45,240,240,240s240-107.45,240-240
		C520,147.95,412.55,40.5,280,40.5z M280,472.5c-105.87,0-192-86.13-192-192c0-105.87,86.13-192,192-192c105.87,0,192,86.13,192,192
		C472,386.37,385.87,472.5,280,472.5z"/>
	<path class="st0" d="M280,136.5c-79.53,0-144,64.47-144,144s64.47,144,144,144s144-64.47,144-144S359.53,136.5,280,136.5z
		 M280,376.5c-52.93,0-96-43.06-96-96c0-52.93,43.07-96,96-96c52.94,0,96,43.07,96,96C376,333.44,332.94,376.5,280,376.5z"/>
</g>
</svg>
