<?xml version="1.0" encoding="utf-8"?>
<!-- Generator: Adobe Illustrator 24.0.3, SVG Export Plug-In . SVG Version: 6.00 Build 0)  -->
<svg class="test888" version="1.1" id="レイヤー_1" xmlns="http://www.w3.org/2000/svg" xmlns:xlink="http://www.w3.org/1999/xlink" x="0px"
	 y="0px" viewBox="0 0 560 560" style="enable-background:new 0 0 560 560;" xml:space="preserve">
<title>icon-fontのコピー2</title>
<g>
	<path d="M465.5,74.6c-29.1,27.5-70.7,37.3-109.1,25.7c-59.5-19.7-112.1-73.1-231.8-38.5l40.9,192.5c0,0,42.3-54.4,163.6,12.8l0,0
		c25.9,15.3,55.3,23.7,85.4,24.4c40.8-0.4,79.4-18.7,105.5-50.1L465.5,74.6z"/>
	<path d="M94,60.9c-3.4-14.3-17.5-23.3-31.9-20.4c-0.2,0-0.5,0.1-0.7,0.1c-14,2.5-23.4,15.9-20.9,29.9L128,499.1
		c2.9,12.4,14,21.1,26.7,20.8c1.7,0,3.4-0.2,5.1-0.5c0.2,0,0.5-0.1,0.7-0.1c14-2.5,23.4-15.9,20.9-29.9L94,60.9z"/>
</g>
</svg>
