<svg xmlns="http://www.w3.org/2000/svg" xmlns:xlink="http://www.w3.org/1999/xlink" x="0px"
	 y="0px" viewBox="0 0 560 560" enable-background="new 0 0 560 560" xml:space="preserve">
<g>
	<g>
		<path d="M279.999,40C147.452,40,40,147.452,40,279.999C40,412.548,147.452,520,279.999,520
			c132.549,0,240-107.452,240-240.001C520,147.452,412.548,40,279.999,40z M359.863,180.393l-49.199,83.99h35.693
			c2.821,0,5.288,0.881,7.403,2.643c2.82,2.468,4.23,9.357,4.23,13.587c0,5.172-1.938,8.931-5.816,11.279
			c-1.647,1.057-3.585,1.586-5.816,1.586h-48.995v24.929h48.995c2.702,0,5.051,0.824,7.049,2.468
			c3.055,2.704,4.583,6.23,4.583,10.575c0,4.935-1.938,12.237-5.816,14.82c-1.647,1.057-3.585,1.586-5.816,1.586h-48.995v41.762
			c0,3.877-1.41,7.137-4.23,9.781c-2.819,2.643-8.905,3.966-13.135,3.966c-5.406,0-13.417-1.997-16.353-5.992
			c-1.529-2.115-2.292-4.698-2.292-7.755v-41.762h-48.627c-2.821,0-5.172-0.821-7.051-2.468c-3.056-2.702-4.582-9.709-4.582-13.939
			c0-5.169,1.878-8.989,5.639-11.456c1.763-1.057,3.76-1.586,5.993-1.586h48.627v-24.929h-48.627c-3.173,0-5.816-1.057-7.932-3.173
			c-2.466-2.583-3.701-5.816-3.701-9.693c0-4.698,1.762-11.824,5.288-14.292c1.761-1.292,3.877-1.938,6.344-1.938h36.605
			l-49.194-83.99c-1.799-2.47-2.696-5.279-2.696-8.425c0-5.166,1.965-9.155,5.897-11.964c3.033-2.246,7.629-3.369,10.775-3.369
			c4.156,0,7.694,2.022,10.616,6.065l55.271,86.609l55.27-86.609c2.92-4.043,6.458-6.065,10.615-6.065
			c3.144,0,7.743,1.123,10.776,3.369c3.93,2.809,5.897,6.798,5.897,11.964C362.559,175.228,361.659,178.035,359.863,180.393z"/>
	</g>
</g>
</svg>
