<svg xmlns="http://www.w3.org/2000/svg" viewBox="0 0 746.67 746.67"><title>アートボード 104</title><path d="M486.93,356.93a34.4,34.4,0,1,0,34.4,34.4,34.4,34.4,0,0,0-34.4-34.4" style="fill:#339cd1"/><path d="M373.33,52.33c-176.4,0-320,143.6-320,320s143.6,320,320,320,320-143.6,320-320S549.73,52.33,373.33,52.33Zm0,590.67c-149.2,0-270.66-121.33-270.66-270.67S224,101.67,373.33,101.67,644,223,644,372.33,522.53,643,373.33,643Z" style="fill:#339cd1"/><path d="M465.33,489.87c-98.4,73.86-178.4,2.26-181.86-.94a24.72,24.72,0,0,0-33.74,36.14c23.2,21.73,68.8,47.46,124.4,47.46,37.07,0,78.54-11.46,120.8-43.2a24.66,24.66,0,1,0-29.6-39.46" style="fill:#339cd1"/><path d="M299.33,391.47a34.4,34.4,0,1,0-34.4,34.4,34.39,34.39,0,0,0,34.4-34.4" style="fill:#339cd1"/><path d="M373.33,102.67c-118.53,0-220.66,72.37-257.86,190H631.33c-34-115-139.33-190-258-190" style="fill:#9ddaed"/></svg>