<svg id="レイヤー_1" data-name="レイヤー 1" xmlns="http://www.w3.org/2000/svg" width="574.057" height="106.438" viewBox="0 0 574.057 106.438"><defs><style>.cls-1,.cls-2{fill:#fff;}.cls-2{fill-rule:evenodd;}.cls-3{fill:#003d5c;}</style></defs><title>アートボード 5</title><path class="cls-1" d="M531.93,56.973a21.089,21.089,0,0,1-4.122-.329,8.308,8.308,0,0,1-6.958-8.311c0-.278.012-.553.037-.823a8.3,8.3,0,0,1-4.167-7.193,8.708,8.708,0,0,1,2.107-5.623,30.328,30.328,0,0,0,2.767-3.945,8.185,8.185,0,0,1-3.877-7.086,8.318,8.318,0,0,1,3.712-7.064,8.406,8.406,0,0,1-2.241-5.8,8.07,8.07,0,0,1,7.947-8.352h9.636A11.566,11.566,0,0,1,544.7,5.191,8.412,8.412,0,0,1,552.105.912,8.632,8.632,0,0,1,560.1,6.1h5.394a7.812,7.812,0,0,1,7.8,8.16,8.2,8.2,0,0,1-3.436,6.8,8.358,8.358,0,0,1,4.2,7.261,8.5,8.5,0,0,1-2.57,6.162,13.462,13.462,0,0,1,.325,4.17,35.518,35.518,0,0,1-1.431,8.062c-1.854,6.168-5.975,9.3-12.246,9.3a24.354,24.354,0,0,1-4.507-.446l-.13-.027a8.555,8.555,0,0,1-3.706-1.8,28.671,28.671,0,0,1-3.75,2.079,8.576,8.576,0,0,1-8.111-.423A11.241,11.241,0,0,1,531.93,56.973Z"/><path class="cls-1" d="M494.745,57.741a8.311,8.311,0,0,1-7.926-5.16,69.98,69.98,0,0,1-9.346,3.353l-.311.087-.318.053a9.766,9.766,0,0,1-1.753.179,8.2,8.2,0,0,1-5.766-14.021,8.274,8.274,0,0,1-1.183-4.314,7.973,7.973,0,0,1,4.1-7.1,8.136,8.136,0,0,1-2.395-5.856,8.52,8.52,0,0,1,.473-2.821,8.222,8.222,0,0,1-2.7-6.2,7.916,7.916,0,0,1,5.745-7.8A8.366,8.366,0,0,1,484.958,2a8.616,8.616,0,0,1,5.609-2,8.837,8.837,0,0,1,4.016.944,9.08,9.08,0,0,1,4.1-.944,8.632,8.632,0,0,1,5.5,1.915,8.461,8.461,0,0,1,12.058,6.2,7.917,7.917,0,0,1,5.862,7.822,8.253,8.253,0,0,1-2.225,5.723,8.428,8.428,0,0,1,.659,3.3,8.1,8.1,0,0,1-2.689,6.13,8,8,0,0,1,3.638,6.829A8.334,8.334,0,0,1,520.6,41.7a8.388,8.388,0,0,1-5.967,14.169,10.481,10.481,0,0,1-1.8-.179l-.246-.041-.242-.061a66.568,66.568,0,0,1-9.579-3.229A8.171,8.171,0,0,1,494.745,57.741Z"/><path class="cls-1" d="M448.266,55.1c-9.4,0-16.288-5.455-16.621-13.053a8.66,8.66,0,0,1-6.85-8.45,8.866,8.866,0,0,1,3.478-6.973,77.891,77.891,0,0,0,6.085-5.379,8.53,8.53,0,0,1-4.531-7.663A8.311,8.311,0,0,1,437.849,5.1c3.655-.233,8.435-.781,12.8-1.471a10.859,10.859,0,0,1,1.584-.121,9.064,9.064,0,0,1,9.292,9.023,9.8,9.8,0,0,1-2.035,5.83l-.06.081c-.33.429-.666.861-1.008,1.291a15.974,15.974,0,0,1,11.079,15.6C469.505,46.97,460.771,55.1,448.266,55.1Z"/><path class="cls-1" d="M404.544,56.109c-6.157,0-20.479-1.435-20.479-14.735a13.224,13.224,0,0,1,2.024-7.138A8.664,8.664,0,0,1,384.618,22.4a8.681,8.681,0,0,1-1.17-4.4A8.088,8.088,0,0,1,391.2,9.7c.5-.028,1.025-.064,1.563-.108,0-.111-.007-.221-.007-.33a8.626,8.626,0,0,1,16.718-2.433c.778-.2,1.486-.394,2.108-.589a8.639,8.639,0,0,1,2.7-.434,8.421,8.421,0,0,1,8.374,8.448,8.246,8.246,0,0,1-.1,1.312,8.569,8.569,0,0,1,4.425,7.519A8.209,8.209,0,0,1,421,30.977l-.15.048c.063.078.128.154.192.229a8.987,8.987,0,0,1,2.135,5.848,8.443,8.443,0,0,1-5.49,7.985A8.637,8.637,0,0,1,418,47.421a8.487,8.487,0,0,1-7.765,8.417A53.559,53.559,0,0,1,404.544,56.109Z"/><path class="cls-1" d="M366.907,54.247c-.226,0-.459-.008-.694-.025-12.093-.906-20.857-9.7-20.857-20.911a23.006,23.006,0,0,1,1.161-7.185l-6.58.977a9.561,9.561,0,0,1-1.364.1,8.685,8.685,0,0,1-.914-17.318c9.549-1.252,21.876-2.62,32.183-3.572.336-.026.582-.036.822-.036a8.475,8.475,0,0,1,8.578,8.554,8.76,8.76,0,0,1-.292,2.259,29.929,29.929,0,0,1,3.754,4.184,8.24,8.24,0,0,1,1.713,5.029,7.852,7.852,0,0,1-5.754,7.531,7.908,7.908,0,0,1-6.879,4.228,8.729,8.729,0,0,1,3.945,7.343,8.912,8.912,0,0,1-2.256,5.957,8.683,8.683,0,0,1-6.566,2.885ZM362.921,31.9a12.22,12.22,0,0,0-.058,1.267c0,.928,0,2.605,4.136,3.32a8.345,8.345,0,0,1-1.789-1.87A26.646,26.646,0,0,0,362.921,31.9Z"/><path class="cls-1" d="M296.223,56.973c-4.829,0-8.612-3.521-8.612-8.016V38.091a8.573,8.573,0,0,1-5.84-14.434c3.336-3.818,6.932-10.4,8.956-16.406a8.585,8.585,0,0,1,8.25-5.859,9.068,9.068,0,0,1,5.488,1.826,8.864,8.864,0,0,1,5.525-1.874A8.418,8.418,0,0,1,318.648,9.7v2.146a8.529,8.529,0,0,1,5.3-1.859,8.838,8.838,0,0,1,8.658,8.785,8.489,8.489,0,0,1-3.415,6.794,73.918,73.918,0,0,1-10.542,6.869V37.44a8.221,8.221,0,0,1,7.72-4.946,8.848,8.848,0,0,1,6.622,2.878,8.091,8.091,0,0,1,2,6.39c-1.36,12.3-9.656,13.964-17.592,13.964-3.251,0-9.454,0-13.127-3.8A8.41,8.41,0,0,1,296.223,56.973Z"/><path class="cls-1" d="M257.1,57.741c-4.909,0-8.612-3.467-8.612-8.064V47.758H237.3a7.947,7.947,0,0,1-7.9-8.16,8.42,8.42,0,0,1,1.2-4.383,8.269,8.269,0,0,1-.441-2.673,8.138,8.138,0,0,1,5.04-7.521c.2-.09.405-.181.61-.275-.112-.1-.217-.2-.317-.292a8.032,8.032,0,0,1-2.672-5.677,8.219,8.219,0,0,1-2.377-5.865A7.9,7.9,0,0,1,238.3,4.8h10.9a8.857,8.857,0,0,1,15.7,0h11.378a7.9,7.9,0,0,1,7.852,8.112,8.187,8.187,0,0,1-2.6,6.081,8.042,8.042,0,0,1-2.046,4.579c-.2.223-.4.449-.611.674.778.609,1.519,1.226,2.171,1.811a8.346,8.346,0,0,1,2.947,6.341,7.9,7.9,0,0,1-.378,2.414,8.337,8.337,0,0,1,1.47,4.786,7.969,7.969,0,0,1-7.946,8.16H265.66v1.919A8.236,8.236,0,0,1,257.1,57.741Z"/><path class="cls-1" d="M206.719,56.829a8.557,8.557,0,0,1-8.208-6c-.213-.1-.422-.213-.627-.333a37.13,37.13,0,0,1-4.539,3.768,8.875,8.875,0,0,1-5.045,1.654,8.42,8.42,0,0,1-8.422-8.4,8.708,8.708,0,0,1,3.866-7.108,22.156,22.156,0,0,0,2.691-2.321,8.586,8.586,0,0,1-2.1-3.462,8.418,8.418,0,0,1-4.221-7.172,8.251,8.251,0,0,1,2.181-5.564,8.523,8.523,0,0,1-2.514-6.148,8.044,8.044,0,0,1,7.946-8.3h1.17a8.3,8.3,0,0,1,8.42-6.863,8.18,8.18,0,0,1,8.425,6.863h.643a8.046,8.046,0,0,1,1.3.106,8.595,8.595,0,0,1,16.949,1.478V12.41c5.719.745,9.067,4.744,9.067,11.013a160.147,160.147,0,0,1-1.341,21.628c-1.521,9.84-8.062,11.3-11.827,11.3a22.846,22.846,0,0,1-4.359-.395l-.164-.034a9.113,9.113,0,0,1-3.351-1.476A8.737,8.737,0,0,1,206.719,56.829Z"/><path class="cls-1" d="M166.8,54.247c-.226,0-.458-.008-.694-.025-12.092-.906-20.856-9.7-20.856-20.911a23.034,23.034,0,0,1,1.16-7.185l-6.58.977a9.547,9.547,0,0,1-1.363.1,8.685,8.685,0,0,1-.914-17.318c9.552-1.253,21.879-2.62,32.183-3.572.336-.026.582-.036.822-.036a8.475,8.475,0,0,1,8.578,8.554,8.8,8.8,0,0,1-.292,2.259,29.993,29.993,0,0,1,3.754,4.184,8.239,8.239,0,0,1,1.712,5.029,7.851,7.851,0,0,1-5.753,7.531,7.909,7.909,0,0,1-6.879,4.228,8.726,8.726,0,0,1,3.945,7.343,8.908,8.908,0,0,1-2.257,5.957,8.683,8.683,0,0,1-6.565,2.885ZM162.817,31.9a12.213,12.213,0,0,0-.057,1.267c0,.928,0,2.605,4.135,3.32a8.323,8.323,0,0,1-1.789-1.87A26.688,26.688,0,0,0,162.817,31.9Z"/><path class="cls-1" d="M96.119,56.973c-4.829,0-8.612-3.521-8.612-8.016V38.091a8.573,8.573,0,0,1-5.84-14.434C85,19.839,88.6,13.253,90.623,7.251a8.584,8.584,0,0,1,8.249-5.859,9.071,9.071,0,0,1,5.489,1.826,8.864,8.864,0,0,1,5.525-1.874A8.419,8.419,0,0,1,118.544,9.7v2.146a8.532,8.532,0,0,1,5.3-1.859,8.839,8.839,0,0,1,8.658,8.785,8.487,8.487,0,0,1-3.418,6.8,73.906,73.906,0,0,1-10.539,6.867v5.01a8.221,8.221,0,0,1,7.72-4.947,8.848,8.848,0,0,1,6.621,2.876,8.1,8.1,0,0,1,2,6.389c-1.362,12.305-9.658,13.967-17.593,13.967-3.251,0-9.454,0-13.128-3.8A8.409,8.409,0,0,1,96.119,56.973Z"/><path class="cls-1" d="M69.569,53.085a8.7,8.7,0,0,1-9.038-8.735V21.359H58.176a8.2,8.2,0,0,1-8.326-8.447,8.2,8.2,0,0,1,8.326-8.448h22.74a8.2,8.2,0,0,1,8.326,8.448,8.2,8.2,0,0,1-8.326,8.447h-2.4V44.35A8.648,8.648,0,0,1,69.569,53.085Z"/><path class="cls-1" d="M37.257,53.421c-12.9,0-21.9-10.224-21.9-24.862S24.361,3.7,37.257,3.7A22.028,22.028,0,0,1,50.786,7.951l.085.062a9.39,9.39,0,0,1,4.16,7.682A8.915,8.915,0,0,1,39.8,21.852a3.129,3.129,0,0,0-2.54-1.117c-2.676,0-3.874,3.929-3.874,7.824s1.2,7.823,3.874,7.823A4.6,4.6,0,0,0,40.881,35.1a8.921,8.921,0,0,1,6.013-2.361,8.609,8.609,0,0,1,5.615,15.217A22.442,22.442,0,0,1,37.257,53.421Z"/><path class="cls-1" d="M9.039,53.085A8.7,8.7,0,0,1,0,44.35V12.768A8.7,8.7,0,0,1,9.039,4.032a8.648,8.648,0,0,1,8.943,8.736V44.35A8.647,8.647,0,0,1,9.039,53.085Z"/><path class="cls-2" d="M210.946,106.438a10,10,0,0,1,0-20h152a10,10,0,0,1,0,20Z"/><path class="cls-3" d="M362.947,92.437h-152a4,4,0,0,0,0,8h152a4,4,0,0,0,0-8ZM9.039,10.032c-1.71,0-3.039.96-3.039,2.736V44.35c0,1.775,1.329,2.735,3.039,2.735a2.646,2.646,0,0,0,2.943-2.735V12.768A2.646,2.646,0,0,0,9.039,10.032Zm37.855,28.7a2.953,2.953,0,0,0-1.994.816,10.5,10.5,0,0,1-7.643,2.832c-5.649,0-9.874-5.136-9.874-13.823,0-8.64,4.13-13.823,9.874-13.823A9.063,9.063,0,0,1,44,17.567,2.916,2.916,0,0,0,49.031,15.7c0-1.152-.475-1.92-1.757-2.88A16.084,16.084,0,0,0,37.257,9.7c-8.925,0-15.9,6.719-15.9,18.863,0,12.191,6.931,18.862,15.9,18.862a16.492,16.492,0,0,0,11.3-3.983A2.673,2.673,0,0,0,49.6,41.23,2.582,2.582,0,0,0,46.894,38.734Zm34.022-28.27H58.176a2.255,2.255,0,0,0-2.326,2.448,2.255,2.255,0,0,0,2.326,2.448h8.355V44.35c0,1.775,1.329,2.735,3.039,2.735a2.646,2.646,0,0,0,2.943-2.735V15.36h8.4a2.255,2.255,0,0,0,2.326-2.448A2.255,2.255,0,0,0,80.916,10.464ZM98.872,7.392a2.57,2.57,0,0,0-2.564,1.776C94.172,15.5,90.232,22.991,86.149,27.647a2.638,2.638,0,1,0,3.94,3.5,44.933,44.933,0,0,0,3.418-4.463v22.27c0,1.344,1.33,2.016,2.612,2.016,1.329,0,2.611-.672,2.611-2.016v-25.2a2.152,2.152,0,0,0-2.089-2.112A64.7,64.7,0,0,0,101.578,10.7a2.743,2.743,0,0,0,.142-.864A2.671,2.671,0,0,0,98.872,7.392Zm27.392,31.1a2.289,2.289,0,0,0-2.421,2.064c-.427,3.6-1.519,4.463-6.6,4.463-4.13,0-4.7-.48-4.7-2.207V28.654a61.306,61.306,0,0,0,12.913-7.871,2.446,2.446,0,0,0,1.044-2.016,2.853,2.853,0,0,0-2.658-2.784,2.588,2.588,0,0,0-1.709.672,54.419,54.419,0,0,1-9.59,6.48V9.7a2.678,2.678,0,0,0-5.317,0V43.438c0,4.7,1.9,6.287,10.065,6.287,7.975,0,10.871-1.776,11.631-8.639A2.41,2.41,0,0,0,126.264,38.494Zm40.8,4.08c-6.646-.816-10.3-4.08-10.3-9.408,0-4.559,1.566-9.551,8.972-13.823a16.109,16.109,0,0,1,5.222-1.919,2.586,2.586,0,0,0,2.184-2.593,2.506,2.506,0,0,0-2.849-2.543c-9.874.912-22.122,2.256-32,3.552a2.568,2.568,0,0,0-2.468,2.639,2.637,2.637,0,0,0,3.133,2.688c6.836-1.008,14.384-2.16,20.081-2.928v.1c-5.364,4.272-7.785,9.936-7.785,14.975,0,8.16,6.314,14.255,15.286,14.927a2.844,2.844,0,0,0,.522-5.663Zm7.074-21.647a2.268,2.268,0,0,0-1.424-.576,1.915,1.915,0,0,0-1.994,1.776,1.593,1.593,0,0,0,.522,1.152c1.092,1.152,2.421,2.592,3.513,3.984a2.058,2.058,0,0,0,1.661.864,1.864,1.864,0,0,0,1.9-1.824,2.248,2.248,0,0,0-.522-1.44A23.977,23.977,0,0,0,174.135,20.927Zm-4.795,3.744a1.982,1.982,0,0,0-3.323,1.3,1.713,1.713,0,0,0,.475,1.1,35.014,35.014,0,0,1,3.513,4.079,1.9,1.9,0,0,0,1.566.912,1.947,1.947,0,0,0,1.9-1.919,2.021,2.021,0,0,0-.427-1.3A23.887,23.887,0,0,0,169.34,24.671Zm34.2-4.8a2.566,2.566,0,0,0-1.709-.72,2.407,2.407,0,0,0-2.421,2.208,2.039,2.039,0,0,0,.617,1.392,47.78,47.78,0,0,1,3.371,4.08,2.235,2.235,0,0,0,1.851,1.1,2.6,2.6,0,0,0,2.422-2.544A2.188,2.188,0,0,0,207.241,24,26.184,26.184,0,0,0,203.538,19.871ZM187.73,18.1h18.657c1.329,0,1.946-1.151,1.946-2.352a2.053,2.053,0,0,0-1.946-2.3h-6.551V8.688c0-1.44-1.235-2.112-2.517-2.112A2.252,2.252,0,0,0,194.8,8.688V13.44H187.73a2.083,2.083,0,0,0-1.947,2.3A2.1,2.1,0,0,0,187.73,18.1Zm2.991,2.448a31.555,31.555,0,0,1-3.8,5.184,2.425,2.425,0,0,0-.807,1.728,2.521,2.521,0,0,0,4.415,1.488,31.554,31.554,0,0,0,4.272-6,2.418,2.418,0,0,0,.333-1.2,2.468,2.468,0,0,0-2.516-2.3A2.089,2.089,0,0,0,190.721,20.543Zm20.935,25.918a34.549,34.549,0,0,0,5.033-10.511,50.049,50.049,0,0,0,1.9-13.007l2.659-.048c1.139,0,1.424.288,1.424,1.248a125.4,125.4,0,0,1-1.282,19.151c-.237,1.44-.712,1.823-1.566,1.823a10.928,10.928,0,0,1-1.8-.192,2.434,2.434,0,0,0-2.9,2.544,2.575,2.575,0,0,0,2.184,2.592,16.834,16.834,0,0,0,3.228.288c3.181,0,5.174-1.536,5.887-6.143A153.2,153.2,0,0,0,227.7,23.423c0-3.5-1.234-5.232-5.412-5.136l-3.655.1V9.024a2.252,2.252,0,0,0-2.516-2.112c-1.282,0-2.564.672-2.564,2.112v9.455l-3.418.048a2.081,2.081,0,0,0-2.041,2.256,2.144,2.144,0,0,0,2.136,2.3l3.276-.048c-.332,10.607-2.991,17.855-8.4,23.374a2.924,2.924,0,0,0-.949,2.016,2.5,2.5,0,0,0,2.563,2.4,2.825,2.825,0,0,0,1.994-.912A40.35,40.35,0,0,0,211.656,46.461Zm-7.643-5.231c-1-1.344-2.136-2.736-3.275-4.032a34.673,34.673,0,0,0,2.943-6.336,3.286,3.286,0,0,0,.142-.912,2.45,2.45,0,0,0-2.516-2.4,2.28,2.28,0,0,0-2.231,1.632,35.943,35.943,0,0,1-1.852,4.175c-1-1.008-1.993-1.968-2.943-2.784a2.939,2.939,0,0,0-1.9-.767,2.359,2.359,0,0,0-1.566,4.175c1.234,1.152,2.468,2.4,3.7,3.792a33.285,33.285,0,0,1-7.31,7.536,2.756,2.756,0,0,0-1.33,2.207,2.435,2.435,0,0,0,2.421,2.4,2.883,2.883,0,0,0,1.615-.576,36.638,36.638,0,0,0,7.88-7.775c.807,1.008,1.567,1.968,2.279,2.975a2.539,2.539,0,0,0,2.041,1.1,2.63,2.63,0,0,0,2.564-2.591A2.986,2.986,0,0,0,204.013,41.23Zm70.981-21.647a2.052,2.052,0,0,0,.57-1.392,2.343,2.343,0,0,0-2.327-2.16,2.14,2.14,0,0,0-1.661.816,35.883,35.883,0,0,1-4.653,4.128,2.1,2.1,0,0,0-.949,1.728,2.3,2.3,0,0,0,2.231,2.208,2.188,2.188,0,0,0,1.377-.48A33.244,33.244,0,0,0,274.994,19.583ZM236.161,32.542a2.231,2.231,0,0,0,2.184,2.256,2.967,2.967,0,0,0,1.044-.24,46.6,46.6,0,0,0,8.735-5.039,2.073,2.073,0,0,0,.9-1.632,2.289,2.289,0,0,0-2.231-2.16,2.42,2.42,0,0,0-1.329.432,48.367,48.367,0,0,1-7.881,4.368A2.187,2.187,0,0,0,236.161,32.542Zm6.551-9.407a2.441,2.441,0,0,0,1.852.96,2.365,2.365,0,0,0,2.326-2.3,2.455,2.455,0,0,0-.76-1.68,32.638,32.638,0,0,0-3.418-3.167,2.528,2.528,0,0,0-1.519-.529,2.356,2.356,0,0,0-2.374,2.16,2,2,0,0,0,.712,1.44C240.481,20.879,241.952,22.319,242.712,23.135ZM237.3,41.758h17.185v7.919c0,1.392,1.282,2.064,2.611,2.064,1.282,0,2.564-.672,2.564-2.064V41.758h17.47a1.981,1.981,0,0,0,1.947-2.16,1.956,1.956,0,0,0-1.947-2.16H259.66v-3.6c1.377-.144,2.753-.336,4.13-.528.095.24.238.432.333.672a2.142,2.142,0,0,0,4.082-.72,2.683,2.683,0,0,0-.38-1.248,52.465,52.465,0,0,0-3.275-4.943,2.463,2.463,0,0,0-1.994-1.1A1.894,1.894,0,0,0,260.61,27.7a1.781,1.781,0,0,0,.379,1.008,11.972,11.972,0,0,1,.665,1.008c-1.614.192-3.228.287-4.842.432a73.08,73.08,0,0,0,6.978-8.64,2.176,2.176,0,0,0,.427-1.2,2.294,2.294,0,0,0-4.272-.912,47.545,47.545,0,0,1-2.8,3.984c-.57-.576-1.187-1.2-1.8-1.776a28.217,28.217,0,0,0,3.181-4.416,2,2,0,0,0,.285-.96,1.64,1.64,0,0,0-.523-1.2h17.993a1.924,1.924,0,0,0,1.851-2.112,1.923,1.923,0,0,0-1.851-2.112H259.613V8.064c0-1.344-1.282-2.016-2.564-2.016s-2.564.672-2.564,2.016V10.8H238.3a1.923,1.923,0,0,0-1.851,2.112,1.924,1.924,0,0,0,1.851,2.112h16.616a1.687,1.687,0,0,0-.333.48,26.987,26.987,0,0,1-2.373,3.551,2.353,2.353,0,0,0-1.424-.432,2.121,2.121,0,0,0-2.137,2.064,2.257,2.257,0,0,0,1,1.824,40.383,40.383,0,0,1,4.795,4.272c-1.044,1.247-2.184,2.448-3.371,3.647-.759,0-1.519.048-2.231.048a1.939,1.939,0,0,0-2.041,2.016,2.082,2.082,0,0,0,2.278,2.112q2.565-.072,5.412-.288v3.12H237.3a1.947,1.947,0,0,0-1.9,2.16A1.972,1.972,0,0,0,237.3,41.758Zm31.332-12c1.8,1.3,3.988,3.024,5.27,4.176a2.537,2.537,0,0,0,1.757.72,2.357,2.357,0,0,0,2.326-2.256,2.483,2.483,0,0,0-.95-1.871,44.3,44.3,0,0,0-5.649-4.224,2.365,2.365,0,0,0-3.655,1.872A1.926,1.926,0,0,0,268.632,29.758ZM288.2,32.111a2.712,2.712,0,0,0,1.994-.961,45.238,45.238,0,0,0,3.418-4.463v22.27c0,1.344,1.329,2.016,2.611,2.016,1.329,0,2.611-.672,2.611-2.016v-25.2a2.152,2.152,0,0,0-2.089-2.112A64.7,64.7,0,0,0,301.682,10.7a2.745,2.745,0,0,0,.143-.864,2.672,2.672,0,0,0-2.849-2.448,2.568,2.568,0,0,0-2.563,1.776c-2.137,6.336-6.077,13.823-10.16,18.479a2.59,2.59,0,0,0,1.947,4.464Zm29.2,17.614c7.975,0,10.871-1.776,11.631-8.639a2.41,2.41,0,0,0-2.659-2.592,2.289,2.289,0,0,0-2.421,2.064c-.427,3.6-1.519,4.463-6.6,4.463-4.13,0-4.7-.48-4.7-2.207V28.654a61.281,61.281,0,0,0,12.913-7.871,2.447,2.447,0,0,0,1.045-2.016,2.854,2.854,0,0,0-2.659-2.784,2.588,2.588,0,0,0-1.709.672,54.419,54.419,0,0,1-9.59,6.48V9.7a2.678,2.678,0,0,0-5.317,0V43.438C307.331,48.141,309.23,49.725,317.4,49.725Zm56.843-28.8a2.268,2.268,0,0,0-1.424-.576,1.915,1.915,0,0,0-1.994,1.776,1.593,1.593,0,0,0,.522,1.152c1.092,1.152,2.421,2.592,3.513,3.984a2.058,2.058,0,0,0,1.662.864,1.864,1.864,0,0,0,1.9-1.824,2.249,2.249,0,0,0-.523-1.44A23.977,23.977,0,0,0,374.239,20.927Zm-7.074,21.647c-6.646-.816-10.3-4.08-10.3-9.408,0-4.559,1.566-9.551,8.972-13.823a16.117,16.117,0,0,1,5.222-1.919,2.586,2.586,0,0,0,2.184-2.593,2.506,2.506,0,0,0-2.848-2.543c-9.875.912-22.123,2.256-32,3.552a2.568,2.568,0,0,0-2.469,2.639,2.637,2.637,0,0,0,3.133,2.688c6.836-1.008,14.385-2.16,20.081-2.928v.1c-5.364,4.272-7.785,9.936-7.785,14.975,0,8.16,6.314,14.255,15.286,14.927a2.844,2.844,0,0,0,.522-5.663Zm2.279-17.9a1.982,1.982,0,0,0-3.323,1.3,1.713,1.713,0,0,0,.475,1.1,34.919,34.919,0,0,1,3.513,4.079,1.9,1.9,0,0,0,1.566.912,1.947,1.947,0,0,0,1.9-1.919,2.021,2.021,0,0,0-.427-1.3A23.887,23.887,0,0,0,369.444,24.671Zm49.1-4.128a2.343,2.343,0,0,0-.76.144,88.929,88.929,0,0,1-9.162,2.256c-.665-1.488-1.329-3.024-1.9-4.56,3.086-.624,5.934-1.344,8.308-2.063a2.092,2.092,0,0,0,1.614-2.064,2.433,2.433,0,0,0-2.374-2.448,2.663,2.663,0,0,0-.854.144,71.065,71.065,0,0,1-8.213,1.92c-.475-1.632-.949-3.312-1.377-4.944a2.354,2.354,0,0,0-2.468-1.776c-1.282,0-2.611.72-2.611,2.112a2.807,2.807,0,0,0,.1.624c.379,1.584.854,3.216,1.376,4.848-3.085.48-6.171.815-8.735.96a2.12,2.12,0,0,0-2.041,2.3,2.279,2.279,0,0,0,2.421,2.448c2.991-.192,6.456-.624,9.969-1.2.57,1.536,1.235,3.072,1.947,4.608-4.225.624-8.545,1.152-12.676,1.344a2.217,2.217,0,0,0-2.183,2.352A2.315,2.315,0,0,0,391.394,30a134.111,134.111,0,0,0,14.575-1.679c1.234,2.064,2.468,3.935,3.513,5.423l-.048.1a24.045,24.045,0,0,0-6.456-.768c-8.83,0-12.913,3.36-12.913,8.3,0,5.567,4.462,8.735,14.479,8.735a48.083,48.083,0,0,0,5.08-.24A2.455,2.455,0,0,0,412,47.421a2.424,2.424,0,0,0-2.8-2.447c-1.424.1-2.754.191-4.7.191-6.931,0-8.973-1.583-8.973-3.887,0-2.016,1.662-3.744,7.5-3.744a29.587,29.587,0,0,1,10.3,1.872,4,4,0,0,0,1.234.24,2.538,2.538,0,0,0,2.611-2.544,2.968,2.968,0,0,0-.712-1.968,60.1,60.1,0,0,1-5.507-7.775,76.53,76.53,0,0,0,8.261-2.112,2.266,2.266,0,0,0,1.756-2.16A2.527,2.527,0,0,0,418.549,20.543Zm32.707,4.032a16.244,16.244,0,0,0-6.029,1.2l-.095-.144a105.062,105.062,0,0,0,9.542-10.848,3.831,3.831,0,0,0,.855-2.255c0-1.824-1.614-3.312-3.94-2.976-4.558.72-9.59,1.3-13.435,1.536a2.367,2.367,0,0,0-2.326,2.5,2.429,2.429,0,0,0,2.563,2.591c3.75-.288,6.979-.624,9.637-1.055a107.412,107.412,0,0,1-16.046,16.222A2.836,2.836,0,0,0,430.8,33.6a2.691,2.691,0,0,0,2.659,2.64,3.27,3.27,0,0,0,1.994-.768c5.839-4.56,10.491-6.239,15.286-6.239,4.558,0,7.216,2.735,7.216,6.143a8.236,8.236,0,0,1-4.6,7.823c-1.377-4.8-4.557-7.871-9.115-7.871-4.225,0-6.6,2.544-6.6,6.144,0,4.271,4.131,7.631,10.635,7.631,9.257,0,15.238-5.375,15.238-13.775C463.5,28.654,458.662,24.575,451.256,24.575ZM447.981,44.3c-3.751,0-5.555-1.247-5.555-2.831a1.749,1.749,0,0,1,1.709-1.872c1.994,0,3.418,1.632,4.225,4.7Zm67.035.913a56.368,56.368,0,0,1-14.764-5.28h13.482a1.823,1.823,0,0,0,1.757-2.016,1.823,1.823,0,0,0-1.757-2.016H497.166V33.358H508.94A1.763,1.763,0,0,0,510.6,31.39c0-1.007-.522-1.967-1.661-1.967H497.166V26.975h15.666a1.816,1.816,0,0,0,1.709-2.016,1.816,1.816,0,0,0-1.709-2.016H502.388A23.586,23.586,0,0,0,503.86,20.5a2.032,2.032,0,0,0,.285-1.008,1.74,1.74,0,0,0-.807-1.44H514.3a1.888,1.888,0,0,0,1.8-2.112,1.87,1.87,0,0,0-1.8-2.063h-7.311a2.909,2.909,0,0,0,.76-.576,19.954,19.954,0,0,0,2.184-2.976,2.524,2.524,0,0,0,.379-1.152A2.357,2.357,0,0,0,507.9,7.056,2.237,2.237,0,0,0,505.9,8.208a16.916,16.916,0,0,1-1.756,2.448,2.128,2.128,0,0,0-.522,1.392,2.044,2.044,0,0,0,1.234,1.824h-3.8v-5.9c0-1.344-1.187-1.968-2.374-1.968-1.234,0-2.421.624-2.421,1.968v5.9h-3.323v-5.9c0-1.344-1.187-1.968-2.374-1.968s-2.373.624-2.373,1.968v5.9h-3.561A2.159,2.159,0,0,0,485.915,12a2.941,2.941,0,0,0-.57-1.584,13.669,13.669,0,0,0-1.993-2.352A2.443,2.443,0,0,0,481.6,7.3a2.265,2.265,0,0,0-2.326,2.064,1.88,1.88,0,0,0,.522,1.248,18.655,18.655,0,0,1,1.8,2.352,2.562,2.562,0,0,0,1,.912h-7.216a1.9,1.9,0,0,0-1.757,2.063,1.912,1.912,0,0,0,1.757,2.112h10.871a1.758,1.758,0,0,0-.854,1.488,2.06,2.06,0,0,0,.475,1.248c.474.624.9,1.3,1.376,2.016l.095.144H477.56a1.816,1.816,0,0,0-1.709,2.016,1.816,1.816,0,0,0,1.709,2.016h14.764v2.448H480.835a1.767,1.767,0,0,0-1.661,1.967,1.794,1.794,0,0,0,1.661,1.968h11.489V35.9H475.9a2.035,2.035,0,0,0,0,4.032h13.293a56.568,56.568,0,0,1-14.527,6,2.108,2.108,0,0,0-1.757,2.112,2.158,2.158,0,0,0,2.184,2.208,4.683,4.683,0,0,0,.76-.1,57.624,57.624,0,0,0,16.663-7.535l-.19,4.367v2.88c0,1.248,1.234,1.872,2.421,1.872,1.234,0,2.421-.624,2.421-1.872v-2.88l-.237-4.559a54.96,54.96,0,0,0,16.9,7.343,5.238,5.238,0,0,0,.807.1,2.242,2.242,0,0,0,2.279-2.352A2.272,2.272,0,0,0,515.016,45.214ZM491.042,22.943a1.9,1.9,0,0,0,.475-1.2,2.107,2.107,0,0,0-.332-1.1,18.506,18.506,0,0,0-1.567-2.208,1.855,1.855,0,0,0-.475-.384H500.11a2.757,2.757,0,0,0-.855,1.056,25.407,25.407,0,0,1-2.136,3.84Zm50.145,7.967a19.572,19.572,0,0,0,2.231-4.463,4.813,4.813,0,0,0,.333-1.728c0-1.968-1.425-3.36-4.368-3.36h-2.9a2.119,2.119,0,0,0,.38-1.2,2.624,2.624,0,0,0-.427-1.344,27.218,27.218,0,0,0,3.892-3.552A4.986,4.986,0,0,0,541.757,12c0-1.968-1.709-3.552-4.985-3.552h-9.637a2.1,2.1,0,0,0-1.947,2.352,2.067,2.067,0,0,0,1.947,2.256H535.3q.713,0,.712.287a.959.959,0,0,1-.332.529,22.612,22.612,0,0,1-2.326,2.015c-.285-.239-.617-.431-.9-.671a2.787,2.787,0,0,0-1.662-.577,2.181,2.181,0,0,0-2.278,2.016,2.386,2.386,0,0,0,.949,1.776c1.044.912,2.041,1.824,3.086,2.928h-6.884a2.083,2.083,0,0,0-1.946,2.3,2.024,2.024,0,0,0,1.946,2.208H530.6a46.25,46.25,0,0,1-7.168,12.671,2.681,2.681,0,0,0-.712,1.776,2.3,2.3,0,0,0,2.326,2.3,2.761,2.761,0,0,0,2.136-1.152,41.863,41.863,0,0,0,4.7-7.632l-.237,8.3v2.975c0,.768-.238.96-.807.96a7.391,7.391,0,0,1-1.282-.144,2.272,2.272,0,0,0-2.706,2.4,2.344,2.344,0,0,0,1.994,2.4,15.212,15.212,0,0,0,3.086.24c2.9,0,4.652-1.344,4.652-4.992V25.871H538.1c.522,0,.76.1.76.336a1.518,1.518,0,0,1-.1.384,10.833,10.833,0,0,1-1.377,2.3,2.189,2.189,0,0,0-.475,1.3,2.072,2.072,0,0,0,2.137,1.967A2.57,2.57,0,0,0,541.187,30.91Zm24.876-4.991a29.948,29.948,0,0,1-7.121-2.88,24.018,24.018,0,0,0,4.51-6.624h2.041a1.929,1.929,0,0,0,1.8-2.159c0-1.1-.569-2.16-1.8-2.16H553.578c.379-.672.664-1.344.949-1.968a2.317,2.317,0,0,0,.19-.96,2.6,2.6,0,0,0-4.985-.624,30.335,30.335,0,0,1-6.029,8.975,2.425,2.425,0,0,0-.807,1.728,2.379,2.379,0,0,0,2.421,2.256,2.713,2.713,0,0,0,1.8-.768A13.113,13.113,0,0,0,548.5,19.3a28.333,28.333,0,0,0,3.276,3.84,23.868,23.868,0,0,1-6.457,3.168,2.278,2.278,0,0,0-1.756,2.208,2.248,2.248,0,0,0,2.231,2.3,2.636,2.636,0,0,0,.807-.143,30.56,30.56,0,0,0,8.783-4.512,32.355,32.355,0,0,0,9.3,4.512,3.553,3.553,0,0,0,.95.143,2.471,2.471,0,0,0,.427-4.895ZM555.144,20.3a22.55,22.55,0,0,1-3.513-3.888h6.456A21.325,21.325,0,0,1,555.144,20.3Zm5.27,12.623-4.605.048c.1-.624.19-1.3.237-1.967.143-1.537-1.234-2.353-2.563-2.353a2.247,2.247,0,0,0-2.469,2.017,19.28,19.28,0,0,1-.285,2.4l-7.121.1a2.026,2.026,0,0,0-1.851,2.256,1.982,1.982,0,0,0,1.851,2.208l6.029-.1a14.628,14.628,0,0,1-8.023,8.255,2.611,2.611,0,0,0-1.709,2.4,2.477,2.477,0,0,0,2.421,2.448,2.442,2.442,0,0,0,1.14-.24,20.258,20.258,0,0,0,11.346-12.911l4.7-.048c1,0,1.234.288,1.187,1.056a19.644,19.644,0,0,1-1,5.232,1.69,1.69,0,0,1-1.852,1.3,11.976,11.976,0,0,1-2.089-.191,2.461,2.461,0,0,0-2.943,2.5,2.33,2.33,0,0,0,1.946,2.352,18.239,18.239,0,0,0,3.371.336c3.418,0,5.364-1.248,6.5-5.039a29.528,29.528,0,0,0,1.187-6.72C566.063,34.654,564.5,32.878,560.414,32.926Z"/></svg>