<svg xmlns="http://www.w3.org/2000/svg" viewBox="0 0 933.877 106.444"><defs><style>.cls-1,.cls-2{fill:#fff;}.cls-2{fill-rule:evenodd;}.cls-3{fill:#003d5c;}</style></defs><title>アートボード 6</title><path class="cls-1" d="M910.123,56.685a8.561,8.561,0,0,1-8.8-8.5V11.567a8.8,8.8,0,0,1,17.6,0v6.806l.022.01a61.77,61.77,0,0,1,11.277,6.872,9.1,9.1,0,0,1,3.655,7.239,8.779,8.779,0,0,1-8.706,8.831,9.244,9.244,0,0,1-5.674-1.981q-.277-.211-.574-.429v9.273A8.462,8.462,0,0,1,910.123,56.685Z"/><path class="cls-1" d="M860.054,54.621a8.9,8.9,0,0,1-8.848-8.929,8.537,8.537,0,0,1,5.746-8.161,48.027,48.027,0,0,0,12.018-6.825,8.679,8.679,0,0,1-3.789.876,8.982,8.982,0,0,1-6.4-2.739,63.448,63.448,0,0,0-5.885-5.3,8.7,8.7,0,0,1-3.446-6.888,9.1,9.1,0,0,1,9.038-8.927,9.389,9.389,0,0,1,5.166,1.589l.112.076a48.678,48.678,0,0,1,7.944,6.819,8.879,8.879,0,0,1,2.51,6.2,9.128,9.128,0,0,1-1.69,5.263,42.086,42.086,0,0,0,8.055-10.141,8.625,8.625,0,0,1,7.669-4.577,8.78,8.78,0,0,1,8.9,8.64,8.876,8.876,0,0,1-1.3,4.57,62.991,62.991,0,0,1-32.332,27.8A9.422,9.422,0,0,1,860.054,54.621Z"/><path class="cls-1" d="M830.969,56.973a8.561,8.561,0,0,1-8.8-8.5V39.069q-1.532.93-3.063,1.771a9.136,9.136,0,0,1-4.608,1.206,8.661,8.661,0,0,1-8.612-8.689,8.99,8.99,0,0,1,5.018-8A67.653,67.653,0,0,0,831.958,7.393a9.019,9.019,0,0,1,7.176-3.65,8.8,8.8,0,0,1,8.9,8.689,8.9,8.9,0,0,1-1.889,5.407,75.058,75.058,0,0,1-6.609,7.557,8.522,8.522,0,0,1,.238,2.01V48.477A8.463,8.463,0,0,1,830.969,56.973Z"/><path class="cls-1" d="M779.823,57.116a26.429,26.429,0,0,1-4.723-.384,8.66,8.66,0,0,1-7.015-6.98,8.658,8.658,0,0,1-8.115-14.741,20.634,20.634,0,0,0,3.738-5.345,8.448,8.448,0,0,1-5.125-7.924,8.326,8.326,0,0,1,8.28-8.544h7.766V12.047a8.589,8.589,0,0,1,8.9-8.447,8.891,8.891,0,0,1,6.912,3.06,11.128,11.128,0,0,1,20.5,6.011,11.227,11.227,0,0,1-2.873,7.588,9.238,9.238,0,0,1,.119,1.483,8.452,8.452,0,0,1-5.075,7.9,43.413,43.413,0,0,0,3.532,5.244,9.547,9.547,0,0,1,2.256,6,8.827,8.827,0,0,1-8.849,8.783,9.239,9.239,0,0,1-7.53-3.986l-.216-.3C791.907,52.654,787.2,57.116,779.823,57.116Z"/><path class="cls-1" d="M741.2,54.284a8.684,8.684,0,0,1-8.27-6.144,14.735,14.735,0,0,1-8.82,2.689c-7.166,0-14.878-5.452-14.878-17.424,0-14.775,12.049-25.918,28.027-25.918,14.294,0,24.278,9.415,24.278,22.9,0,11.106-6.462,19.841-17.292,23.385A9.081,9.081,0,0,1,741.2,54.284Zm2.2-26.7A54.481,54.481,0,0,1,741,36.113c2.45-1.468,2.984-3.254,2.984-5.731A6.541,6.541,0,0,0,743.4,27.582Z"/><path class="cls-1" d="M692.708,54.717a8.721,8.721,0,0,1-6.563-2.978,8.58,8.58,0,0,1-2.553.386,8.128,8.128,0,0,1-4.9-1.618,14.859,14.859,0,0,1-5.452.994c-7.508,0-12.552-5.362-12.552-13.344a23.529,23.529,0,0,1,6.908-16.08c-.389-1.994-.7-4.011-.934-6.028a8.116,8.116,0,0,1,2-6.415,8.787,8.787,0,0,1,6.57-2.867,8.265,8.265,0,0,1,7.493,4.48,8.437,8.437,0,0,1,8.458-6.928,8.826,8.826,0,0,1,6.582,2.887,8.2,8.2,0,0,1,2.04,6.458c-.015.116-.029.232-.044.347A19.143,19.143,0,0,1,712,32.254c0,10.647-5.988,18.662-16.427,21.987l-.169.054-.275.07A9.328,9.328,0,0,1,692.708,54.717ZM694.515,33.2q-.7,1.508-1.466,2.923A3.7,3.7,0,0,0,694.515,33.2Z"/><path class="cls-1" d="M635.043,57.788a8.707,8.707,0,0,1-8.706-8.687,8.33,8.33,0,0,1,2.08-5.509,14.752,14.752,0,0,1-4.644-11.147,15.923,15.923,0,0,1,.658-4.6q-1.353.085-2.6.172c-.245.014-.412.019-.576.019a8.53,8.53,0,0,1-8.5-8.74,8.49,8.49,0,0,1,8.077-8.582c4.344-.261,8.721-.49,12.907-.679v-.1a8.624,8.624,0,0,1,17.211-.489c2.946-.058,5.566-.088,7.921-.088A8.464,8.464,0,0,1,667.343,18a8.325,8.325,0,0,1-8.278,8.544c-2.426,0-5.05.048-7.811.117.014.273.03.544.045.814a18.9,18.9,0,0,1,1.707,8.044c0,9.725-4.9,17.134-14.159,21.426l-.133.062-.135.055A9.428,9.428,0,0,1,635.043,57.788Z"/><path class="cls-1" d="M584.547,57.788a8.707,8.707,0,0,1-8.706-8.687,8.328,8.328,0,0,1,2.08-5.509,14.751,14.751,0,0,1-4.643-11.147,15.923,15.923,0,0,1,.658-4.6q-1.353.085-2.6.172c-.244.014-.411.019-.575.019a8.53,8.53,0,0,1-8.5-8.74,8.49,8.49,0,0,1,8.077-8.582c4.344-.261,8.721-.49,12.907-.679v-.1a8.624,8.624,0,0,1,17.211-.489c2.946-.058,5.566-.088,7.92-.088A8.465,8.465,0,0,1,616.847,18a8.325,8.325,0,0,1-8.278,8.544c-2.426,0-5.05.048-7.811.117.014.273.03.544.045.814a18.9,18.9,0,0,1,1.707,8.044c0,9.725-4.9,17.134-14.159,21.426l-.133.062-.135.055A9.428,9.428,0,0,1,584.547,57.788Z"/><path class="cls-1" d="M529.774,55.484c-7.037,0-14.878-5.539-14.878-13.487,0-6.193,3.8-10.412,7.548-13.132a8.309,8.309,0,0,1-6.124-8.178,8.323,8.323,0,0,1,8.227-8.5c.2-.005.418-.012.651-.021V10.415A8.572,8.572,0,0,1,542.315,10a8.652,8.652,0,0,1,2.867.7,8.5,8.5,0,0,1,9.711-1.05,41.442,41.442,0,0,1,7.871,5.492,8.917,8.917,0,0,1,3.06,6.7,8.748,8.748,0,0,1-5.158,7.965,14.8,14.8,0,0,1,2.167,7.922c0,9.078-6.207,15.62-16.2,17.072a9.4,9.4,0,0,1-1.366.1,8.479,8.479,0,0,1-6.281-2.714C536.849,54.336,533.73,55.484,529.774,55.484Z"/><path class="cls-1" d="M488.706,56.2a27.868,27.868,0,0,1-4.171-.313,8.769,8.769,0,0,1-4.331-1.905,8.756,8.756,0,0,1-4.268,1.115,8.417,8.417,0,0,1-8.611-8.4,9.217,9.217,0,0,1,1.142-4.33l.053-.1a63.3,63.3,0,0,0,4.105-9.077,8.329,8.329,0,0,1-6.155-8.192,8.5,8.5,0,0,1,6.984-8.384c1.174-.232,2.376-.432,3.557-.605.221-1.411.407-2.788.559-4.12a8.525,8.525,0,0,1,8.572-7.578,8.809,8.809,0,0,1,6.566,2.86,8.292,8.292,0,0,1,2.059,6.512q-.091.846-.2,1.71c.252.059.5.124.74.2a8.56,8.56,0,0,1,3-3.382c-.016-.2-.025-.4-.025-.6A7.976,7.976,0,0,1,503.9,4.158,8.033,8.033,0,0,1,510.971,0a8.215,8.215,0,0,1,5.2,1.91l.129.108a30.084,30.084,0,0,1,4.564,4.905,8.238,8.238,0,0,1,1.713,5.028,7.851,7.851,0,0,1-5.753,7.531,7.922,7.922,0,0,1-1.069,1.547,48.247,48.247,0,0,1,2.577,4.454,9.77,9.77,0,0,1,1.016,4.323,8.779,8.779,0,0,1-8.753,8.784,8.683,8.683,0,0,1-6.3-2.731,41.525,41.525,0,0,1-1.353,8.469C501.561,49.447,498.58,56.2,488.706,56.2Z"/><path class="cls-1" d="M439.681,57.837a8.037,8.037,0,0,1-3.812-.972,14.606,14.606,0,0,1-3.694.49h-4.789c-6.629,0-10.747-3.972-10.747-10.368V41.037a11.48,11.48,0,0,1,1.118-5.16,8.972,8.972,0,0,1-.134-7.03,8.829,8.829,0,0,1-.652-3.361c0-.173,0-.344.015-.514a8.591,8.591,0,0,1-2.674-6.349,8.59,8.59,0,0,1,2.674-6.349c-.01-.17-.015-.342-.015-.515a7.954,7.954,0,0,1,7.8-8.256h9.5a7.679,7.679,0,0,1,6.419,3.443,8.192,8.192,0,0,1,3.518-.8,8.334,8.334,0,0,1,7.3-4.033,8.674,8.674,0,0,1,6.22,2.559,8.03,8.03,0,0,1,.985,1.24,8.334,8.334,0,0,1,10.141,7.913,8.462,8.462,0,0,1-1.937,5.329q-.322.426-.659.84a8.346,8.346,0,0,1,2.314,12.2,8.1,8.1,0,0,1,.235,1.938,8.443,8.443,0,0,1-2.315,5.71q-.468.526-.963,1.038c.045.022.09.046.136.068a8.7,8.7,0,0,1,4.946,7.727A8.535,8.535,0,0,1,457.94,56.2a32.817,32.817,0,0,1-6.707-4.747,29.25,29.25,0,0,1-8,5.558l-.222.1A8.393,8.393,0,0,1,439.681,57.837Z"/><path class="cls-1" d="M379.872,58.221a8.209,8.209,0,0,1-8.469-8.113V47.577A8.18,8.18,0,0,1,364,39.453a8.566,8.566,0,0,1,1.267-4.406l.081-.136.088-.132a37.008,37.008,0,0,0,3.48-6.809,8.21,8.21,0,0,1-4.109-7.379c0-4.312,2.765-7.657,6.6-8.22V9.647c0-4.514,3.64-7.919,8.469-7.919a8.323,8.323,0,0,1,7.876,5.062,13.126,13.126,0,0,1,8.787-2.807h9.3c7.71,0,12.314,4.288,12.314,11.472V45.633c-.091,4.126-1.792,11.086-12.167,11.338l-9.45,0c-3.918,0-7.035-1.108-9.152-3.139A8.372,8.372,0,0,1,379.872,58.221Z"/><path class="cls-1" d="M329.66,58.509a8.23,8.23,0,0,1-8.469-8.16v-.1h-.028a8.158,8.158,0,0,1-8.185-8.111,8.576,8.576,0,0,1,1.953-5.359A27.841,27.841,0,0,0,317.4,33.1a8.269,8.269,0,0,1-3.895-7.18,8.459,8.459,0,0,1,2.529-6.147c-.173-.568-.344-1.068-.472-1.365l-.106-.246-.084-.255a8.356,8.356,0,0,1-.442-2.642,7.681,7.681,0,0,1,6.42-7.531c.74-3.706,4.069-6.34,8.315-6.34A8.156,8.156,0,0,1,337.9,7.4a8.378,8.378,0,0,1,2.932,1.177,8.553,8.553,0,0,1,4.018-.995,8.3,8.3,0,0,1,2.069.261,8.651,8.651,0,0,1,16.939,2V26.645a8.516,8.516,0,0,1,5.981,8.249,8.1,8.1,0,0,1-5.981,7.924v7.2a8.3,8.3,0,0,1-8.564,8.208c-4.909,0-8.61-3.529-8.61-8.208V46.757l-3.664.846a8.089,8.089,0,0,1-1.845.214,7.763,7.763,0,0,1-3.048-.622v3.154A8.229,8.229,0,0,1,329.66,58.509Z"/><path class="cls-1" d="M272.351,57.788a8.718,8.718,0,0,1-8.706-8.495,8.313,8.313,0,0,1,1.752-5.128c.326-.438.657-.917.979-1.415a8.319,8.319,0,0,1-2.541-6.08,8.519,8.519,0,0,1,1.154-4.331,8.6,8.6,0,0,1-.489-12.7v-.1a8.3,8.3,0,0,1,2.73-6.129,27.6,27.6,0,0,0,5.551-7.313l.1-.2a8.26,8.26,0,0,1,7.347-4.31,8.714,8.714,0,0,1,8.16,5.376h19.374a7.972,7.972,0,0,1,7.9,8.208,8.578,8.578,0,0,1-.83,3.72,8.563,8.563,0,0,1,.467,13.425,8.526,8.526,0,0,1,1.169,4.358,8.4,8.4,0,0,1-1.828,5.307c.392.6.751,1.172,1.063,1.708l.09.163a9.057,9.057,0,0,1,1.151,4.34,8.543,8.543,0,0,1-8.659,8.4,8.789,8.789,0,0,1-5.885-2.237,8.666,8.666,0,0,1-5.889,2.237,8.556,8.556,0,0,1-4.915-1.527,8.8,8.8,0,0,1-5.529,1.911,8.5,8.5,0,0,1-6.486-2.946A9.01,9.01,0,0,1,272.351,57.788Z"/><path class="cls-1" d="M245.725,54.284a8.682,8.682,0,0,1-8.269-6.144,14.742,14.742,0,0,1-8.822,2.689c-7.165,0-14.877-5.452-14.877-17.424,0-14.775,12.049-25.918,28.028-25.918,14.294,0,24.277,9.415,24.277,22.9,0,11.105-6.461,19.84-17.292,23.385A9.076,9.076,0,0,1,245.725,54.284Zm2.2-26.7a54.308,54.308,0,0,1-2.406,8.532c2.451-1.468,2.985-3.254,2.985-5.731A6.527,6.527,0,0,0,247.928,27.581Z"/><path class="cls-1" d="M209.353,55.437a8.943,8.943,0,0,1-6.932-3.364,67.232,67.232,0,0,0-6.668-6.958,59.4,59.4,0,0,1-13.146,9.157,9.062,9.062,0,0,1-4.065.973,8.778,8.778,0,0,1-8.753-8.784,8.648,8.648,0,0,1,4.906-7.8,44.091,44.091,0,0,0,15.034-12.377l-8.386.165a8.4,8.4,0,0,1-8.374-8.592,8.424,8.424,0,0,1,8.257-8.687l17.843-.317a7.95,7.95,0,0,1,5.95-5.137A8.018,8.018,0,0,1,211.631.287a8.153,8.153,0,0,1,5.831,2.451l.086.089a30.171,30.171,0,0,1,4.128,5.417,8.374,8.374,0,0,1,1.225,4.283,7.893,7.893,0,0,1-6.511,7.75,7.953,7.953,0,0,1-5.53,3.456,46.362,46.362,0,0,1-3.909,7.958,75.267,75.267,0,0,1,9.095,8.8,9.394,9.394,0,0,1,2.345,6.063A9.08,9.08,0,0,1,209.353,55.437Z"/><path class="cls-1" d="M145.47,56.492a8.492,8.492,0,0,1-8.422-8.543,8.58,8.58,0,0,1,4.574-7.558,27.231,27.231,0,0,0,3.453-2.337A9.011,9.011,0,0,1,142,38.59a8.224,8.224,0,0,1-7.746-5.239,40.769,40.769,0,0,0-2.624-5.36,8.1,8.1,0,0,1-1.184-4.232,8.425,8.425,0,0,1,8.611-8.208,8.552,8.552,0,0,1,2.918.509,8.75,8.75,0,0,1,6.434-2.765,8.46,8.46,0,0,1,7.439,4.267c.215.368.45.778.7,1.225a8.269,8.269,0,0,1,7.246-4,8.547,8.547,0,0,1,8.754,8.3,8.265,8.265,0,0,1-.2,1.723l-.036.178-.062.254c-3.383,12.813-12.033,24.358-22.573,30.13l-.172.091A8.813,8.813,0,0,1,145.47,56.492Z"/><path class="cls-1" d="M109.62,57.021a8.441,8.441,0,0,1-8.532-7.088l-1.224-6.884-8.044,1.36a8.81,8.81,0,0,1-1.431.12,8.435,8.435,0,0,1-8.37-8.675,8.3,8.3,0,0,1,3.323-6.73,8.883,8.883,0,0,1-2.041-5.75,8.162,8.162,0,0,1,7.116-8.294l4.405-.683L94.5,12.554a8.111,8.111,0,0,1,1.723-6.666,9.068,9.068,0,0,1,6.94-3.153,8.433,8.433,0,0,1,8.525,7.007l.352,1.993,4.912-.768a8.762,8.762,0,0,1,1.37-.109,8.453,8.453,0,0,1,8.406,8.676,8.508,8.508,0,0,1-.47,2.8,8.507,8.507,0,0,1,5.692,8.188,8.273,8.273,0,0,1-6.879,8.257L117,40.142l1.232,7.007a8.184,8.184,0,0,1-1.736,6.729A8.995,8.995,0,0,1,109.62,57.021Z"/><path class="cls-1" d="M69.569,54.093a8.7,8.7,0,0,1-9.038-8.737V22.367H58.175a8.2,8.2,0,0,1-8.326-8.448,8.2,8.2,0,0,1,8.326-8.448h22.74a8.2,8.2,0,0,1,8.326,8.448,8.2,8.2,0,0,1-8.326,8.448h-2.4V45.356A8.648,8.648,0,0,1,69.569,54.093Z"/><path class="cls-1" d="M37.257,54.429c-12.9,0-21.9-10.224-21.9-24.863S24.36,4.7,37.257,4.7a22.032,22.032,0,0,1,13.53,4.256l.083.062A9.388,9.388,0,0,1,55.03,16.7,8.913,8.913,0,0,1,39.8,22.856a3.13,3.13,0,0,0-2.538-1.113c-2.676,0-3.875,3.929-3.875,7.823s1.2,7.823,3.875,7.823A4.6,4.6,0,0,0,40.882,36.1a8.919,8.919,0,0,1,6.012-2.361,8.61,8.61,0,0,1,5.615,15.218A22.449,22.449,0,0,1,37.257,54.429Z"/><path class="cls-1" d="M9.038,54.093A8.7,8.7,0,0,1,0,45.356V13.775A8.7,8.7,0,0,1,9.038,5.039a8.647,8.647,0,0,1,8.943,8.736V45.356A8.647,8.647,0,0,1,9.038,54.093Z"/><path class="cls-2" d="M411.512,106.444a10,10,0,0,1,0-20h112a10,10,0,0,1,0,20Z"/><path class="cls-3" d="M523.512,92.445h-112a4,4,0,0,0,0,8h112a4,4,0,0,0,0-8ZM9.038,11.039C7.329,11.039,6,12,6,13.775V45.357c0,1.776,1.329,2.736,3.038,2.736a2.646,2.646,0,0,0,2.943-2.736V13.775A2.646,2.646,0,0,0,9.038,11.039Zm37.856,28.7a2.953,2.953,0,0,0-1.994.816,10.5,10.5,0,0,1-7.643,2.832c-5.65,0-9.875-5.136-9.875-13.823,0-8.639,4.13-13.823,9.875-13.823A9.06,9.06,0,0,1,44,18.575,2.915,2.915,0,0,0,49.03,16.7c0-1.152-.475-1.92-1.756-2.88A16.084,16.084,0,0,0,37.257,10.7c-8.925,0-15.9,6.72-15.9,18.863,0,12.191,6.931,18.862,15.9,18.862a16.483,16.483,0,0,0,11.3-3.983A2.671,2.671,0,0,0,49.6,42.237,2.582,2.582,0,0,0,46.894,39.741Zm34.021-28.27H58.175a2.255,2.255,0,0,0-2.326,2.448,2.255,2.255,0,0,0,2.326,2.448h8.356v28.99c0,1.776,1.329,2.736,3.038,2.736a2.646,2.646,0,0,0,2.943-2.736V16.367h8.4a2.255,2.255,0,0,0,2.326-2.448A2.255,2.255,0,0,0,80.915,11.471ZM123.1,27.934l-13.91,2.352-1.187-6.768,10.777-1.68a2.218,2.218,0,0,0,1.946-2.3,2.482,2.482,0,0,0-2.848-2.64l-10.729,1.68-1.377-7.824a2.471,2.471,0,0,0-2.611-2.016c-1.519,0-3.086,1.008-2.753,2.784l1.376,7.872L91.247,21.022A2.2,2.2,0,0,0,89.3,23.374a2.431,2.431,0,0,0,2.753,2.64l10.634-1.68,1.187,6.816L89.966,33.5a2.3,2.3,0,0,0-1.947,2.352,2.466,2.466,0,0,0,2.8,2.639l13.91-2.351,2.278,12.815a2.47,2.47,0,0,0,2.611,2.064c1.52,0,3.039-1.056,2.706-2.832L110.047,35.23,124,32.878a2.3,2.3,0,0,0,1.946-2.352A2.449,2.449,0,0,0,123.1,27.934Zm40.692-7.151a2.2,2.2,0,0,0-2.326,1.679c-2.848,10.416-8.45,18.335-16.948,23.183a2.585,2.585,0,0,0-1.471,2.3,2.528,2.528,0,0,0,2.421,2.543,2.977,2.977,0,0,0,1.329-.383c9.115-4.992,16.663-15.071,19.654-26.4a3.378,3.378,0,0,0,.095-.624A2.562,2.562,0,0,0,163.794,20.783ZM149.03,28.606a2.24,2.24,0,0,0,2.184,1.584,2.491,2.491,0,0,0,2.611-2.3,2.689,2.689,0,0,0-.143-.816,33.835,33.835,0,0,0-3.038-6.527,2.448,2.448,0,0,0-2.231-1.248,2.368,2.368,0,0,0-2.564,2.112,2.105,2.105,0,0,0,.333,1.1A42.26,42.26,0,0,1,149.03,28.606Zm-4.32,1.632a2.743,2.743,0,0,0-.142-.864,37.007,37.007,0,0,0-3.324-6.576,2.524,2.524,0,0,0-2.183-1.247,2.488,2.488,0,0,0-2.611,2.207,2.143,2.143,0,0,0,.332,1.152A46.617,46.617,0,0,1,139.82,31.1,2.25,2.25,0,0,0,142,32.59,2.589,2.589,0,0,0,144.71,30.238Zm63.456-13.487a1.822,1.822,0,0,0,1.614,1.056,1.955,1.955,0,0,0,1.946-1.92,2.143,2.143,0,0,0-.332-1.152,25.628,25.628,0,0,0-3.323-4.512,1.9,1.9,0,0,0-1.424-.672,1.946,1.946,0,0,0-1.994,1.776,1.614,1.614,0,0,0,.379,1.056A34.379,34.379,0,0,1,208.166,16.751ZM213.2,6.96a2.186,2.186,0,0,0-1.567-.672,1.855,1.855,0,0,0-1.946,1.68,1.678,1.678,0,0,0,.427,1.055,52.813,52.813,0,0,1,3.133,4.32A2.144,2.144,0,0,0,215,14.4a1.873,1.873,0,0,0,1.9-1.872,2.61,2.61,0,0,0-.427-1.3A24.144,24.144,0,0,0,213.2,6.96ZM198.766,33.022a44.707,44.707,0,0,0,6.5-11.471,8.116,8.116,0,0,0,.522-2.592c0-2.592-1.9-4.224-5.6-4.128l-18.894.336a2.457,2.457,0,0,0-2.326,2.688,2.408,2.408,0,0,0,2.373,2.592l17-.336c.807,0,1.187.192,1.187.624a1.806,1.806,0,0,1-.19.767c-3.751,9.312-12.059,17.471-21.933,22.511a2.671,2.671,0,0,0-1.614,2.448,2.8,2.8,0,0,0,2.753,2.784,3.049,3.049,0,0,0,1.377-.336,54.973,54.973,0,0,0,15.476-11.9,73.57,73.57,0,0,1,11.679,11.28,2.946,2.946,0,0,0,2.279,1.152,3.04,3.04,0,0,0,3.038-2.88,3.393,3.393,0,0,0-.9-2.16A70.826,70.826,0,0,0,198.766,33.022Zm43.019-19.535c-13.055,0-22.028,8.975-22.028,19.919,0,7.487,4.035,11.423,8.878,11.423,3.655,0,6.456-1.392,9.067-6.048,2.943-5.231,4.89-12.431,5.364-20.4,7.216.528,11.442,5.711,11.442,12,0,5.952-2.706,10.079-9.448,12.527a2.761,2.761,0,0,0-1.994,2.64,2.678,2.678,0,0,0,2.659,2.736,3.087,3.087,0,0,0,1.092-.192c8.165-2.64,13.245-9.024,13.245-17.711C260.062,20.831,253.368,13.487,241.785,13.487Zm-9.02,22.751c-1.377,2.447-2.659,3.215-4.13,3.215-1.709,0-3.419-1.632-3.419-6.047a15.158,15.158,0,0,1,12.3-14.687C236.942,25.774,235.186,31.966,232.765,36.238Zm73.815,4.9a2.759,2.759,0,0,0-2.231-1.056,2.506,2.506,0,0,0-2.659,2.256,2.552,2.552,0,0,0,.57,1.488,59.911,59.911,0,0,1,3.513,5.28,2.887,2.887,0,0,0,2.516,1.488,2.52,2.52,0,0,0,2.658-2.4,3.1,3.1,0,0,0-.427-1.488A46.779,46.779,0,0,0,306.58,41.133Zm-9.97.912a2.86,2.86,0,0,0-2.468-1.488,2.226,2.226,0,0,0-2.421,2.064,2.257,2.257,0,0,0,.237,1.056c.712,1.536,1.519,3.5,2.089,5.136a2.6,2.6,0,0,0,2.468,1.776,2.4,2.4,0,0,0,2.564-2.352,3.66,3.66,0,0,0-.142-.96A37.154,37.154,0,0,0,296.61,42.045Zm-9.447.672a2.623,2.623,0,0,0-2.516-1.872,2.366,2.366,0,0,0-2.516,2.256,2.408,2.408,0,0,0,.142.768c.475,1.488.95,3.5,1.282,5.04a2.514,2.514,0,0,0,2.516,2.063,2.414,2.414,0,0,0,2.564-2.879A38.21,38.21,0,0,0,287.163,42.717Zm-11.251-2.16a2.412,2.412,0,0,0-2.279,1.488,34.946,34.946,0,0,1-3.465,5.76,2.372,2.372,0,0,0-.523,1.488,2.677,2.677,0,0,0,2.706,2.495,2.963,2.963,0,0,0,2.422-1.343,35.844,35.844,0,0,0,3.608-6.336,2.457,2.457,0,0,0,.237-1.1A2.6,2.6,0,0,0,275.912,40.557Zm34.513-17.039h-5.269V17.375h2.611a1.988,1.988,0,0,0,1.9-2.208,1.988,1.988,0,0,0-1.9-2.208H281.514c.427-.72.854-1.392,1.187-2.064a2.27,2.27,0,0,0,.237-1.056,2.517,2.517,0,0,0-2.706-2.255,2.282,2.282,0,0,0-2.089,1.2,33.641,33.641,0,0,1-6.836,9.024,2.347,2.347,0,0,0-.807,1.728,2.525,2.525,0,0,0,2.563,2.352,2.985,2.985,0,0,0,1.994-.816c.428-.384.807-.768,1.235-1.2v3.647h-6.457a2.035,2.035,0,0,0-1.9,2.256,2.062,2.062,0,0,0,1.9,2.256h6.457v6.432h-4.558a2.017,2.017,0,0,0-1.9,2.207,2.018,2.018,0,0,0,1.9,2.208h36.84a1.988,1.988,0,0,0,1.9-2.208,1.987,1.987,0,0,0-1.9-2.207h-3.418V28.03h5.269a2.031,2.031,0,0,0,1.9-2.256A2.005,2.005,0,0,0,310.425,23.518ZM284.267,34.462h-3.228V28.03h3.228Zm0-10.944h-3.228V17.375h3.228Zm8.023,10.944h-3.37V28.03h3.37Zm0-10.944h-3.37V17.375h3.37Zm8.118,10.944h-3.465V28.03h3.465Zm0-10.944h-3.465V17.375h3.465Zm60.774,8.88-3.323.768V9.839a2.62,2.62,0,0,0-5.174,0V34.318l-12.059,2.735a2.055,2.055,0,0,0-1.614,2.16c0,1.392,1.045,2.928,2.659,2.544l11.014-2.544v10.8a2.62,2.62,0,0,0,5.174,0V38.061l4.32-1.008a2.093,2.093,0,0,0,1.662-2.159C363.841,33.5,362.8,32.014,361.182,32.4ZM332.129,30.19V28.174h4.557a2.022,2.022,0,0,0,1.8-2.256c0-1.152-.617-2.256-1.8-2.256h-4.557V9.311c0-1.3-1.235-1.92-2.469-1.92s-2.469.624-2.469,1.92V23.662h-5.934c-1.139,0-1.756,1.1-1.756,2.256a2.022,2.022,0,0,0,1.8,2.256h4.89a44.212,44.212,0,0,1-6.6,12.383,2.579,2.579,0,0,0-.617,1.584,2.139,2.139,0,0,0,2.183,2.112A2.764,2.764,0,0,0,323.3,43.1a31.417,31.417,0,0,0,4.082-6.959l-.19,9.311v4.895a2.491,2.491,0,0,0,4.938,0V35.422a26.654,26.654,0,0,1,2.611,2.543,2.536,2.536,0,0,0,1.851.912,2.17,2.17,0,0,0,2.136-2.159,2.923,2.923,0,0,0-.807-1.92A29.5,29.5,0,0,0,332.129,30.19ZM346.7,20.927a2.592,2.592,0,0,0,1.851.815,2.518,2.518,0,0,0,2.469-2.447,2.662,2.662,0,0,0-.76-1.776,23.956,23.956,0,0,0-3.892-3.408,2.5,2.5,0,0,0-4.036,1.872,2.4,2.4,0,0,0,.9,1.776C344.282,18.671,345.564,19.823,346.7,20.927Zm-24.354-.769a1.913,1.913,0,0,0,1.946,1.584,2.133,2.133,0,0,0,2.137-2.543,21.687,21.687,0,0,0-1.567-4.464,2,2,0,0,0-1.9-1.152,1.851,1.851,0,0,0-2.041,1.68,2.408,2.408,0,0,0,.142.768A29.735,29.735,0,0,1,322.349,20.158Zm19.084,7.632a46.231,46.231,0,0,1,3.7,3.264,2.491,2.491,0,0,0,1.8.816,2.561,2.561,0,0,0,2.469-2.5,2.662,2.662,0,0,0-.76-1.776,27.394,27.394,0,0,0-4.082-3.456,2.537,2.537,0,0,0-1.52-.528,2.565,2.565,0,0,0-2.563,2.4A2.247,2.247,0,0,0,341.433,27.79Zm-6.646-6.048a1.972,1.972,0,0,0,1.757-1.055,26.519,26.519,0,0,0,1.8-5.04,1.938,1.938,0,0,0-2.042-2.4,1.774,1.774,0,0,0-1.8,1.344,30.172,30.172,0,0,1-1.566,4.7,1.654,1.654,0,0,0-.19.768A1.883,1.883,0,0,0,334.787,21.742ZM412.153,45.5V15.455c0-3.792-1.851-5.472-6.314-5.472h-9.305c-4.462,0-6.314,1.68-6.314,5.472V45.5c0,3.792,1.852,5.471,6.314,5.471h9.305C409.779,50.876,412.058,49.821,412.153,45.5Zm-5.222-.864c0,1.2-.38,1.632-1.662,1.632H397.1c-1.187-.048-1.662-.384-1.662-1.632V37.965h11.489Zm0-11.279H395.442V26.206h11.489Zm0-11.76H395.442V16.319c0-1.2.38-1.632,1.662-1.632h8.165c1.282,0,1.662.432,1.662,1.632ZM382.292,27.07V22.894h3.656c1.234,0,1.8-1.152,1.8-2.3s-.57-2.3-1.8-2.3h-3.656V9.647c0-1.3-1.234-1.92-2.421-1.92-1.234,0-2.468.624-2.468,1.92v8.64H372.56c-1.187,0-1.756,1.152-1.756,2.3s.569,2.3,1.8,2.3h4.272a51.585,51.585,0,0,1-6.456,15.215A2.614,2.614,0,0,0,370,39.453a2.184,2.184,0,0,0,4.082,1.056,38.311,38.311,0,0,0,3.466-7.007l-.142,9.983v6.624a2.471,2.471,0,0,0,4.889,0V32.494a26.243,26.243,0,0,1,2.089,2.591,2.052,2.052,0,0,0,1.662.913,2.2,2.2,0,0,0,2.184-2.112,2.58,2.58,0,0,0-.618-1.584A30.641,30.641,0,0,0,382.292,27.07Zm59.858-6.287a2.734,2.734,0,0,0,2.374-1.488,20.515,20.515,0,0,0,1.946-4.464,3.239,3.239,0,0,0,.095-.672,2.19,2.19,0,0,0-2.326-2.016,2.143,2.143,0,0,0-2.089,1.536,20.848,20.848,0,0,1-1.756,3.744,2.774,2.774,0,0,0-.428,1.392A2.083,2.083,0,0,0,442.15,20.783ZM422.639,46.989c0,2.928,1.186,4.367,4.747,4.367h4.7c3.181-.048,4.652-1.055,4.7-4.367V41.037c0-2.928-1.187-4.368-4.7-4.368h-4.7c-3.561,0-4.747,1.44-4.747,4.368Zm4.7-4.9c0-.816.238-1.1,1-1.1h2.753c.76,0,1,.288,1,1.1v3.888c0,.816-.237,1.056-1,1.056h-2.753c-.76,0-1-.288-1-1.056Zm-2.563-28.078h9.5a2.026,2.026,0,0,0,1.851-2.256c0-1.152-.617-2.256-1.851-2.256h-9.5c-1.187,0-1.8,1.1-1.8,2.256A2.022,2.022,0,0,0,424.775,14.015Zm14.907,37.821a2.494,2.494,0,0,0,.949-.24,21.21,21.21,0,0,0,10.3-9.887,25.188,25.188,0,0,0,9.874,9.216,2.7,2.7,0,0,0,1.282.336,2.589,2.589,0,0,0,2.516-2.592,2.644,2.644,0,0,0-1.614-2.352,22.258,22.258,0,0,1-6.979-5.328,30.452,30.452,0,0,0,6.029-5.184,2.537,2.537,0,0,0,.76-1.679,2.421,2.421,0,0,0-2.468-2.256,2.313,2.313,0,0,0-1.9,1.008,26.566,26.566,0,0,1-4.843,4.655A15.317,15.317,0,0,1,452.832,36a33.211,33.211,0,0,0,.664-6.336A2.278,2.278,0,0,0,450.98,27.6c-1.234,0-2.421.672-2.421,1.968-.19,9.167-2.991,14.447-9.779,17.807a2.287,2.287,0,0,0-1.425,2.016A2.46,2.46,0,0,0,439.682,51.836ZM424.775,34.462h9.5a2.026,2.026,0,0,0,1.851-2.256c0-1.152-.617-2.256-1.851-2.256h-9.5c-1.187,0-1.8,1.1-1.8,2.256A2.022,2.022,0,0,0,424.775,34.462Zm16.663-.672a24.023,24.023,0,0,1-1.9,3.839,2.772,2.772,0,0,0-.427,1.392,2.251,2.251,0,0,0,2.326,2.208,2.61,2.61,0,0,0,2.231-1.344,20.572,20.572,0,0,0,2.184-4.991,2.407,2.407,0,0,0,.095-.576,2.283,2.283,0,0,0-2.374-2.16A2.176,2.176,0,0,0,441.438,33.79ZM422.211,21.022h13.958a2.144,2.144,0,0,0,1.946-2.4,2.145,2.145,0,0,0-1.946-2.4H422.211c-1.234,0-1.9,1.2-1.9,2.4S420.977,21.022,422.211,21.022Zm18.278,9.408a2.467,2.467,0,0,0,1.091-.288,21.269,21.269,0,0,0,9.59-8.783,24.058,24.058,0,0,0,9.257,7.871,2.869,2.869,0,0,0,1.33.336,2.529,2.529,0,0,0,2.516-2.448,2.561,2.561,0,0,0-1.662-2.3,24.157,24.157,0,0,1-5.887-3.84,29.821,29.821,0,0,0,5.46-5.519,2.513,2.513,0,0,0,.665-1.632,2.268,2.268,0,0,0-2.327-2.112,2.361,2.361,0,0,0-2.041,1.152,30.248,30.248,0,0,1-4.415,4.944,15.521,15.521,0,0,1-.9-1.488,25.685,25.685,0,0,0,.807-5.952,2.458,2.458,0,0,0-4.89-.1c-.285,8.3-3.038,12.575-9.4,15.791a2.348,2.348,0,0,0-1.425,2.064A2.283,2.283,0,0,0,440.489,30.43Zm-15.714-2.688h9.5a2.026,2.026,0,0,0,1.851-2.256c0-1.152-.617-2.256-1.851-2.256h-9.5c-1.187,0-1.8,1.1-1.8,2.256A2.022,2.022,0,0,0,424.775,27.742Zm83.205,3.024a2.907,2.907,0,0,0,2.611,1.824,2.739,2.739,0,0,0,2.754-2.784,3.689,3.689,0,0,0-.38-1.632,42.7,42.7,0,0,0-7.548-10.511,3.159,3.159,0,0,0-2.184-.912,2.645,2.645,0,0,0-2.754,2.4,2.654,2.654,0,0,0,.76,1.728A46.346,46.346,0,0,1,507.98,30.766Zm5.032-17.855a2.058,2.058,0,0,0,1.662.864,1.864,1.864,0,0,0,1.9-1.824,2.253,2.253,0,0,0-.522-1.44A23.939,23.939,0,0,0,512.4,6.575,2.27,2.27,0,0,0,510.971,6a1.914,1.914,0,0,0-1.994,1.775,1.593,1.593,0,0,0,.522,1.152C510.591,10.079,511.92,11.519,513.012,12.911Zm-37.646,14.5c1.8-.384,3.7-.72,5.649-.96a81.447,81.447,0,0,1-7.263,18.767,3.253,3.253,0,0,0-.427,1.488,2.478,2.478,0,0,0,2.611,2.4,3.012,3.012,0,0,0,2.563-1.536,90.075,90.075,0,0,0,8.023-21.695c1.282-.1,2.469-.144,3.513-.144,2.279,0,3.086,1.152,3.086,5.472a38.838,38.838,0,0,1-1.234,10.415c-.807,2.832-1.662,3.36-3.324,3.36a22.233,22.233,0,0,1-2.61-.192,2.434,2.434,0,0,0-2.8,2.592,2.561,2.561,0,0,0,2.326,2.592,21.64,21.64,0,0,0,3.228.24c4.795,0,6.978-1.968,8.45-7.488a43.1,43.1,0,0,0,1.282-11.471c0-7.536-2.231-10.319-8.308-10.319-.759,0-1.614,0-2.563.047.522-2.639.949-5.327,1.234-7.919a2.65,2.65,0,0,0-5.27-.48c-.332,2.928-.807,5.9-1.376,8.832-2.516.287-5.128.624-7.549,1.1a2.48,2.48,0,0,0-2.136,2.5A2.324,2.324,0,0,0,475.366,27.406Zm32.9-10.607a1.9,1.9,0,0,0,1.567.912,1.947,1.947,0,0,0,1.9-1.92,2.016,2.016,0,0,0-.427-1.3,23.887,23.887,0,0,0-3.7-4.176,1.982,1.982,0,0,0-3.323,1.3,1.718,1.718,0,0,0,.475,1.1A34.757,34.757,0,0,1,508.265,16.8Zm43.774-1.872a2.565,2.565,0,0,0-1.282-.336,2.869,2.869,0,0,0-2.706,2.832,2.4,2.4,0,0,0,1.329,2.16,36.53,36.53,0,0,1,5.744,4.175,2.882,2.882,0,0,0,1.947.816,2.792,2.792,0,0,0,2.753-2.736,2.988,2.988,0,0,0-1.092-2.255A35.682,35.682,0,0,0,552.039,14.927Zm-7.6,13.247a31.646,31.646,0,0,0-8.118.96V21.982c2.136-.335,4.13-.767,5.887-1.2a2.4,2.4,0,0,0,1.993-2.352,2.435,2.435,0,0,0-2.516-2.448,2.6,2.6,0,0,0-.854.1c-1.329.336-2.9.624-4.51.912V10.415a2.573,2.573,0,0,0-5.127,0v7.3c-2.374.288-4.653.432-6.552.48a2.316,2.316,0,0,0-2.326,2.5,2.279,2.279,0,0,0,2.326,2.447c1.9,0,4.178-.192,6.552-.432v8.064C522.89,34.654,520.9,38.493,520.9,42c0,4.176,4.605,7.488,8.878,7.488,4.415,0,6.551-1.824,6.551-6.816V34.126a27.742,27.742,0,0,1,8.165-1.248c4.51,0,6.931,2.256,6.931,4.9,0,3.12-1.851,5.232-6.5,6.048a2.484,2.484,0,0,0-2.183,2.5,2.509,2.509,0,0,0,3.038,2.544c6.931-1.008,11.061-4.944,11.061-11.136C556.833,31.726,552.039,28.174,544.443,28.174ZM531.2,42.285c0,1.2-.143,2.064-1.519,2.112-1.757,0-3.466-.96-3.466-2.5,0-1.872.855-3.456,4.985-5.807Zm77.18-26.926c-4.225,0-8.972.1-13.909.24V9.887a2.355,2.355,0,0,0-2.564-2.3,2.447,2.447,0,0,0-2.658,2.351c0,2.16,0,4.128.047,5.856-6.5.24-13.008.576-18.609.912a2.466,2.466,0,0,0-2.422,2.592,2.568,2.568,0,0,0,2.659,2.736c5.554-.384,12.011-.72,18.42-1.009.047,1.3.1,2.544.142,3.84a11.032,11.032,0,0,0-2.848-.384c-4.415,0-7.359,3.264-7.359,7.968,0,5.471,3.418,8.639,8.071,8.639a5.2,5.2,0,0,0,3.513-1.2l.142.048c-.854,2.3-3.465,5.04-7.311,6.72a2.627,2.627,0,0,0,.855,5.135,3.484,3.484,0,0,0,1.282-.287c6.836-3.168,10.681-8.4,10.681-15.983a12.353,12.353,0,0,0-1.614-6.384c-.19-2.784-.285-5.52-.332-8.3,4.937-.144,9.779-.288,14-.288A2.377,2.377,0,0,0,610.847,18,2.441,2.441,0,0,0,608.378,15.359ZM587.585,36.381a3.556,3.556,0,0,1-3.276-3.791c0-2.112,1.14-3.408,2.754-3.408,2.041,0,3.323,1.68,3.323,3.84C590.386,35.23,589.2,36.381,587.585,36.381Zm71.29-21.022c-4.226,0-8.973.1-13.91.24V9.887a2.355,2.355,0,0,0-2.564-2.3,2.447,2.447,0,0,0-2.658,2.351c0,2.16,0,4.128.047,5.856-6.5.24-13.007.576-18.609.912A2.465,2.465,0,0,0,618.76,19.3a2.568,2.568,0,0,0,2.658,2.736c5.554-.384,12.011-.72,18.42-1.009.047,1.3.1,2.544.142,3.84a11.032,11.032,0,0,0-2.848-.384c-4.415,0-7.359,3.264-7.359,7.968,0,5.471,3.418,8.639,8.071,8.639a5.2,5.2,0,0,0,3.513-1.2l.142.048c-.854,2.3-3.465,5.04-7.311,6.72a2.627,2.627,0,0,0,.855,5.135,3.484,3.484,0,0,0,1.282-.287c6.836-3.168,10.681-8.4,10.681-15.983a12.343,12.343,0,0,0-1.614-6.384c-.19-2.784-.285-5.52-.332-8.3,4.937-.144,9.779-.288,14.005-.288A2.377,2.377,0,0,0,661.343,18,2.441,2.441,0,0,0,658.875,15.359ZM638.081,36.381a3.555,3.555,0,0,1-3.275-3.791c0-2.112,1.139-3.408,2.753-3.408,2.041,0,3.323,1.68,3.323,3.84C640.882,35.23,639.7,36.381,638.081,36.381Zm54.911-17.95c.332-1.728.617-3.552.855-5.424a2.482,2.482,0,0,0-2.659-2.688,2.431,2.431,0,0,0-2.563,2.064c-.238,2.16-.523,4.128-.855,6.048a24.3,24.3,0,0,0-9.115,2.784c-.427-2.16-.807-4.32-1.044-6.432a2.214,2.214,0,0,0-2.374-2.016,2.4,2.4,0,0,0-2.611,2.592,72.587,72.587,0,0,0,1.567,8.783c-5.317,4.32-7.5,9.552-7.5,14.015,0,4.8,2.563,7.344,6.551,7.344,2.326,0,4.51-.72,7.121-3.12.332.816.712,1.584,1.092,2.3a2.392,2.392,0,0,0,2.136,1.44,2.577,2.577,0,0,0,2.564-2.5,2.955,2.955,0,0,0-.332-1.344c-.57-1.152-1.14-2.3-1.662-3.5A46.321,46.321,0,0,0,691.9,23.038c5.555.672,8.64,4.7,8.64,9.264,0,5.615-2.706,8.927-8.545,11.039a2.732,2.732,0,0,0,.712,5.376,4.387,4.387,0,0,0,1.045-.192C701.585,46.029,706,40.509,706,32.254,706,24.718,700.92,19.391,692.992,18.431ZM673.433,40.365c-1,0-1.8-.816-1.8-2.927,0-2.5,1.139-5.472,3.845-8.3.855,2.928,1.852,5.76,2.9,8.591C676.234,39.789,674.762,40.365,673.433,40.365Zm8.688-6.719c-.95-2.592-1.709-5.184-2.421-7.776a21.376,21.376,0,0,1,6.931-2.64A41.388,41.388,0,0,1,682.121,33.646ZM737.26,13.487c-13.056,0-22.028,8.975-22.028,19.919,0,7.487,4.035,11.423,8.877,11.423,3.656,0,6.457-1.392,9.068-6.048,2.943-5.231,4.89-12.431,5.364-20.4,7.216.528,11.441,5.711,11.441,12,0,5.952-2.706,10.079-9.447,12.527a2.761,2.761,0,0,0-1.994,2.64,2.678,2.678,0,0,0,2.659,2.736,3.087,3.087,0,0,0,1.092-.192c8.165-2.64,13.245-9.024,13.245-17.711C755.537,20.831,748.843,13.487,737.26,13.487Zm-9.02,22.751c-1.377,2.447-2.659,3.215-4.131,3.215-1.709,0-3.418-1.632-3.418-6.047a15.157,15.157,0,0,1,12.3-14.687C732.417,25.774,730.661,31.966,728.24,36.238Zm71.616-28.7a5.065,5.065,0,0,0-5.127,5.136,5.1,5.1,0,1,0,10.207,0A5.054,5.054,0,0,0,799.856,7.535Zm0,7.92a2.771,2.771,0,0,1-2.753-2.784,2.73,2.73,0,0,1,2.753-2.736,2.689,2.689,0,0,1,2.706,2.736A2.731,2.731,0,0,1,799.856,15.455ZM796.723,30.43a2.8,2.8,0,0,0-2.611-1.632,2.538,2.538,0,0,0-2.706,2.448,3.154,3.154,0,0,0,.285,1.248,58.8,58.8,0,0,0,5.7,9.7,3.28,3.28,0,0,0,2.658,1.488,2.852,2.852,0,0,0,2.849-2.784,3.611,3.611,0,0,0-.9-2.208A49.366,49.366,0,0,1,796.723,30.43Zm-21.5,1.008a2.666,2.666,0,0,0-2.754-2.592,2.71,2.71,0,0,0-2.563,1.728,27.83,27.83,0,0,1-5.745,8.735,2.844,2.844,0,0,0-1,2.112,2.747,2.747,0,0,0,2.8,2.592,3.147,3.147,0,0,0,2.232-1.008,31.823,31.823,0,0,0,6.788-10.367A2.844,2.844,0,0,0,775.218,31.438Zm26.965-9.7A2.322,2.322,0,0,0,799.9,19.2H786.326V11.951c0-1.584-1.376-2.352-2.8-2.352a2.619,2.619,0,0,0-2.9,2.448V19.2H766.862a2.321,2.321,0,0,0-2.278,2.543,2.347,2.347,0,0,0,2.278,2.544H780.63V43.725c0,1.392-.428,1.728-1.472,1.728a12.3,12.3,0,0,1-2.041-.192,2.687,2.687,0,0,0-3.181,2.832,2.658,2.658,0,0,0,2.231,2.735,20.3,20.3,0,0,0,3.656.288c4.13,0,6.5-1.871,6.5-6.719V24.286H799.9A2.348,2.348,0,0,0,802.183,21.742Zm36.951-12a2.961,2.961,0,0,0-2.374,1.248A73.28,73.28,0,0,1,813.688,30.67a3.054,3.054,0,0,0-1.8,2.688,2.659,2.659,0,0,0,2.611,2.688,3.2,3.2,0,0,0,1.662-.432,83.5,83.5,0,0,0,12.011-8.064V48.477a2.82,2.82,0,0,0,5.6,0V27.406a2.5,2.5,0,0,0-2.469-2.5,75.249,75.249,0,0,0,10.064-10.7,2.964,2.964,0,0,0,.665-1.776A2.845,2.845,0,0,0,839.134,9.743Zm49.119,9.216a2.7,2.7,0,0,0-2.421,1.488c-5.7,10.271-16,18.574-26.775,22.7a2.59,2.59,0,0,0-1.852,2.544,2.912,2.912,0,0,0,2.849,2.928,3.326,3.326,0,0,0,1.282-.24,57.188,57.188,0,0,0,29.338-25.247,2.879,2.879,0,0,0,.475-1.536A2.772,2.772,0,0,0,888.253,18.959Zm-23.072,6.623a3.229,3.229,0,0,0,3.038-3.168,2.845,2.845,0,0,0-.854-2.063,42.775,42.775,0,0,0-6.979-6,3.428,3.428,0,0,0-1.9-.624,3.084,3.084,0,0,0-3.038,2.928,2.678,2.678,0,0,0,1.139,2.16,69.722,69.722,0,0,1,6.457,5.807A2.994,2.994,0,0,0,865.181,25.582ZM926.548,30a55.565,55.565,0,0,0-10.064-6.144,2.9,2.9,0,0,0-1.235-.288,2.708,2.708,0,0,0-2.326,1.488V11.567a2.814,2.814,0,0,0-5.6,0V48.189a2.82,2.82,0,0,0,5.6,0V27.5a3.4,3.4,0,0,0,1.377,1.344,83.782,83.782,0,0,1,8.877,5.76,3.189,3.189,0,0,0,1.994.719,2.772,2.772,0,0,0,2.706-2.831A3.1,3.1,0,0,0,926.548,30Z"/></svg>
