<svg id="レイヤー_1" data-name="レイヤー 1" xmlns="http://www.w3.org/2000/svg" viewBox="0 0 672 236.456"><defs><style>.cls-1{fill:#fff;}.cls-2{fill:#003d5c;}</style></defs><title>アートボード 2</title><path class="cls-1" d="M456.058,236.456a25.961,25.961,0,0,1-25.966-25.9,25.918,25.918,0,1,1,25.966,25.9Z"/><path class="cls-1" d="M371.205,232.846c-8.426,0-15.027-6.154-15.027-14.01v-2H332.111c-7.893,0-14.076-6.407-14.076-14.586a14.234,14.234,0,0,1,12.488-14.5,25.4,25.4,0,0,1-.785-5.884l0-17.479c0-6.059,1.846-10.882,5.491-14.355-.41-.565-.848-1.155-1.333-1.8a14.481,14.481,0,0,1-3.111-8.959c0-7.99,6.825-14.49,15.216-14.49a15.756,15.756,0,0,1,8.966,2.815,15.3,15.3,0,0,1,11.674-5.306,15.511,15.511,0,0,1,12.922,7.061c.607.9,1.159,1.779,1.667,2.636.017-.036.034-.073.052-.11a15.293,15.293,0,0,1,13.99-9.108,15.019,15.019,0,0,1,15.217,14.777,15.468,15.468,0,0,1-1.611,6.738q-1.179,2.337-2.4,4.551c.191.148.379.3.563.455,4.184,3.517,6.306,8.6,6.306,15.094v17.254a24.631,24.631,0,0,1-.707,6.062,14.609,14.609,0,0,1-1.1,29.131h-25.3v2C386.23,226.823,379.771,232.846,371.205,232.846Z"/><path class="cls-1" d="M230.611,232.463c-8.512,0-14.931-5.818-14.931-13.532,0,0,0-53.155,0-53.231a14.234,14.234,0,0,1-6.564-11.947,14.919,14.919,0,0,1,4.122-10.17l.215-.23a52.507,52.507,0,0,0,8.719-12.6l.15-.3a15.083,15.083,0,0,1,27.076.563h7.275a13.473,13.473,0,0,1,3.69.51q.269-.53.517-1.05l.079-.166.084-.162a14.894,14.894,0,0,1,13.227-8.046,14.674,14.674,0,0,1,13.593,8.914h14.847a13.474,13.474,0,0,1,13.409,13.819,13.72,13.72,0,0,1-7.283,12.343,21.564,21.564,0,0,1,1.671,8.744v45.337c0,13.034-7.715,20.816-20.638,20.816a48.191,48.191,0,0,1-7.127-.458,14.328,14.328,0,0,1-11.018-7.339q-.543.024-1.105.033H255.247a26.781,26.781,0,0,1-10.217-1.711C243.349,228.42,237.707,232.463,230.611,232.463Z"/><path class="cls-1" d="M657.05,115.279a15.217,15.217,0,0,1-12-5.91A74.355,74.355,0,0,0,633.612,98a14.225,14.225,0,0,1-6.065-11.6,14.556,14.556,0,0,1,14.608-14.47,15.81,15.81,0,0,1,8.055,2.325l.151.091a77.981,77.981,0,0,1,17.907,15.906A16.2,16.2,0,0,1,672,100.463,14.9,14.9,0,0,1,657.05,115.279Z"/><path class="cls-1" d="M546.173,105.564a15.019,15.019,0,0,1-15.186-12.719,198.87,198.87,0,0,1-2.314-31.484,199.08,199.08,0,0,1,5.488-43.751c1.506-6.825,7.527-11.476,14.96-11.476a15.982,15.982,0,0,1,12.332,5.627,14.266,14.266,0,0,1,2.875,12.1l-.05.234q-.222.968-.433,1.932A14.673,14.673,0,0,1,569.5,24.91c.3,0,.613.009.928.027l.1.006c1.369.093,2.615.17,3.987.17q.868,0,1.715-.008V20.432c0-8.071,6.558-14.393,14.931-14.393s14.93,6.322,14.93,14.393V22.2a15.972,15.972,0,0,1,1.754-.1,14.369,14.369,0,0,1,14.417,14.626,15.039,15.039,0,0,1-12.2,14.869c-1.17.242-2.4.473-3.713.694.089,3.02.222,6.122.434,9.219a78.5,78.5,0,0,1,12.44,7.684,15.772,15.772,0,0,1,6.557,12.68,15.111,15.111,0,0,1-15.027,15.161,15.625,15.625,0,0,1-8.917-2.934c-4.934,5.706-12.659,8.876-22.377,8.876-7.721,0-14.324-2.276-19.1-6.206a14.514,14.514,0,0,1-2.151,3.364A15.949,15.949,0,0,1,546.173,105.564ZM578.7,84.271ZM559.94,51.125c-.3,3.62-.453,7.076-.453,10.332q0,.386,0,.768c3.973-3.613,9.621-6.195,17.09-6.911,0-.123-.009-.246-.014-.369q-1.01.011-2.047.01a54.5,54.5,0,0,1-6.317-.25A14.719,14.719,0,0,1,559.94,51.125Z"/><path class="cls-1" d="M450.666,109.686c-8.674,0-15.216-6.023-15.216-14.01V71.992c-.285.016-.572.025-.858.025a15.138,15.138,0,0,1-11.348-25.551c6.847-7.806,14.212-21.235,18.344-33.45A15.184,15.184,0,0,1,456.183,2.683a16.09,16.09,0,0,1,10.982,4.26,15.584,15.584,0,0,1,11.086-4.355c8.729,0,15.311,6.312,15.311,14.682v8.519q1.421-1.108,2.832-2.287a15.154,15.154,0,0,1,9.821-3.661,15.637,15.637,0,0,1,15.312,15.545,14.956,14.956,0,0,1-6.059,11.993,144.06,144.06,0,0,1-21.906,14.088V77.828c1.183-.01,2.073-.049,2.737-.1l.018-.141A14.505,14.505,0,0,1,511.066,64.8a15.705,15.705,0,0,1,11.755,5.084,14.184,14.184,0,0,1,3.494,11.2c-2.549,22.947-17.475,26.114-33.226,26.114-7.522,0-21.293,0-27.263-10.237C465.167,104.3,458.871,109.686,450.666,109.686Z"/><path class="cls-1" d="M388.612,104.068c-9.371,0-16.439-6.783-16.439-15.777V36.9h-7.762c-8.509,0-14.926-6.521-14.926-15.167S355.9,6.566,364.411,6.566h48.3c8.509,0,14.926,6.521,14.926,15.168S421.221,36.9,412.712,36.9h-7.863v51.39C404.849,97.433,398.02,104.068,388.612,104.068Z"/><path class="cls-1" d="M312.081,104.779c-26.178,0-43.766-20.061-43.766-49.919,0-14.74,4.265-27.285,12.335-36.276A41.556,41.556,0,0,1,312.081,4.941c10.452,0,19.066,2.7,27.11,8.485l.141.1c3.324,2.481,7.742,6.643,7.742,14.1a16.179,16.179,0,0,1-27.661,11.1c-2.763-2.641-4.713-3.144-7.332-3.144-8.111,0-10.989,10.386-10.989,19.279s2.878,19.279,10.989,19.279c4.277,0,6.61-.835,9.556-3.433a16.215,16.215,0,0,1,10.915-4.289,15.506,15.506,0,0,1,10.1,27.463C334.356,101.114,324.074,104.779,312.081,104.779Z"/><path class="cls-1" d="M242.2,104.068c-9.371,0-16.438-6.783-16.438-15.777V21.429c0-8.994,7.067-15.777,16.438-15.777,9.409,0,16.237,6.635,16.237,15.777V88.291C258.441,97.433,251.613,104.068,242.2,104.068Z"/><path class="cls-1" d="M141.447,111.028c-8.48,0-15.122-6.07-15.122-13.82V59.156a26.326,26.326,0,0,1,.274-3.839,14.135,14.135,0,0,1-11.593-14.18,14.492,14.492,0,0,1,1.577-6.636,14.238,14.238,0,0,1-5.191-11.193c0-7.91,5.931-14.106,13.5-14.106h24.468C151.421,3.723,156.908,0,163.7,0c6.754,0,12.207,3.723,14.252,9.2h25.128c7.519,0,13.409,6.2,13.409,14.106a13.993,13.993,0,0,1-7.97,12.939A15,15,0,0,1,210.6,43.82a14.693,14.693,0,0,1-8.167,13.14q.083,1.069.082,2.2V89.637c0,12.974-7.857,20.72-21.018,20.72-1.821,0-4.677-.088-7.234-.334l-.331-.037a14.483,14.483,0,0,1-12.979-14.6c0-.513.025-1.019.072-1.517h-4.547v3.337C156.473,104.958,149.873,111.028,141.447,111.028Z"/><path class="cls-1" d="M26.726,110.452c-8.62,0-15.121-5.94-15.121-13.818v-27.4A14.86,14.86,0,0,1,0,54.843a15.673,15.673,0,0,1,2.7-8.765c5.259-7.99,10.263-20.614,13.049-32.928A15.016,15.016,0,0,1,30.626,1.629,15.634,15.634,0,0,1,42.935,7.358,25.07,25.07,0,0,1,54.976,4.505h23.78c10.253,0,21.209,5.217,21.209,19.858l0,12.423a22.45,22.45,0,0,1-2.948,10.853c5.738,1.722,9.7,7.134,9.7,13.914A14.644,14.644,0,0,1,101,73.4l.484.271a15.2,15.2,0,0,1,8.087,13.374,14.969,14.969,0,0,1-14.836,15.065,15.367,15.367,0,0,1-7.844-2.254C85.117,98.823,83.349,97.7,81.6,96.5c-.18,7.872-6.578,13.764-15.022,13.764-7.732,0-13.927-5.218-14.9-12.19q-1.934,1.41-3.883,2.66a15.723,15.723,0,0,1-7.764,2.518C37.57,107.609,32.652,110.452,26.726,110.452Z"/><path class="cls-2" d="M96.543,82.352a87.077,87.077,0,0,1-21.116-16.3h17.6c2.473,0,3.709-2.3,3.709-4.505,0-2.3-1.236-4.5-3.709-4.5h-21.4v-4.6c0-2.684-2.473-4.026-5.041-4.026-2.473,0-5.042,1.342-5.042,4.026v4.6H41.374c-2.378,0-3.614,2.2-3.614,4.5,0,2.2,1.236,4.505,3.614,4.505H57.449a74.968,74.968,0,0,1-20.26,18.4,4.679,4.679,0,0,0-2.568,4.025,4.852,4.852,0,0,0,4.756,4.793,5.645,5.645,0,0,0,3.044-.959,83.768,83.768,0,0,0,19.5-17.828l-.381,12.652v9.01c0,2.78,2.569,4.122,5.042,4.122,2.568,0,5.041-1.342,5.041-4.122v-9.01l-.38-13.227A83.557,83.557,0,0,0,91.977,91.266a5.429,5.429,0,0,0,2.759.863,5.058,5.058,0,0,0,4.851-5.08A5.325,5.325,0,0,0,96.543,82.352ZM54.976,46.408h23.78c6.848-.1,11.034-2.3,11.224-9.872V24.363c0-6.614-3.424-9.873-11.224-9.873H54.976c-7.8,0-11.224,3.259-11.224,9.873V36.536C43.752,43.149,47.177,46.408,54.976,46.408ZM53.835,25.9c0-1.917.666-2.588,3.044-2.588H76.854c2.377,0,3.043.671,3.043,3.259v7.764c0,2.588-.666,3.259-3.043,3.259H56.879c-2,0-3.044-.383-3.044-2.588ZM27.677,41.9a136.119,136.119,0,0,0,8.276-24.058,7.585,7.585,0,0,0,.19-1.342c0-3.163-2.759-4.888-5.517-4.888a5.016,5.016,0,0,0-5.136,3.738c-2.949,13.035-8.276,26.838-14.458,36.231a5.722,5.722,0,0,0-1.047,3.259,4.911,4.911,0,0,0,5.041,4.793,5.375,5.375,0,0,0,4.566-2.684l2-3.163V96.634c0,2.588,2.568,3.834,5.136,3.834,2.473,0,5.041-1.246,5.041-3.834v-50.9C31.767,43.533,29.865,42.191,27.677,41.9ZM203.083,19.187H168.841v-5.08c0-2.78-2.568-4.122-5.137-4.122-2.663,0-5.231,1.342-5.231,4.122v5.08H124.9c-2.283,0-3.519,2.013-3.519,4.121,0,2.013,1.236,4.122,3.519,4.122h24.35a88.832,88.832,0,0,1-5.326,9.2c-4.946.191-9.988.287-14.839.287a3.977,3.977,0,0,0-4.09,4.217,4.13,4.13,0,0,0,4.281,4.41,506.727,506.727,0,0,0,57.166-4.218c2,1.821,3.9,3.738,5.517,5.368a5.259,5.259,0,0,0,3.9,1.821,4.768,4.768,0,0,0,4.756-4.7,5.376,5.376,0,0,0-1.712-3.834A115.142,115.142,0,0,0,183.87,27.43h19.213c2.283,0,3.425-2.109,3.425-4.122C206.508,21.2,205.366,19.187,203.083,19.187ZM155.144,36.152c1.807-2.875,3.424-5.751,4.946-8.722h15.885a3.665,3.665,0,0,0-1.047,2.492,3.791,3.791,0,0,0,1.713,2.971c.665.48,1.331.959,2,1.534C170.838,35.1,163.039,35.673,155.144,36.152ZM179.494,49H149.342c-9.512,0-13.032,2.971-13.032,10.16V97.209c0,2.492,2.569,3.834,5.137,3.834,2.473,0,5.041-1.342,5.041-3.834V83.886h35.86V88.3c0,2.108-.761,2.683-2.188,2.683a35.3,35.3,0,0,1-4.185-.287,4.477,4.477,0,0,0-5.042,4.7,4.574,4.574,0,0,0,4.281,4.7c2,.192,4.47.288,6.278.288,7.609,0,11.033-3.355,11.033-10.735V59.156C192.525,51.967,189.1,49,179.494,49Zm2.854,27.222h-35.86V70.467h35.86Zm0-13.419h-35.86V60.306c0-2.4.761-3.067,4.185-3.067h27.49c3.424,0,4.185.671,4.185,3.067ZM242.2,94.083c3.63,0,6.252-2.033,6.252-5.792V21.429c0-3.76-2.622-5.792-6.252-5.792s-6.453,2.032-6.453,5.792V88.291C235.751,92.05,238.574,94.083,242.2,94.083Zm96.095-12.4a5.476,5.476,0,0,0-5.748-5.284,6.284,6.284,0,0,0-4.235,1.727c-5.042,4.471-9.882,6-16.235,6-12,0-20.974-10.873-20.974-29.265,0-18.29,8.773-29.265,20.974-29.265,5.344,0,9.781,1.626,14.319,6a6.2,6.2,0,0,0,10.689-3.963c0-2.439-1.009-4.065-3.731-6.1-6.353-4.573-12.907-6.6-21.277-6.6-18.957,0-33.781,14.226-33.781,39.934,0,25.81,14.723,39.934,33.781,39.934,9.176,0,17.243-2.54,24-8.434A5.651,5.651,0,0,0,338.3,81.686Zm74.413-65.134h-48.3c-3.227,0-4.941,2.337-4.941,5.182s1.714,5.182,4.941,5.182h17.747V88.291c0,3.759,2.824,5.792,6.454,5.792s6.252-2.033,6.252-5.792V26.916h17.848c3.227,0,4.941-2.337,4.941-5.182S415.939,16.552,412.712,16.552Zm32.723,79.123c0,2.684,2.663,4.026,5.231,4.026,2.664,0,5.232-1.342,5.232-4.026V45.354c0-2.492-1.9-3.93-4.185-4.218a129.006,129.006,0,0,0,9.892-21.853,5.471,5.471,0,0,0,.285-1.726c0-2.971-2.853-4.888-5.707-4.888a5.147,5.147,0,0,0-5.136,3.546c-4.28,12.653-12.175,27.605-20.355,36.9a5.278,5.278,0,1,0,7.894,7,90.2,90.2,0,0,0,6.849-8.914ZM511.067,74.78a4.58,4.58,0,0,0-4.851,4.121c-.856,7.189-3.044,8.914-13.222,8.914-8.275,0-9.417-.958-9.417-4.409V55.131c8.751-3.739,17.5-9.3,25.873-15.72a4.884,4.884,0,0,0,2.092-4.026,5.707,5.707,0,0,0-5.326-5.559,5.2,5.2,0,0,0-3.425,1.342,109.094,109.094,0,0,1-19.214,12.94V17.27c0-3.163-2.663-4.7-5.326-4.7s-5.327,1.534-5.327,4.7V84.652c0,9.394,3.805,12.557,20.165,12.557,15.98,0,21.782-3.547,23.3-17.253C516.774,76.6,513.92,74.78,511.067,74.78Zm38.054-58.66c-2.378,0-4.66,1.15-5.231,3.738-3.234,13.994-5.232,28.659-5.232,41.5a187.727,187.727,0,0,0,2.188,29.905,5.056,5.056,0,0,0,5.327,4.313c2.948,0,5.992-2.108,5.421-5.655A199.44,199.44,0,0,1,549.5,61.457c0-12.269,2-26.263,5.041-39.586C555.3,18.133,552.165,16.12,549.121,16.12Zm64.11,61.056a66.353,66.353,0,0,0-15.885-8.914c-.856-8.147-1.046-16.39-1.141-24.633,4.09-.48,8.18-1.055,11.89-1.822a5.053,5.053,0,0,0,4.185-5.08,4.446,4.446,0,0,0-5.707-4.5c-3.234.575-6.753,1.151-10.463,1.534V20.433c0-2.971-2.473-4.409-4.946-4.409s-4.947,1.438-4.947,4.409V34.715c-4.09.287-7.989.383-11.7.383-1.712,0-3.234-.1-4.661-.192a4.514,4.514,0,0,0-4.946,4.793,4.824,4.824,0,0,0,4.375,5.08,45.361,45.361,0,0,0,5.232.191c3.71,0,7.7-.095,11.795-.383.1,7,.285,13.994.856,20.991a48.666,48.666,0,0,0-6.278-.479c-12.365,0-18.738,5.943-18.738,13.9,0,8.627,6.658,13.994,17.311,13.994,11.795,0,17.217-5.751,18.263-13.706a73.522,73.522,0,0,1,9.417,6.326,6.018,6.018,0,0,0,3.614,1.438,5.176,5.176,0,0,0,5.041-5.176A5.828,5.828,0,0,0,613.231,77.176ZM579.464,83.5c-4.756,0-7.324-1.533-7.324-4.5,0-2.779,2.093-4.888,8.751-4.888a26.418,26.418,0,0,1,6.753,1.054C587.549,81.2,584.315,83.5,579.464,83.5ZM660.474,96.5a68.679,68.679,0,0,0-15.323-13.629,6.068,6.068,0,0,0-3-.949,4.587,4.587,0,0,0-4.623,4.486,4.246,4.246,0,0,0,1.969,3.536,83.655,83.655,0,0,1,13.354,13.2,5.206,5.206,0,0,0,4.195,2.156,4.9,4.9,0,0,0,4.965-4.831A6.323,6.323,0,0,0,660.474,96.5Zm-357.763,44.51H277.219c.381-.863.857-1.725,1.237-2.588a4.354,4.354,0,0,0-4.185-6.326,4.863,4.863,0,0,0-4.376,2.684,62.678,62.678,0,0,1-9.607,14.473,4.248,4.248,0,0,0-1.331,3.067,4.468,4.468,0,0,0,4.66,4.122,5.668,5.668,0,0,0,4-1.821,43.5,43.5,0,0,0,4.851-5.943h6.564c1.046,1.63,1.9,3.259,2.758,4.888a4.326,4.326,0,0,0,3.995,2.492c2.378,0,4.661-1.629,4.661-3.929a3.99,3.99,0,0,0-.571-1.917c-.285-.48-.571-1.055-.856-1.534h13.7c2.283,0,3.424-1.917,3.424-3.834S304.994,141.005,302.711,141.005Zm-21.782,53.772c0-5.751-2.568-8.339-10.463-8.339H255.247c-7.9,0-10.463,2.588-10.463,8.339v11.214c0,5.751,2.568,8.339,10.463,8.339h15.219c6.278-.1,10.368-1.246,10.463-8.339ZM271.8,205.416c0,1.534-.571,2.013-2.569,2.013H256.484c-1.522,0-2.569-.192-2.569-2.013V203.4H271.8Zm0-8.147H253.915v-1.917c0-1.534.571-2.013,2.569-2.013h12.745c2,0,2.569.479,2.569,2.013Zm-16.836-15.624c2.948-1.341,3.519-4.121,3.614-7.092v-9.01c0-6.039-2.568-8.435-11.8-8.435H237.46c-9.227,0-11.8,2.588-11.8,8.818v53.005c0,2.4,2.473,3.546,4.946,3.546s4.947-1.15,4.947-3.546v-36.04h11.223C249.54,182.891,252.489,182.8,254.962,181.645Zm-19.4-16.2c0-1.63.38-2.013,2.758-2.013h7.8c2.378,0,2.758.383,2.758,2.013v1.629H235.558Zm0,11.118v-3.738h13.316v1.726c0,1.629-.38,2.012-2.758,2.012Zm-1.713-27.892h5.993a47.867,47.867,0,0,1,2.568,4.793,4.533,4.533,0,0,0,4.185,2.779c2.283,0,4.566-1.629,4.566-3.93a3.8,3.8,0,0,0-.476-1.917c-.285-.575-.665-1.15-.951-1.725h6.944c2.283,0,3.424-1.917,3.424-3.834s-1.141-3.834-3.424-3.834H238.6c.476-.863.951-1.821,1.332-2.684a4.67,4.67,0,0,0,.571-2.013c0-2.4-2.378-4.025-4.756-4.025a4.889,4.889,0,0,0-4.566,2.779A62.241,62.241,0,0,1,220.624,150.3a5.1,5.1,0,0,0-1.522,3.45,4.467,4.467,0,0,0,4.566,4.313,5.814,5.814,0,0,0,4.185-1.917C229.85,153.945,231.848,151.357,233.845,148.673Zm54.884,8.435H278.456c-9.227,0-11.8,2.4-11.8,8.435v9.01c0,6.038,2.568,8.338,11.8,8.338h12.175v27.126c0,2.205-.285,2.876-2.093,2.876a32.3,32.3,0,0,1-3.8-.288,4.212,4.212,0,0,0-4.851,4.409,4.492,4.492,0,0,0,4.09,4.7,38.187,38.187,0,0,0,5.9.383c7.324,0,10.653-3.163,10.653-10.831V165.926C300.523,159.7,297.955,157.108,288.729,157.108Zm1.9,19.457H279.122c-2.378,0-2.759-.383-2.759-2.012v-1.726h14.268Zm0-9.489H276.363v-1.629c0-1.63.381-2.013,2.759-2.013h8.751c2.378,0,2.758.383,2.758,2.013Zm120.9,30.576H376.246v-6.038h14.743c9.131,0,12.365-3.163,12.365-9.969V164.392c0-6.709-3.234-9.872-12.27-9.872a106.293,106.293,0,0,0,8.846-14.665,5.451,5.451,0,0,0,.571-2.3,5.082,5.082,0,0,0-5.232-4.792,5.357,5.357,0,0,0-4.946,3.355,101.876,101.876,0,0,1-10.939,18.4h-27.3c-9.131,0-12.365,3.163-12.365,9.872v17.253c.19,8.435,4.946,9.777,12.365,9.969h14.078v6.038H332.111c-2.664,0-4.09,2.3-4.09,4.6s1.426,4.6,4.09,4.6h34.052v11.981c0,2.684,2.568,4.026,5.041,4.026,2.568,0,5.042-1.342,5.042-4.026V206.854h35.288c2.759,0,4.186-2.3,4.186-4.6S414.293,197.652,411.534,197.652ZM376.246,162.38h13.411c2.949,0,3.615.766,3.615,2.875v3.738H376.246Zm0,14.281h17.026v4.122c0,2.013-.666,2.779-3.615,2.779H376.246Zm-10.083,6.9H353.417c-2.188,0-3.614-.287-3.614-2.779v-4.122h16.36Zm0-14.569H349.8v-3.834c0-2.013.665-2.779,3.614-2.779h12.746Zm-19.214-19.457a5.455,5.455,0,0,0,4.756,2.779c2.759,0,5.231-1.917,5.231-4.7a5.452,5.452,0,0,0-.951-2.972,73.621,73.621,0,0,0-5.517-7.764,5.834,5.834,0,0,0-4.47-2.108c-2.759,0-5.232,2.013-5.232,4.5a4.481,4.481,0,0,0,1.047,2.875C343.905,144.935,345.237,146.852,346.949,149.536Zm24.255.575c2.568,0,5.137-1.821,5.137-4.6a4.5,4.5,0,0,0-.476-2.109,57.55,57.55,0,0,0-4.566-8.435,5.626,5.626,0,0,0-4.66-2.683c-2.569,0-5.042,1.821-5.042,4.313a5.366,5.366,0,0,0,.761,2.492,76.342,76.342,0,0,1,4,7.86A5.1,5.1,0,0,0,371.2,150.111Zm84.854,44.633a15.863,15.863,0,1,0,15.885,15.815A15.771,15.771,0,0,0,456.058,194.744Zm0,25.3a9.442,9.442,0,1,1,9.322-9.489A9.3,9.3,0,0,1,456.058,220.048Z"/></svg>
