<?xml version="1.0" encoding="utf-8"?>
<!-- Generator: Adobe Illustrator 23.1.1, SVG Export Plug-In . SVG Version: 6.00 Build 0)  -->
<svg version="1.1" id="レイヤー_1" xmlns="http://www.w3.org/2000/svg" xmlns:xlink="http://www.w3.org/1999/xlink" x="0px"
	 y="0px" viewBox="0 0 560 560" style="enable-background:new 0 0 560 560;" xml:space="preserve">
<g>
	<path d="M398.5,505.7c-6.1,0-12.6-1.5-18.6-4.6l-101-52.7l-101.6,51.3c-1.4,0.7-2.9,1.3-4.5,1.8c-12.5,3.8-25.7,2.7-37.4-3.2
		c-1.8-0.9-3.5-2-5-3.3c-12.4-10-18.6-26-16.1-41.8l20.2-110l-80.7-77c-12-11.4-16.4-29.1-11.1-44.8c4.6-15.7,19.3-27.6,36.5-29
		l112.2-14.9l51.2-99.8c4.2-8.2,10.8-14.7,18.9-18.9c21.5-11.1,48-2.6,59.1,18.9l49.8,100.2l111.7,17.3c17.2,1.4,31.6,13.2,36.4,30
		c4.8,15.6,0.3,32.8-11.6,44.1l-82.1,77.2l18.3,109.3c3.1,16.5-4.7,33.9-19.5,42.9c-6.6,4.1-14.3,6.4-22,6.9
		C400.7,505.6,399.6,505.7,398.5,505.7z M387.5,465.1c0,0.2,0.1,0.3,0.1,0.5L387.5,465.1z M279.1,388.4c4.5,0,9,1.1,13.1,3.2
		l91,47.5l-16.5-98.2c-1.6-9.3,1.6-18.8,8.5-25.2l72.9-68.6l-100.8-15.6c-9.1-1.4-16.9-7.1-21-15.3l-44.9-90.4l-46.6,90.7
		c-4.2,8.2-12.2,13.9-21.4,15.1l-100.3,13.2l71.4,68.1c6.9,6.6,10,16.2,8.3,25.5l-18.2,99.4l91.8-46.4
		C270.4,389.4,274.8,388.4,279.1,388.4z"/>
</g>
</svg>
