<?xml version="1.0" encoding="utf-8"?>
<!-- Generator: Adobe Illustrator 24.0.1, SVG Export Plug-In . SVG Version: 6.00 Build 0)  -->
<svg version="1.1" id="menu_02.svg" xmlns="http://www.w3.org/2000/svg" xmlns:xlink="http://www.w3.org/1999/xlink" x="0px"
	 y="0px" viewBox="0 0 470 470" style="enable-background:new 0 0 470 470;" xml:space="preserve">
<g>
	<path d="M210.7,339.6c-17.4-6-20.7-7.2-20.7-14.1c0-6.2,5.5-10.6,13.5-10.6c3.4,0,11.5,0.7,23.1,7.9l6-24c-9.5-5.3-19.1-8.3-30-8.3
		c-23.6,0-39.2,16.2-39.2,36.4c0,23,18.1,29.3,30.2,33.6c9.6,3.5,18.1,6.5,18.1,14.8c0,7.6-8.2,11.4-17,11.4
		c-3.4,0-13.9-0.4-28.3-10.5l-7.8,24c5,3,18,10.9,36.9,10.9c26.9,0,42.8-17.1,42.8-37.8C238.5,349.5,218.9,342.5,210.7,339.6z"/>
	<polygon points="244.9,317.2 279.3,317.2 279.3,408.7 305.9,408.7 305.9,317.2 340.2,317.2 340.2,292.7 244.9,292.7 	"/>
	<polygon points="375.7,360.9 421.6,360.9 421.6,337 375.7,337 375.7,317.2 425.8,317.2 425.8,292.7 349.2,292.7 349.2,408.7 
		427.6,408.7 427.6,384.3 375.7,384.3 	"/>
	<path d="M503.4,300.9c-8.2-6.3-16.7-8.2-29.8-8.2h-34.1v116h26.6v-41.8h7c11.6,0,20.8-0.7,30.2-7.5c11.4-8.3,13.2-21.7,13.2-28.9
		C516.6,318.9,512.3,307.8,503.4,300.9z M472.6,342.3h-6.5v-25.2h6.5c8.6,0,17.2,0.1,17.2,12.9C489.9,342.3,480.7,342.3,472.6,342.3
		z"/>
	<path d="M179.4,234c63.1,0,68.2,28.7,131.3,28.7c41.3,0,53.4-12.4,74.6-20.9l-31.7-121.4c-21.1,8.5-33.2,20.9-74.5,20.9
		c-63.1,0-68.2-28.7-131.3-28.7c-14.8-0.4-29.6,1.9-43.5,6.8l31.6,121.4C149.9,235.9,164.6,233.6,179.4,234z"/>
	<path d="M59.1,98.1c-1.1,0-2.2,0.1-3.3,0.3c-10.3,1.8-17.1,11.6-15.3,21.9l54.4,308.5h38.3l-55.5-315
		C76.1,104.7,68.2,98.1,59.1,98.1z"/>
</g>
</svg>
