<?xml version="1.0" encoding="utf-8"?>
<!-- Generator: Adobe Illustrator 23.0.2, SVG Export Plug-In . SVG Version: 6.00 Build 0)  -->
<svg version="1.1" id="レイヤー_1" xmlns="http://www.w3.org/2000/svg" xmlns:xlink="http://www.w3.org/1999/xlink" x="0px"
	 y="0px" viewBox="0 0 560 560" style="enable-background:new 0 0 560 560;" xml:space="preserve">
<g>
	<path d="M128.89,60.34c-32.98,21.39-39.46,88.25-27.01,142.75c9.7,42.44,30.32,99.36,65.08,152.97
		c32.71,50.43,78.33,95.65,113.13,121.81c44.68,33.59,108.37,54.94,141.35,33.55c16.68-10.82,41.45-40.37,42.58-45.67
		c0,0-14.53-22.4-17.72-27.32l-48.72-75.13c-3.62-5.58-26.33-0.48-37.86,6.05c-15.56,8.82-29.89,32.47-29.89,32.47
		c-10.67,6.16-19.6,0.02-38.28-8.57c-22.95-10.56-48.75-43.36-69.28-73.08c-18.75-30.87-38.19-67.8-38.47-93.06
		c-0.23-20.55-2.19-31.22,7.78-38.44c0,0,27.44-3.44,41.84-14.05c10.67-7.87,24.59-26.52,20.97-32.1L205.67,67.4
		c-3.19-4.92-17.72-27.32-17.72-27.32C182.65,38.95,145.56,49.52,128.89,60.34z"/>
</g>
</svg>
