<?xml version="1.0" encoding="utf-8"?>
<!-- Generator: Adobe Illustrator 23.0.1, SVG Export Plug-In . SVG Version: 6.00 Build 0)  -->
<svg version="1.1" id="レイヤー_1" xmlns="http://www.w3.org/2000/svg" xmlns:xlink="http://www.w3.org/1999/xlink" x="0px"
	 y="0px" viewBox="0 0 560 560" style="enable-background:new 0 0 560 560;" xml:space="preserve">
<g>
	<path d="M155.55,361.99c-13.29,0-24.1,10.82-24.1,24.11c0,13.29,10.81,24.11,24.1,24.11c13.29,0,24.11-10.82,24.11-24.11
		C179.66,372.81,168.84,361.99,155.55,361.99L155.55,361.99z M155.55,392.67c-3.62,0-6.57-2.95-6.57-6.57
		c0-3.62,2.95-6.57,6.57-6.57c3.63,0,6.57,2.95,6.57,6.57C162.12,389.72,159.17,392.67,155.55,392.67L155.55,392.67z M155.55,392.67
		"/>
	<path d="M404.87,361.99c-13.29,0-24.1,10.82-24.1,24.11c0,13.29,10.81,24.11,24.1,24.11c13.29,0,24.11-10.82,24.11-24.11
		C428.98,372.81,418.16,361.99,404.87,361.99L404.87,361.99z M404.87,392.67c-3.62,0-6.57-2.95-6.57-6.57
		c0-3.62,2.95-6.57,6.57-6.57c3.62,0,6.57,2.95,6.57,6.57C411.44,389.72,408.49,392.67,404.87,392.67L404.87,392.67z M404.87,392.67
		"/>
	<path d="M509.08,343.8V171.9c0-27.91-22.71-50.62-50.62-50.62H129.97c-43.36,0-78.63,35.28-78.63,78.63V343.8
		c-6.75,5.07-11.13,13.15-11.13,22.23v1.07c0,15.31,12.46,27.77,27.77,27.77h35.7c4.19,24.85,25.84,43.85,51.87,43.85
		s47.68-18.99,51.87-43.85H353c4.19,24.85,25.84,43.85,51.87,43.85c26.02,0,47.68-18.99,51.87-43.85h35.7
		c15.31,0,27.77-12.46,27.77-27.77v-1.07C520.2,356.95,515.83,348.87,509.08,343.8L509.08,343.8z M491.54,252.75h-24.07
		c-1.23,0-2.23-1-2.23-2.23V182.9c0-1.23,1-2.23,2.23-2.23h24.07V252.75z M57.75,367.1v-1.07c0-5.65,4.59-10.24,10.23-10.24h44.61
		c-4.46,6.3-7.57,13.63-8.91,21.55h-35.7C62.34,377.33,57.75,372.74,57.75,367.1L57.75,367.1z M155.55,421.18
		c-19.34,0-35.07-15.74-35.07-35.08c0-19.34,15.74-35.08,35.07-35.08c19.34,0,35.08,15.73,35.08,35.08
		C190.62,405.44,174.89,421.18,155.55,421.18L155.55,421.18z M353,377.33H207.41c-4.18-24.85-25.84-43.85-51.87-43.85
		c-7.78,0-15.17,1.71-21.82,4.76H68.88V199.92c0-33.69,27.4-61.1,61.09-61.1h328.48c15.2,0,28.03,10.32,31.89,24.31h-22.88
		c-10.9,0-19.77,8.87-19.77,19.78v67.61c0,10.9,8.87,19.77,19.77,19.77h24.07v67.96h-64.84c-6.66-3.04-14.04-4.76-21.83-4.76
		C378.84,333.49,357.19,352.49,353,377.33L353,377.33z M404.87,421.18c-19.34,0-35.07-15.74-35.07-35.08
		c0-19.34,15.74-35.08,35.07-35.08c19.34,0,35.08,15.73,35.08,35.08C439.94,405.44,424.21,421.18,404.87,421.18L404.87,421.18z
		 M502.66,367.1c0,5.64-4.58,10.23-10.23,10.23h-35.69c-1.34-7.92-4.45-15.24-8.91-21.55h44.61c5.65,0,10.23,4.6,10.23,10.24V367.1z
		 M502.66,367.1"/>
	<path d="M421.82,250.51V182.9c0-10.9-8.87-19.77-19.77-19.77H132.04c-23.33,0-42.3,18.98-42.3,42.31v45.07
		c0,10.9,8.87,19.77,19.77,19.77h292.54C412.96,270.29,421.82,261.41,421.82,250.51L421.82,250.51z M264.55,180.67h68.94v72.08
		h-68.94V180.67z M247.01,252.75h-68.94v-72.08h68.94V252.75z M107.28,250.51v-45.07c0-13.66,11.11-24.77,24.77-24.77h28.49v72.08
		h-51.03C108.27,252.75,107.28,251.74,107.28,250.51L107.28,250.51z M404.28,250.51c0,1.23-1,2.23-2.23,2.23h-51.02v-72.08h51.02
		c1.23,0,2.23,1.01,2.23,2.23V250.51z M404.28,250.51"/>
	<path d="M472.29,324.61c4.84,0,8.77-3.93,8.77-8.77v-7.79c0-4.85-3.93-8.77-8.77-8.77c-4.84,0-8.77,3.92-8.77,8.77v7.79
		C463.52,320.68,467.44,324.61,472.29,324.61L472.29,324.61z M472.29,324.61"/>
</g>
</svg>
