<?xml version="1.0" encoding="utf-8"?>
<!-- Generator: Adobe Illustrator 23.0.1, SVG Export Plug-In . SVG Version: 6.00 Build 0)  -->
<svg version="1.1" id="レイヤー_1" xmlns="http://www.w3.org/2000/svg" xmlns:xlink="http://www.w3.org/1999/xlink" x="0px"
	 y="0px" viewBox="0 0 560 560" style="enable-background:new 0 0 560 560;" xml:space="preserve">
<g>
	<rect x="167.5" y="415" width="45" height="45"/>
	<rect x="167.5" y="340" width="45" height="45"/>
	<rect x="167.5" y="265" width="45" height="45"/>
	<rect x="257.5" y="415" width="45" height="45"/>
	<rect x="257.5" y="340" width="45" height="45"/>
	<rect x="257.5" y="265" width="45" height="45"/>
	<rect x="347.5" y="340" width="45" height="120"/>
	<rect x="347.5" y="265" width="45" height="45"/>
	<path d="M409.99,40H150.02c-23.48,0-42.52,19.04-42.52,42.52v394.97c0,23.48,19.04,42.52,42.52,42.52h259.97
		c23.48,0,42.51-19.04,42.51-42.52V82.52C452.5,59.04,433.47,40,409.99,40z M167.5,107.5h225v75h-225V107.5z M425.46,471.96
		c0,11.04-8.98,20.02-20.01,20.02H154.52c-11.04,0-20.02-8.98-20.02-20.02V224.99h290.97V471.96z"/>
</g>
</svg>
