<?xml version="1.0" encoding="utf-8"?>
<!-- Generator: Adobe Illustrator 23.0.1, SVG Export Plug-In . SVG Version: 6.00 Build 0)  -->
<svg version="1.1" id="レイヤー_1" xmlns="http://www.w3.org/2000/svg" xmlns:xlink="http://www.w3.org/1999/xlink" x="0px"
	 y="0px" viewBox="0 0 560 560" style="enable-background:new 0 0 560 560;" xml:space="preserve">
<g>
	<path d="M493.06,117.4C456.36,77.18,389,55.98,292.72,54.32l-12.44-0.11c-102.56,0-174.03,21.22-212.42,63.06
		c-28.08,30.6-27.79,61.75-27.52,66.93v26.38c0,13.77,12.63,24.97,28.15,24.97h62.79c15.51,0,28.14-11.2,28.14-24.97v-39.9
		c17.87-4.75,62.41-14.75,120.86-14.75s102.99,10,120.86,14.75v39.9c0,13.77,12.63,24.97,28.15,24.97h62.79
		c15.52,0,28.15-11.2,28.15-24.97v-26.36C520.52,178.94,520.91,147.92,493.06,117.4z M495.38,182.71l-0.05,27.07
		c-0.49,0.35-1.57,0.89-3.26,0.89h-62.79c-1.69,0-2.77-0.54-3.26-0.89v-57.44l-8.53-2.83c-2.28-0.75-56.65-18.46-137.22-18.46
		s-134.94,17.71-137.22,18.46l-8.53,2.83v57.44c-0.49,0.35-1.56,0.89-3.25,0.89H68.49c-1.69,0-2.77-0.54-3.26-0.89v-25.93
		l-0.03-0.95c-0.07-1-1.38-24.87,21.65-49.48c23.18-24.77,75.55-54.3,193.44-54.3V67.22l0.01,11.88
		c118.32,0,170.67,29.57,193.75,54.38C496.88,158.04,495.45,181.82,495.38,182.71z"/>
	<path d="M280.28,310.23c-47.63,0-83.56,20.63-83.56,47.99c0,27.36,35.92,48,83.56,48s83.56-20.64,83.56-48
		C363.84,330.86,327.91,310.23,280.28,310.23z M280.28,381.34c-35.27,0-58.67-13.91-58.67-23.11c0-9.2,23.4-23.11,58.67-23.11
		s58.67,13.9,58.67,23.11C338.95,367.43,315.55,381.34,280.28,381.34z"/>
	<path d="M415.33,284.94L415.33,284.94c-7.65-10.89-20.16-17.39-33.47-17.39h-38.02v-30.22c0-14.71-11.97-26.67-26.67-26.67
		c-14.7,0-26.67,11.96-26.67,26.67v30.22h-20.44v-30.22c0-14.71-11.97-26.67-26.67-26.67s-26.67,11.96-26.67,26.67v30.22h-38.02
		c-13.31,0-25.81,6.5-33.47,17.39L61.92,403.61c-4.86,6.92-7.43,15.04-7.43,23.5v37.79c0,22.55,18.34,40.89,40.89,40.89h369.79
		c22.55,0,40.89-18.34,40.89-40.89v-37.79c0-8.47-2.57-16.59-7.42-23.5L415.33,284.94z M481.17,464.9c0,8.82-7.18,16-16,16H95.38
		c-8.82,0-16-7.18-16-16v-37.79c0-3.31,1.01-6.49,2.91-9.19l83.32-118.66c2.99-4.26,7.89-6.81,13.1-6.81h62.91v-55.11
		c0-1.96,3.56-1.96,3.56,0v55.11h70.22v-55.11c0-1.96,3.56-1.96,3.56,0v55.11h62.91c5.21,0,10.1,2.54,13.1,6.81h-0.01l83.33,118.66
		c1.9,2.7,2.9,5.88,2.9,9.19V464.9z"/>
</g>
</svg>
