<?xml version="1.0" encoding="utf-8"?>
<!-- Generator: Adobe Illustrator 23.0.1, SVG Export Plug-In . SVG Version: 6.00 Build 0)  -->
<svg version="1.1" id="レイヤー_1" xmlns="http://www.w3.org/2000/svg" xmlns:xlink="http://www.w3.org/1999/xlink" x="0px"
	 y="0px" viewBox="0 0 560 560" style="enable-background:new 0 0 560 560;" xml:space="preserve">
<g>
	<path d="M344.94,44.67c-3.1,1.27-6.78,4.9-8.19,8.09c-2.42,5.49-1.05,12.87,3.19,17.11c2.87,2.87,5.29,3.83,11.57,4.57
		c3.09,0.37,7.19,1.14,9.07,1.71c16.82,5.09,28.64,21.56,28.66,39.94c0.03,30-29.87,50.33-56.15,38.19
		c-4.36-2.02-6.89-3.73-11.18-7.61c-4.26-3.85-6.89-5.06-11.08-5.09c-4.31-0.04-7.6,1.45-10.71,4.85c-4.17,4.56-5.19,11.57-2.5,17.2
		c2.35,4.93,12.72,13.43,21.79,17.86c9.98,4.87,18.58,6.84,29.85,6.84c18.67,0,34.38-6.58,47.89-20.07
		c13.63-13.61,20.64-29.87,21.36-49.53c0.78-21.47-6.69-40.39-21.9-55.43c-11.89-11.77-27.35-18.66-43.38-19.35
		C348.07,43.72,347.04,43.81,344.94,44.67L344.94,44.67z"/>
	<path d="M274.55,78.32c-21.22,1.4-37.27,4.35-54.65,10.05c-18.09,5.93-33.71,13.55-49.75,24.25
		c-13.28,8.87-23.13,17.04-34.34,28.51c-35.26,36.08-56.93,83.27-61.95,134.94l-0.31,3.23l-4.36,3.09
		c-5.29,3.75-13.55,12.2-17.08,17.5c-5.18,7.76-8.88,16.66-10.96,26.37c-1.42,6.64-1.54,20.34-0.23,27.01
		c5.98,30.44,28.77,52.9,57.58,56.73l4.61,0.61l4.24,6.76c30.66,48.86,79.47,83.18,134.61,94.64c31.42,6.53,65.41,5.33,96.07-3.38
		c50.48-14.35,93.49-47.25,122.1-93.42c1.97-3.19,2.04-3.24,4.6-3.58c3.6-0.48,11.27-3,16.03-5.26
		c13.48-6.4,25.52-18.56,32.22-32.53c9-18.76,9.38-41.42,1-60.48c-3.81-8.68-9.45-16.62-16.6-23.39l-4.71-4.45v-2.89
		c0-4.22-1.71-18.48-3.17-26.42c-4.28-23.28-12.27-46.1-23.17-66.17c-3.94-7.25-10.95-18.56-13.63-21.96
		c-3.81-4.85-10.22-6.87-15.86-5c-3.38,1.12-7.42,4.84-8.85,8.14c-2.64,6.1-1.78,10.54,3.62,18.77c5.42,8.25,8.82,14.26,13.03,22.99
		c11.98,24.86,18.19,50.88,19.03,79.7l0.32,10.98l5.29,3.14c13.5,8.02,20.44,19.11,21.25,33.96c0.86,15.83-8.02,31.03-22.03,37.71
		c-5.37,2.56-9.12,3.38-17.2,3.77c-6.67,0.32-6.83,0.36-7.5,1.61c-7.44,13.82-14.26,24.48-21.38,33.43
		c-29.33,36.88-70.28,60.48-116.01,66.84c-37.3,5.19-76.79-2.54-110.04-21.54c-31.22-17.84-55.69-43.74-73.32-77.61
		c-3.04-5.83-3.18-6.02-4.51-5.76c-0.75,0.15-4.41,0.4-8.09,0.56c-5.1,0.22-7.56,0.11-10.24-0.45c-7.79-1.65-13.45-4.77-19.27-10.62
		c-7.43-7.47-10.96-15.44-11.6-26.22c-0.69-11.67,3.77-23.13,12.09-31.1c4.03-3.86,7.74-6.13,15.1-9.22
		c5.24-2.21,5.49-2.38,5.5-3.78c0.07-9.79,1.63-26.12,3.46-36.32c8.22-45.88,33.23-87.55,69.42-115.69
		c26.23-20.4,56.42-32.7,89.6-36.52c6.37-0.73,25.88-0.85,36.07-0.22c7.06,0.44,7.19,0.43,9.85-0.79
		c8.02-3.66,11.2-13.08,7.22-21.31c-1.35-2.79-5.31-6.26-8.2-7.2c-1.28-0.41-4.71-0.97-7.7-1.26
		C295.87,78.49,278.9,78.03,274.55,78.32L274.55,78.32z"/>
	<path d="M186.92,259.14c-8.23,1.99-15.55,8.04-19.37,16c-2.61,5.43-3.27,8.28-3.27,14.07c0,17.35,14.32,31.42,30.88,30.34
		c7.4-0.48,14.1-3.65,19.18-9.07c5.65-6.02,8.35-12.74,8.44-20.93c0.06-5.93-0.63-9.03-3.23-14.46c-1.59-3.33-2.78-4.96-5.96-8.14
		c-4.31-4.31-7.94-6.44-13.28-7.79C196.85,258.28,190.49,258.27,186.92,259.14L186.92,259.14z"/>
	<path d="M361.55,259.36c-4.66,1.36-8.82,3.75-12.4,7.12c-6.22,5.85-9.49,13.41-9.55,22.08c-0.04,5.83,0.88,9.8,3.46,14.95
		c2.11,4.22,7.24,9.76,11.09,12c14.91,8.66,33.2,3,40.66-12.59c1.2-2.5,2.42-5.73,2.72-7.16c0.76-3.67,0.65-10.59-0.23-14.31
		c-2.51-10.64-11.54-19.85-21.83-22.28C371.36,258.2,365.23,258.28,361.55,259.36L361.55,259.36z"/>
	<path d="M160.89,348.67c-3.64,1.44-6.96,4.84-8.37,8.56c-0.89,2.36-1.05,3.58-0.87,6.62c0.2,3.36,0.5,4.26,3.05,9.26
		c28.88,56.54,89.17,87.21,149.75,76.17c32.74-5.97,62.39-23.76,84.06-50.44c5.39-6.64,12.47-17.55,16.26-25.05l3.34-6.62
		l-0.02-4.26c-0.02-3.48-0.24-4.71-1.22-6.71c-4.36-8.92-15.31-11.29-22.48-4.86c-1.69,1.52-3.15,3.63-5.17,7.5
		c-5.73,10.98-11.89,19.5-20.37,28.18c-9.75,9.99-18.97,16.72-31.03,22.64c-11.12,5.46-22.25,8.8-35.14,10.54
		c-5.48,0.74-19.65,0.73-25.49-0.02c-19.46-2.5-37.26-9.7-53.13-21.5c-5.78-4.3-15.22-13.36-19.74-18.97
		c-4.44-5.5-10.35-14.51-13.39-20.39c-1.42-2.74-3.34-5.82-4.33-6.91C172.69,348.09,166.23,346.55,160.89,348.67L160.89,348.67z"/>
</g>
</svg>
