<svg xmlns="http://www.w3.org/2000/svg" viewBox="0 0 406.6 88.44"><defs><style>.cls-1{fill:#fff;}</style></defs><title>アセット 2</title><g id="レイヤー_2" data-name="レイヤー 2"><g id="レイヤー_1-2" data-name="レイヤー 1"><path class="cls-1" d="M251.67,50.32l-5.92-13.78-.53-1.22-1.24.5a146.77,146.77,0,0,1-15.85,4.87C227,38,226,35.24,225,32.61a139.06,139.06,0,0,0,14-5.11l1.24-.56-6.17-13.73-.46-1.27-1.24.55a121.74,121.74,0,0,1-12.62,2.8C218,8.4,217.17,3.85,217.15,3.71L217,2.35l-16.5,2.39.18,1.34c0,.12,0,.4.08.82.28,3,.72,6.78,1.38,11.12-5,.66-10.62,1.33-17,2l-1.36.14L185.93,41l1.38-.17c6.79-.85,13.08-2,18.78-3.19q.92,3.56,2,7.23c-5.78.93-12.13,1.74-18.94,2.27l-1.38.11,2,20.78,1.37-.16a172,172,0,0,0,23.93-4.6,89.28,89.28,0,0,0,16.21,24.37l.79.82,18.63-12.59-1.22-1.17a79.47,79.47,0,0,1-13.63-18c6.61-2.42,11.65-4.57,14.26-5.74Z"/><polygon class="cls-1" points="272.21 36.88 258.29 40.75 265.33 61.6 276.7 58.44 272.21 36.88"/><polygon class="cls-1" points="292.07 54.24 288.12 33.84 274.13 37.53 280.78 57.22 292.07 54.24"/><path class="cls-1" d="M301.3,36.61l-.2,1.32,0,.2c-.15,2.6-2.14,25.64-25.38,35.33l-1.43.6,7.58,13,1.1-.46c31.7-13.22,36.8-40.56,37.5-45.9l.21-1.48Z"/><path class="cls-1" d="M371.72,55.59c10.92-11.94,14.62-23.82,15.71-28.41l-5.9,1.61-6-16.54C360.67,6.77,342.23,7,334.09,7.44l-1.36.07,1.17,22.06,1.43-.16c17.39-1.93,27.27-.88,32.2.17-6.29,14-20.39,24.23-41.92,30.38l-1.27.36,5.22,20.29,1.36-.42a99,99,0,0,0,27.59-13.11,104.73,104.73,0,0,1,15,16.45l.81,1.1,15.4-11.45-.8-1.09A71.62,71.62,0,0,0,371.72,55.59Z"/><polygon class="cls-1" points="378.01 6.69 383.81 24.21 393.11 21.93 389.19 3.73 378.01 6.69"/><polygon class="cls-1" points="403.06 0 391.88 2.95 398.24 20.74 406.6 18.35 403.06 0"/><path class="cls-1" d="M23.72,7,.35,6.47s-2.5,39.4,5.8,78.22l19.14-.17C17.49,48,23.71,7.39,23.72,7Z"/><path class="cls-1" d="M72.39,35.06a22.25,22.25,0,0,1,13.42,4.38l16.71-16.09A39.18,39.18,0,0,0,75,12.49c-21.77,0-40.38,15.72-40.38,34.87,0,17.32,14.15,33.08,39.31,31.72C84.35,78.51,93.35,74.76,97.2,72l-5-11.09A43.22,43.22,0,0,1,76,64.76c-14.16,0-22.83-6-22.83-14.45C53.13,41.31,61,35.06,72.39,35.06Z"/><path class="cls-1" d="M171.77,28.55V11L110.91,7.1V28.55h18.93A473,473,0,0,0,135.32,84h19.11c-3.42-18.88-3.37-40.72-2.75-55.5Z"/></g></g></svg>