<!-- Generated by IcoMoon.io -->
<svg version="1.1" xmlns="http://www.w3.org/2000/svg" viewBox="0 0 32 32">
<title>icon-font-07</title>
<path d="M29.714 10.12c0-1.080-0.874-1.96-1.96-1.96-0.526 0-1.006 0.211-1.36 0.549v0l-10.4 10.4-10.263-10.263c-0.36-0.417-0.891-0.686-1.486-0.686-1.080 0-1.96 0.874-1.96 1.96 0 0.526 0.206 1.006 0.543 1.354l-0.006 0.006 11.754 11.754c0.354 0.371 0.857 0.6 1.411 0.6 0 0 0 0 0.006 0 0 0 0 0 0.006 0 0.554 0 1.051-0.229 1.411-0.6v0l11.754-11.754c0.337-0.349 0.549-0.829 0.549-1.36z"></path>
</svg>
