<svg xmlns="http://www.w3.org/2000/svg" viewBox="0 0 746.67 746.67"><title>アートボード 102</title><path d="M653.87,607.07v.66H92.8V337.87H653.73v269.2Zm18-308.67H74.8a21.45,21.45,0,0,0-21.47,21.47V625.73A21.54,21.54,0,0,0,74.8,647.2H671.73a21.45,21.45,0,0,0,21.47-21.47V319.87a21.26,21.26,0,0,0-21.33-21.47" style="fill:#339cd1"/><path d="M113.6,357.47V430L156,387.6l30.13-29.87h-.26l.26-.26Z" style="fill:#339cd1"/><path d="M373.33,125.73a16.67,16.67,0,1,1-16.66,16.67,16.68,16.68,0,0,1,16.66-16.67M270.27,262.27,352.4,180a42.52,42.52,0,0,0,20.93,5.47,43.35,43.35,0,0,0,20.8-5.34l82.14,82.14H522.8L414.53,154a41.87,41.87,0,0,0,1.6-11.6,43,43,0,0,0-86,0,42.25,42.25,0,0,0,1.6,11.6l-63.06,63.07L223.47,262h.26l-.26.27Z" style="fill:#339cd1"/><path d="M460.93,448.4,403.47,440l-25.74-52c-1.73-3.47-7.33-3.47-8.93,0l-25.73,52-57.47,8.4a4.87,4.87,0,0,0-4,3.47,4.82,4.82,0,0,0,1.33,5.06l41.6,40.54-9.86,57.2a5.13,5.13,0,0,0,2,4.93,4.75,4.75,0,0,0,2.93.93,4.4,4.4,0,0,0,2.27-.53l51.33-27.07L424.53,560a4.63,4.63,0,0,0,5.2-.4,5,5,0,0,0,2-4.93l-9.86-57.2,41.6-40.54a5.16,5.16,0,0,0,1.33-5.06,4.55,4.55,0,0,0-3.87-3.47" style="fill:#9ddaed"/></svg>