<svg xmlns="http://www.w3.org/2000/svg" viewBox="0 0 746.67 746.67"><title>アートボード 101</title><path d="M304.13,548.8H440.27V650.27H304.13Z" style="fill:#9ddaed"/><path d="M590.67,650.4H156V96.27H590.67ZM612.13,53.33H134.53A21.45,21.45,0,0,0,113.07,74.8V671.87a21.45,21.45,0,0,0,21.46,21.46h477.6a21.45,21.45,0,0,0,21.47-21.46V74.8a21.45,21.45,0,0,0-21.47-21.47" style="fill:#339cd1"/><path d="M226,161.2h40.67v40.67H226Z" style="fill:#339cd1"/><path d="M312.53,161.2H353.2v40.67H312.53Z" style="fill:#339cd1"/><path d="M399.6,161.2h40.67v40.67H399.6Z" style="fill:#339cd1"/><path d="M483.73,161.2H524.4v40.67H483.73Z" style="fill:#339cd1"/><path d="M226,247.07h40.67v40.66H226Z" style="fill:#339cd1"/><path d="M312.53,247.07H353.2v40.66H312.53Z" style="fill:#339cd1"/><path d="M399.6,247.07h40.67v40.66H399.6Z" style="fill:#339cd1"/><path d="M483.73,247.07H524.4v40.66H483.73Z" style="fill:#339cd1"/><path d="M226,332.67h40.67v40.66H226Z" style="fill:#339cd1"/><path d="M312.53,332.67H353.2v40.66H312.53Z" style="fill:#339cd1"/><path d="M399.6,332.67h40.67v40.66H399.6Z" style="fill:#339cd1"/><path d="M483.73,332.67H524.4v40.66H483.73Z" style="fill:#339cd1"/><path d="M226,419.33h40.67V460H226Z" style="fill:#339cd1"/><path d="M312.53,419.33H353.2V460H312.53Z" style="fill:#339cd1"/><path d="M399.6,419.33h40.67V460H399.6Z" style="fill:#339cd1"/><path d="M483.73,419.33H524.4V460H483.73Z" style="fill:#339cd1"/><path d="M226,505.87h40.67v40.66H226Z" style="fill:#339cd1"/><path d="M483.73,505.87H524.4v40.66H483.73Z" style="fill:#339cd1"/></svg>