<svg xmlns="http://www.w3.org/2000/svg" xmlns:xlink="http://www.w3.org/1999/xlink" x="0px"
	 y="0px" viewBox="0 0 560 560" enable-background="new 0 0 560 560" xml:space="preserve">
<g>
	<g>
		<path d="M166.668,339.831c-21.061,0-38.133,17.061-38.133,38.109c0,21.049,17.073,38.102,38.133,38.102
			c21.06,0,38.132-17.054,38.132-38.102C204.8,356.892,187.727,339.831,166.668,339.831z M166.668,393.878
			c-8.802,0-15.952-7.131-15.952-15.937c0-8.776,7.151-15.923,15.952-15.923s15.952,7.147,15.952,15.923
			C182.619,386.746,175.469,393.878,166.668,393.878z M481.3,135.042H94.37c-11.403,0-21.617,7.462-25.088,18.316l-26.05,80.275
			c-2.535,7.707-3.728,15.782-3.728,23.988v113.256l77,1.345c0-25.425,24.519-43.779,49.809-43.779s49.809,18.354,49.809,41.204
			c0,0.585-0.088,2.575-0.088,2.575l143.912-0.346c0-25.425,24.519-43.779,49.809-43.779s49.809,18.354,49.809,41.204
			c0,0.585-0.088,2.575-0.088,2.575l60.028-0.006V186.14C519.504,148.887,518.404,135.042,481.3,135.042z M132.504,292.128
			L132.504,292.128c-0.001,3.75-3.026,6.799-6.745,6.799H88.256c-3.727,0-6.752-3.05-6.752-6.799V257.17
			c0-4.467,0.685-8.902,2.073-13.165l21.944-68.276c0.904-2.805,3.51-4.712,6.426-4.712h13.751c3.759,0,6.806,3.045,6.806,6.801
			V292.128z M236.504,228.884c0,1.711-1.109,3.09-2.487,3.09h-57.042c-1.364,0-2.471-1.379-2.471-3.09v-58.766
			c0-1.704,1.108-3.099,2.471-3.099h57.042c1.378,0,2.487,1.395,2.487,3.099V228.884z M322.504,228.884
			c0,1.711-1.123,3.09-2.506,3.09h-59.983c-1.386,0-2.511-1.379-2.511-3.09v-58.766c0-1.704,1.126-3.099,2.511-3.099h59.983
			c1.382,0,2.506,1.395,2.506,3.099V228.884z M407.504,228.884c0,1.711-1.123,3.09-2.506,3.09h-59.982
			c-1.386,0-2.512-1.379-2.512-3.09v-58.766c0-1.704,1.126-3.099,2.512-3.099h59.982c1.382,0,2.506,1.395,2.506,3.099V228.884z
			 M493.504,227.425c0,3.046-2.478,5.548-5.525,5.548H437.03c-3.053,0-5.526-2.502-5.526-5.548v-54.857
			c0-3.059,2.473-5.548,5.526-5.548h29.904c14.649,0,26.57,11.979,26.57,26.678V227.425z M410.11,339.485
			c-21.06,0-38.133,17.061-38.133,38.109c0,21.049,17.073,38.102,38.133,38.102c21.06,0,38.132-17.054,38.132-38.102
			C448.242,356.546,431.17,339.485,410.11,339.485z M410.11,393.532c-8.802,0-15.952-7.131-15.952-15.937
			c0-8.776,7.151-15.923,15.952-15.923s15.952,7.147,15.952,15.923C426.062,386.4,418.912,393.532,410.11,393.532z"/>
	</g>
</g>
</svg>
