<?xml version="1.0" encoding="utf-8"?>
<!-- Generator: Adobe Illustrator 24.0.1, SVG Export Plug-In . SVG Version: 6.00 Build 0)  -->
<svg version="1.1" id="レイヤー_1" xmlns="http://www.w3.org/2000/svg" xmlns:xlink="http://www.w3.org/1999/xlink" x="0px"
	 y="0px" viewBox="0 0 560 560" style="enable-background:new 0 0 560 560;" xml:space="preserve">
<style type="text/css">
	.st0{fill-rule:evenodd;clip-rule:evenodd;}
</style>
<path id="camera.svg" class="st0" d="M139.9,120.4c-54.9-0.3-99.7,44-99.9,99c-0.3,54.9,44,99.7,99,99.9c54.9,0.3,99.7-44,99.9-99
	c0-0.2,0-0.3,0-0.5C239,165,194.7,120.5,139.9,120.4z M139.9,136c-46.3-0.3-84,37-84.3,83.3c-0.3,46.3,37,84,83.3,84.3
	c46.3,0.3,84-37,84.3-83.3c0-0.2,0-0.4,0-0.5C223.3,173.7,186,136.3,139.9,136z M170.3,213.8v14.5H149v8.8h24.3v14.7H149v20.4h-18.2
	v-20.4h-24.3v-14.7h24.3v-8.8h-21.2v-14.5h18.2l-24.2-41h18.2l18.2,32.2l18.2-32.2h18.2l-24.3,41H170.3L170.3,213.8z M485.2,211.2
	H447c-3.1-1.4-5.5-4.1-6.5-7.3c-2.9-7.2-6.1-14.2-9.3-21.1c-4.9-12.6-17.2-20.8-30.8-20.4c-31.3-0.2-62.6-0.2-93.9,0
	c-13.5-0.4-25.9,7.7-30.8,20.3c-3.2,7-6.4,14-9.3,21.2c-1,3.3-3.4,5.9-6.5,7.3h-38.3c-19.3,0.1-34.9,15.9-34.7,35.3v0v158
	c-0.1,19.3,15.5,35,34.7,35.1h263.7c19.3-0.1,34.8-15.8,34.7-35.1v-158C520.1,227.1,504.6,211.4,485.2,211.2
	C485.2,211.2,485.2,211.2,485.2,211.2L485.2,211.2z M353.1,397.8c-41-0.8-73.5-34.6-72.7-75.6c0-0.1,0-0.3,0-0.4
	c-1.6-40.3,29.7-74.2,70-75.8s74.2,29.7,75.8,70c0.1,2.3,0.1,4.5,0,6.8C426.7,363.6,394,397.2,353.1,397.8L353.1,397.8z
	 M488.6,272.2h-31.2v-26h31.2V272.2z M406.2,323.6c-2.2,29.2-27.5,51-56.7,48.9c-29.2-2.2-51-27.5-48.9-56.7
	c2.1-27.9,25.5-49.4,53.5-49c29.5,0.7,52.9,25.2,52.1,54.7C406.3,322.2,406.2,322.9,406.2,323.6L406.2,323.6z M320.2,322.1
	c-1.1,18.3,12.9,34,31.2,35c18.3,1.1,34-12.9,35-31.2c0.1-1.3,0.1-2.6,0-3.9c1-18.3-13-33.9-31.3-34.9s-33.9,13-34.9,31.3
	C320.1,319.8,320.1,321,320.2,322.1L320.2,322.1z"/>
</svg>
