<?xml version="1.0" encoding="utf-8"?>
<!-- Generator: Adobe Illustrator 23.0.1, SVG Export Plug-In . SVG Version: 6.00 Build 0)  -->
<svg version="1.1" id="レイヤー_1" xmlns="http://www.w3.org/2000/svg" xmlns:xlink="http://www.w3.org/1999/xlink" x="0px"
	 y="0px" viewBox="0 0 345 480" style="enable-background:new 0 0 345 480;" xml:space="preserve">
<rect x="150" y="300" width="45" height="45"/>
<rect x="240" y="300" width="45" height="120"/>
<rect x="150" y="225" width="45" height="45"/>
<rect x="240" y="225" width="45" height="45"/>
<rect x="60" y="375" width="45" height="45"/>
<rect x="60" y="300" width="45" height="45"/>
<path d="M302.5,0h-260C19,0,0,19,0,42.5v395C0,461,19,480,42.5,480h260c23.5,0,42.5-19,42.5-42.5v-395C345,19,326,0,302.5,0z
	 M60,67.5h225v75H60V67.5z M318,432L318,432c0,11-9,20-20,20H47c-11,0-20-9-20-20V185h291V432z"/>
<rect x="60" y="225" width="45" height="45"/>
<rect x="150" y="375" width="45" height="45"/>
</svg>
