<svg xmlns="http://www.w3.org/2000/svg" xmlns:xlink="http://www.w3.org/1999/xlink" x="0px"
	 y="0px" viewBox="0 0 560 560" enable-background="new 0 0 560 560" xml:space="preserve">
<g>
	<g>
		<path d="M295.363,151.01c30.664,0,55.523-24.85,55.523-55.505
			S326.028,40,295.363,40c-30.666,0-55.526,24.85-55.526,55.505S264.697,151.01,295.363,151.01z M427.784,252.314
			c-15.369-20.511-64.888-75.923-92.051-88.261c-24.215-10.999-61.644-8.579-80.89,3.88c-19.246,12.46-76.631,92.985-97.972,92.749
			c-29.706-0.329-44.669-1.54-44.87,27.485c-0.152,21.962,30.045,20.622,60.796,20.622c31.239,0.145,61.944-57.408,61.944-57.408
			s18.067,61.122-2.463,86.911c-20.529,25.788-45.579,42.366-45.579,77.552c0,35.185-0.894,55.07-0.894,70.299
			c0,42.074,56.073,48.794,56.405-1.931c0.335-50.931-6.513-55.316,8.01-77.803c15.545-24.07,37.027-57.144,53.885-38.564
			c8.794,9.693,65.864,162.368,117.013,146.785c21.688-12.572,15.639-36.985,8.836-43.786
			c-13.037-16.543-24.593-32.238-34.026-47.06c-19.47-30.597-33.15-55.026-40.219-77.957c-6.388-32.057-5.388-97.499,5.021-97.603
			c8.215-0.16,39.426,29.586,45.368,62.286c5.942,32.699,26.092,37.06,37.385,24.914
			C454.775,323.277,443.152,272.825,427.784,252.314z"/>
	</g>
</g>
</svg>
