<svg xmlns="http://www.w3.org/2000/svg" xmlns:xlink="http://www.w3.org/1999/xlink" x="0px"
	 y="0px" viewBox="0 0 560 560" enable-background="new 0 0 560 560" xml:space="preserve">
<g>
	<g>
		<path d="M279.999,40C147.452,40,40.001,147.452,40.001,280
			s107.451,240,239.999,240c132.549,0,240-107.451,240-240S412.548,40,279.999,40z M281.378,485.478
			c-113.486,0-205.485-91.999-205.485-205.485c0-113.487,91.999-205.486,205.485-205.486s205.485,91.999,205.485,205.486
			C486.863,393.479,394.864,485.478,281.378,485.478z M379.495,293.947l-79.442-21.5V152.896c0-10.314-8.362-18.676-18.677-18.676
			s-18.674,8.361-18.674,18.676v133.425c0,7.377,4.287,13.736,10.497,16.77c1.307,0.791,2.718,1.45,4.247,1.914l91.211,24.686
			c9.87,2.993,20.297-2.583,23.29-12.453C394.941,307.368,389.366,296.94,379.495,293.947z"/>
	</g>
</g>
</svg>
