<?xml version="1.0" encoding="utf-8"?>
<!-- Generator: Adobe Illustrator 23.0.1, SVG Export Plug-In . SVG Version: 6.00 Build 0)  -->
<svg version="1.1" id="レイヤー_1" xmlns="http://www.w3.org/2000/svg" xmlns:xlink="http://www.w3.org/1999/xlink" x="0px"
	 y="0px" viewBox="0 0 480 480" style="enable-background:new 0 0 480 480;" xml:space="preserve">
<path d="M97.2,238.3c0-19.3-8-29.9-22.7-29.9c-12.7,0-21.2,8.6-21.2,21.5c0,12.2,7.6,20,19.3,20c4.9,0,9.1-1.8,11.8-4.8
	c-0.6,10.9-5.7,14.8-10.1,14.8c-3.4,0-6-1.4-7.3-4.2c-0.3-0.7-1-1.1-1.7-1.1c-0.1,0-0.2,0-0.4,0l-8.2,1.5c-0.6,0.1-1,0.5-1.3,1
	s-0.3,1.1-0.1,1.6c3.1,8.1,10,12.7,19,12.7C89.1,271.6,97.2,259.8,97.2,238.3z M74.7,238.6c-4.1,0-8.3-3-8.3-8.8
	c0-6.9,4.5-9.4,8.4-9.4c4,0,8.5,2.8,8.9,10.6C82.6,234.8,79.3,238.6,74.7,238.6z"/>
<path d="M89.6,171c7.4,4.3,16.8,1.7,21.1-5.7s1.7-16.8-5.7-21.1s-16.8-1.7-21.1,5.6C79.7,157.3,82.2,166.7,89.6,171z"/>
<path d="M89.6,309c-7.4,4.3-9.9,13.7-5.7,21.1c4.3,7.4,13.7,9.9,21.1,5.7c7.4-4.3,9.9-13.7,5.6-21.1C106.5,307.3,97,304.7,89.6,309z
	"/>
<path d="M204.6,63.9h8.5v42.2c0,1.1,0.9,2,2,2h9.9c1.1,0,2-0.9,2-2V48.4c0-1.1-0.9-2-2-2h-7.7c-0.8,0-1.4,0.4-1.8,1.1
	c-1.8,3.7-6.1,6.3-11.2,6.9c-1,0.1-1.8,1-1.8,2v5.5C202.6,63,203.5,63.9,204.6,63.9z"/>
<path d="M314.6,110.7c7.4,4.3,16.8,1.7,21.1-5.7c4.3-7.4,1.7-16.8-5.7-21.1c-7.4-4.3-16.8-1.7-21.1,5.6
	C304.7,97,307.3,106.5,314.6,110.7z"/>
<path d="M237,108.1h38.4c1.1,0,2-0.9,2-2v-8.4c0-1.1-0.9-2-2-2h-25c1-4.8,5.6-9,9.9-11c12-6.4,17.1-12.8,17.1-21.4
	c0-11.2-8.1-18.4-20.5-18.4c-11.6,0-19.7,6.2-21.8,16.6c-0.1,0.5,0,1.1,0.3,1.5s0.8,0.7,1.3,0.8l9.3,1.3c0.1,0,0.2,0,0.3,0
	c0.9,0,1.7-0.6,1.9-1.5c1-4,3.9-6.4,7.6-6.4c4.2,0,7.2,2.7,7.2,6.4c0,4-3.1,7.5-9.4,10.8c-11.2,6-18.8,17.2-18.8,27.8v3.8
	C235,107.2,235.9,108.1,237,108.1z"/>
<path d="M165.4,110.7c7.4-4.3,9.9-13.7,5.7-21.1c-4.3-7.4-13.7-9.9-21.1-5.7c-7.4,4.3-9.9,13.7-5.6,21.1
	C148.5,112.5,158,115,165.4,110.7z"/>
<path d="M343.3,169.6l-90.7,51.9c-3.6-2.4-7.9-3.9-12.6-3.9c-4.2,0-8.1,1.1-11.4,3.1l-62.2-40.8c-4.6-3-10.7-1.7-13.7,2.8
	s-1.7,10.8,2.8,13.8l62.2,40.8c-0.1,0.9-0.2,1.8-0.2,2.8c0,12.4,10,22.4,22.4,22.4s22.4-10,22.4-22.4c0-0.5,0-1,0-1.4l90.7-51.9
	c4.7-2.7,6.4-8.7,3.7-13.5C354,168.5,348,166.9,343.3,169.6z"/>
<path d="M390.4,171c7.4-4.3,9.9-13.7,5.7-21.1c-4.3-7.4-13.7-9.9-21.1-5.6c-7.4,4.3-9.9,13.7-5.6,21.1
	C373.5,172.7,383,175.3,390.4,171z"/>
<path d="M390.4,309c-7.4-4.3-16.8-1.7-21.1,5.6c-4.3,7.4-1.7,16.8,5.6,21.1c7.4,4.3,16.8,1.7,21.1-5.7
	C400.3,322.7,397.8,313.3,390.4,309z"/>
<path d="M416.7,237.6c6.8-3.1,7.8-9.4,7.8-13.1c0-9.7-7.9-16.1-19.6-16.1c-10.1,0-17.1,4.7-19.5,13.2c-0.2,0.5-0.1,1.1,0.2,1.6
	c0.3,0.5,0.8,0.8,1.3,0.9l8.6,1.2c0.1,0,0.2,0,0.3,0c0.8,0,1.5-0.5,1.8-1.3c0.9-2.5,3.3-3.9,6.6-3.9c4.1,0,6.6,2.3,6.6,5.9
	c0,3.2-3.1,6.6-8.4,6.6h-4.8c-1.1,0-1.9,0.9-1.9,1.9v7.5c0,1.1,0.9,1.9,1.9,1.9h5.6c5.7,0,9.8,3.5,9.8,8.4c0,4.3-3.5,7.4-8.4,7.4
	c-4.5,0-7.6-2.1-8.7-6.1c-0.2-0.8-1-1.4-1.8-1.4h-9.4c-0.6,0-1.1,0.2-1.5,0.7c-0.4,0.4-0.5,1-0.4,1.6c2,10.9,10,17.2,22,17.2
	c13.9,0,22.1-7,22.1-18.7C426.8,245.9,422.9,240.1,416.7,237.6z"/>
<path d="M165.4,369.3c-7.4-4.3-16.8-1.7-21.1,5.7c-4.3,7.4-1.7,16.8,5.6,21.1c7.4,4.3,16.8,1.7,21.1-5.6
	C175.3,383,172.7,373.5,165.4,369.3z"/>
<path d="M409.7,70.3C364.4,25,304.1,0,240,0S115.6,25,70.3,70.3S0,175.9,0,240s25,124.4,70.3,169.7S175.9,480,240,480
	s124.4-25,169.7-70.3S480,304.1,480,240S455,115.6,409.7,70.3z M240,450c-115.8,0-210-94.2-210-210S124.2,30,240,30
	s210,94.2,210,210S355.8,450,240,450z"/>
<path d="M242.6,394.8c-6.7,0-10.1,2.3-11.8,4.2c0.6-9.8,5.4-14.2,10-14.2c3.7,0,6.2,1.5,7.5,4.5c0.3,0.7,1,1.2,1.8,1.2
	c0.2,0,0.3,0,0.4,0l8-1.9c0.5-0.1,1-0.5,1.3-1s0.3-1.1,0.1-1.6c-3.1-8.1-10-12.8-19-12.8c-14.7,0-22.8,11.8-22.8,33.3
	c0,19.3,8,29.9,22.7,29.9c12.7,0,21.2-8.6,21.2-21.5C261.9,402.6,254.3,394.8,242.6,394.8z M240.5,424.3c-3.8,0-8.5-2.8-8.9-10.7
	c1-3.7,4.4-7.5,9-7.5c4.1,0,8.3,3,8.3,8.8C249,421.8,244.4,424.3,240.5,424.3z"/>
<path d="M314.7,369.3c-7.4,4.3-9.9,13.7-5.7,21.1s13.7,9.9,21.1,5.6s9.9-13.7,5.6-21.1C331.5,367.5,322,365,314.7,369.3z"/>
</svg>
