<?xml version="1.0" encoding="utf-8"?>
<!-- Generator: Adobe Illustrator 24.0.2, SVG Export Plug-In . SVG Version: 6.00 Build 0)  -->
<svg version="1.1" id="レイヤー_1" xmlns="http://www.w3.org/2000/svg" xmlns:xlink="http://www.w3.org/1999/xlink" x="0px"
	 y="0px" viewBox="0 0 560 560" style="enable-background:new 0 0 560 560;" xml:space="preserve">
<style type="text/css">
	.st0{fill-rule:evenodd;clip-rule:evenodd;}
</style>
<path id="flag.svg" class="st0" d="M169.5,519.9h-53.3L40.5,72.1c-2.8-14.6,6.8-28.8,21.4-31.6c1.5-0.3,3-0.4,4.5-0.5l0,0
	c12.9,0.2,23.8,9.7,25.9,22.5L169.5,519.9z M372.4,102.7c-87.8,0-94.8-42-182.6-42c-20.6-0.6-41.2,2.7-60.5,9.9l43.9,259.7
	c19.4-7.1,39.9-10.5,60.5-9.9c87.8,0,94.8,42,182.6,42c36.7-0.2,72.7-10.7,103.7-30.3L476.1,72.4C445,92,409.1,102.5,372.4,102.7z"
	/>
</svg>
