<?xml version="1.0" encoding="utf-8"?>
<!-- Generator: Adobe Illustrator 24.0.3, SVG Export Plug-In . SVG Version: 6.00 Build 0)  -->
<svg version="1.1" id="レイヤー_1" xmlns="http://www.w3.org/2000/svg" xmlns:xlink="http://www.w3.org/1999/xlink" x="0px"
	 y="0px" viewBox="0 0 560 560" style="enable-background:new 0 0 560 560;" xml:space="preserve">
<title>icon-fontのコピー2</title>
<path id="Color_Overlay" d="M40,280C40,147.5,147.5,40,280,40s240,107.5,240,240S412.5,520,280,520C147.5,519.8,40.2,412.5,40,280z
	 M78.6,280c0,111.3,90.2,201.4,201.4,201.4S481.4,391.3,481.4,280S391.3,78.6,280,78.6C168.8,78.6,78.6,168.8,78.6,280z
	 M279.7,298.9h-0.1c-11.8,0-21.4-9.6-21.4-21.4c0-0.8,0-1.5,0.1-2.3V142.8c0-11.8,9.6-21.4,21.4-21.4c11.8,0,21.4,9.6,21.4,21.4
	v113.4h113.3c11.8,0,21.3,9.6,21.3,21.4c0,11.8-9.6,21.3-21.3,21.3L279.7,298.9z"/>
</svg>
