<?xml version="1.0" encoding="utf-8"?>
<!-- Generator: Adobe Illustrator 24.0.1, SVG Export Plug-In . SVG Version: 6.00 Build 0)  -->
<svg version="1.1" id="レイヤー_1" xmlns="http://www.w3.org/2000/svg" xmlns:xlink="http://www.w3.org/1999/xlink" x="0px"
	 y="0px" viewBox="0 0 560 560" style="enable-background:new 0 0 560 560;" xml:space="preserve">
<style type="text/css">
	.st0{fill-rule:evenodd;clip-rule:evenodd;}
</style>
<path id="kirakira.svg" class="st0" d="M304.8,155.9c1.3,4.3,5.3,7.3,9.8,7.4c42.7,11.2,54,32.2,65.7,97c1.6,8.6,4.1,11.4,7.1,11.4
	s5.6-2.8,7.1-11.4c11.7-64.8,23-85.8,65.7-97c4.1,1.2,8.4-1.2,9.5-5.4c1.2-4.1-1.2-8.4-5.4-9.5c-1.4-0.4-2.8-0.4-4.2,0
	c-42.7-11.2-54-32.2-65.7-97c-1.6-8.6-4.1-11.4-7.1-11.4s-5.6,2.8-7.1,11.4c-11.7,64.8-23,85.8-65.7,97
	C310,148.5,306,151.5,304.8,155.9z M90,354.5c0,6,7.4,8.8,14.7,10.6c64,16,80.9,46,98.5,138.6c2.3,12.3,6.1,16.3,10.7,16.3
	s8.3-4,10.7-16.3c17.6-92.6,34.5-122.6,98.5-138.6c7.3-1.8,14.7-4.6,14.7-10.6s-7.4-8.8-14.7-10.6c-64-16-80.9-46-98.5-138.6
	c-2.3-12.3-6.1-16.3-10.7-16.3s-8.3,4-10.7,16.3c-17.6,92.6-34.5,122.6-98.5,138.6C97.4,345.7,90,348.4,90,354.5z"/>
</svg>
