<?xml version="1.0" encoding="utf-8"?>
<!-- Generator: Adobe Illustrator 23.0.1, SVG Export Plug-In . SVG Version: 6.00 Build 0)  -->
<svg version="1.1" id="レイヤー_1" xmlns="http://www.w3.org/2000/svg" xmlns:xlink="http://www.w3.org/1999/xlink" x="0px"
	 y="0px" viewBox="0 0 480 402.6" style="enable-background:new 0 0 480 402.6;" xml:space="preserve">
<path d="M441.3,0H38.7C17.4,0,0,17.4,0,38.7v325.2c0,21.3,17.4,38.7,38.7,38.7h402.6c21.3,0,38.7-17.4,38.7-38.7V38.7
	C480,17.3,462.6,0,441.3,0z M428.4,327.3c-3,3.5-7.3,5.6-11.9,5.6c-3.6,0-7.1-1.3-9.9-3.6L277.1,221.4l-27.2,22.7
	c-5.6,4.6-14.3,4.6-19.8,0l-27.3-22.7L73.4,329.3c-6.3,5.3-16.5,4.3-21.8-2c-2.7-3.2-3.9-7.2-3.5-11.3c0.4-4.1,2.3-7.8,5.5-10.5
	l125.1-104.2L53.6,97c-6.5-5.5-7.4-15.2-2-21.8c5.5-6.5,15.3-7.4,21.8-2L240,212L406.6,73.2c6.6-5.5,16.3-4.6,21.8,2
	s4.6,16.3-2,21.8L301.3,201.2l125.1,104.2c3.2,2.7,5.1,6.4,5.5,10.5C432.3,320.1,431,324.1,428.4,327.3z"/>
</svg>
