<?xml version="1.0" encoding="utf-8"?>
<!-- Generator: Adobe Illustrator 24.0.1, SVG Export Plug-In . SVG Version: 6.00 Build 0)  -->
<svg version="1.1" id="レイヤー_1" xmlns="http://www.w3.org/2000/svg" xmlns:xlink="http://www.w3.org/1999/xlink" x="0px"
	 y="0px" viewBox="0 0 560 560" style="enable-background:new 0 0 560 560;" xml:space="preserve">
<title>icon-01</title>
<path d="M40,417.9h27.8V170.3H40V417.9z M376.9,322.9h-25.5v69.3H176.2v28.6c0,18.2-9.9,37.8-30.9,37.8c-20.4,0-33.1-19.5-33.1-37.8
	V160.4h239.2v8.6h25.5V87.4c0-7-5.7-12.7-12.7-12.7H52.7c-7,0-12.7,5.7-12.7,12.7v56h25.5v-43.2h285.9v34.7H99.5
	c-7,0-12.7,5.7-12.7,12.7v273.2c0,31.2,22.4,57.9,53.1,63.4c0,0,0.1,0,0.1,0c0.2,0,0.5,0.1,0.7,0.1c1.6,0.3,3.1,0.5,4.7,0.6
	c1.9,0.2,3.8,0.3,5.7,0.3h226.4c35.6,0,64.4-28.9,64.3-64.4c0,0,0,0,0,0v-28.6h-65V322.9z M284,211.9H164v25.5h120V211.9z
	 M224,314.3v-25.5h-51.4v25.5H224z M465.2,199.4l-36.3-44.7l-125,100.8l36.3,44.8L465.2,199.4z M284.2,271.7l-22.3,54.8l58.4-10.3
	L284.2,271.7z M508.6,164.6c13.2-10.7,15.3-30.1,4.5-43.3c0,0,0,0,0,0l-0.5-0.6c-10.8-13.2-30.2-15.3-43.5-4.6l-12.1,9.8l-14,11.8
	l38.3,47.6c8.7,9.8,3.2,21.4,0.9,25.3l-102.7,81.2l15.9,20l104.4-82.5c0.9-0.7,1.8-1.6,2.4-2.6c7.6-10.5,16.8-35.6-0.4-56.7
	L508.6,164.6z M492.5,144.8l-12.1,9.8l-7.2-8.9l12.1-9.8c0.9-0.8,2.1-1.2,3.4-1.2c0.2,0,0.4,0,0.6,0c1.4,0.1,2.7,0.8,3.6,1.9
	l0.5,0.6l0,0C495.1,139.6,494.8,143,492.5,144.8L492.5,144.8z"/>
</svg>
