<?xml version="1.0" encoding="utf-8"?>
<!-- Generator: Adobe Illustrator 24.0.1, SVG Export Plug-In . SVG Version: 6.00 Build 0)  -->
<svg version="1.1" id="レイヤー_1" xmlns="http://www.w3.org/2000/svg" xmlns:xlink="http://www.w3.org/1999/xlink" x="0px"
	 y="0px" viewBox="0 0 560 560" style="enable-background:new 0 0 560 560;" xml:space="preserve">
<style type="text/css">
	.st0{fill-rule:evenodd;clip-rule:evenodd;}
</style>
<path id="btn_icon.svg" class="st0" d="M483.1,186.6c0-1.1-0.1-2.2-0.3-3.3c0-0.2,0-0.4-0.1-0.6c-0.2-0.9-0.5-1.7-0.8-2.6
	c-0.1-0.4-0.3-0.6-0.4-0.9c-0.3-0.7-0.7-1.4-1.1-2c-0.2-0.4-0.3-0.6-0.5-0.9c-0.6-0.9-1.3-1.8-2-2.6L355.4,45.9
	c-0.8-0.9-1.7-1.6-2.7-2.2l-0.8-0.6c-0.7-0.5-1.5-0.9-2.3-1.3c-0.2-0.2-0.5-0.3-0.8-0.4c-1.1-0.5-2.1-0.8-3.2-1.1h-0.6
	c-1-0.2-1.9-0.3-2.9-0.4H96C85.5,40,77,48.5,76.9,59c0,0,0,0,0,0v442c0,10.5,8.6,19,19.1,19c0,0,0,0,0,0H464
	c10.5,0,19.1-8.5,19.1-19c0,0,0,0,0,0V186.6L483.1,186.6z M419.3,167.8l-59.2-0.2l0.3-61.3L419.3,167.8z M115.2,482V78h207.1
	l-0.5,108.6c0,5,2,9.9,5.5,13.5c3.6,3.5,8.5,5.5,13.5,5.5l104,0.2V482H115.2L115.2,482z M381.4,261H178.6c-10.5,0-19,8.5-19,19
	c0,10.5,8.5,19,19,19h202.8c10.5,0,19-8.5,19-19C400.4,269.5,391.9,261,381.4,261L381.4,261z M178.6,193.1h86.1c10.5,0,19-8.5,19-19
	s-8.5-19-19-19l0,0h-86.1c-10.5,0-19,8.5-19,19C159.6,184.5,168.1,193.1,178.6,193.1L178.6,193.1z M381.4,367H178.6
	c-10.5,0-19,8.5-19,19s8.5,19,19,19h202.8c9,5.4,22.3-0.3,27.6-9.3c5.4-9,2.4-20.7-6.7-26.1C396.4,366.1,389,366.1,381.4,367
	L381.4,367z"/>
</svg>
