<?xml version="1.0" encoding="utf-8"?>
<!-- Generator: Adobe Illustrator 23.0.1, SVG Export Plug-In . SVG Version: 6.00 Build 0)  -->
<svg version="1.1" id="レイヤー_1" xmlns="http://www.w3.org/2000/svg" xmlns:xlink="http://www.w3.org/1999/xlink" x="0px"
	 y="0px" viewBox="0 0 510.3 480" style="enable-background:new 0 0 510.3 480;" xml:space="preserve">
<path d="M255.1,272.1c-50.6,0-88.9,21.9-88.9,51s38.2,51,88.9,51c50.6,0,88.9-21.9,88.9-51C343.8,294.1,305.6,272.1,255.1,272.1z
	 M255.1,347.7c-37.5,0-62.4-14.8-62.4-24.6c0-9.8,24.9-24.6,62.4-24.6s62.4,14.8,62.4,24.6C317.4,332.9,292.5,347.7,255.1,347.7z"/>
<path d="M398.5,245.2c-8.2-11.6-21.5-18.5-35.6-18.5h-40.4v-32.1c0-15.6-12.8-28.4-28.4-28.4s-28.4,12.8-28.4,28.4v32.1h-21.7v-32.1
	c0-15.6-12.8-28.4-28.4-28.4s-28.4,12.8-28.4,28.4v32.1H147c-14.1,0-27.4,6.9-35.6,18.5L22.9,371.4c-5.2,7.3-7.9,15.9-7.9,25v40.2
	c0,23.9,19.5,43.5,43.5,43.5h393.1c23.9,0,43.5-19.5,43.5-43.5v-40.2c0-9-2.8-17.6-7.9-25L398.5,245.2z M468.6,436.5L468.6,436.5
	c0,9.4-7.7,17-17,17H58.5c-9.4,0-17-7.7-17-17v-40.2c0-3.5,1.1-6.9,3.1-9.8l88.5-126.2c3.2-4.6,8.4-7.2,13.9-7.2h66.9v-58.6
	c0-2.1,3.8-2.1,3.8,0v58.6h74.6v-58.6c0-2.1,3.8-2.1,3.8,0v58.6H363c5.5,0,10.7,2.7,13.9,7.2l0,0l88.5,126.2c2,2.9,3.1,6.3,3.1,9.8
	L468.6,436.5z"/>
<path d="M481.2,67.2c-39-42.7-110.6-65.3-213-67.1L255.1,0C146,0,70.1,22.5,29.3,67.1C-0.6,99.6-0.3,132.8,0.1,138.2v28.1
	c0,14.7,13.4,26.6,29.9,26.6h66.7c16.5,0,29.9-11.9,29.9-26.6v-42.4c19-5.1,66.3-15.7,128.5-15.7c62.1,0,109.5,10.6,128.5,15.7v42.4
	c0,14.7,13.4,26.6,30,26.6h66.7c16.5,0,30-11.9,30-26.6v-28.1C510.4,132.5,510.8,99.6,481.2,67.2z M483.7,136.6v28.8
	c-0.5,0.4-1.7,1-3.5,1h-66.7c-1.8,0-3-0.5-3.5-1v-61l-9-3c-2.4-0.9-60.2-19.7-145.8-19.7s-143.5,18.8-145.9,19.6l-9,3v61
	c-0.5,0.4-1.7,1-3.4,1H29.9c-1.8,0-3-0.5-3.5-1v-27.5v-1.1c-0.1-1.1-1.5-26.5,23-52.6C74,57.7,129.7,26.4,254.9,26.4l0,0
	c125.7,0,181.4,31.5,206,57.8C485.3,110.3,483.8,135.6,483.7,136.6z"/>
</svg>
