<svg id="レイヤー_1" data-name="レイヤー 1" xmlns="http://www.w3.org/2000/svg" width="642" height="75.938" viewBox="0 0 642 75.938"><defs><style>.cls-1{fill:#fff;}.cls-2{fill:#003d5c;}</style></defs><title>アートボード 1</title><path class="cls-1" d="M625.149,75.938a16.912,16.912,0,0,1-16.916-16.869,16.884,16.884,0,1,1,16.916,16.869Zm0-17.286c-.312,0-.433.117-.433.417,0,.445.205.482.433.482.119,0,.367,0,.367-.482C625.516,58.652,625.259,58.652,625.149,58.652Z"/><path class="cls-1" d="M567.184,74.2c-5.295,0-9.443-3.844-9.443-8.75V63.268H540.479a9.15,9.15,0,0,1-.017-18.286,15.96,15.96,0,0,1-.784-4.8V28.262c0-2.881.687-6.943,4.017-9.7-.4-.568-.838-1.158-1.346-1.834a9.074,9.074,0,0,1-1.956-5.62,9.346,9.346,0,0,1,9.573-9.077,9.972,9.972,0,0,1,6.276,2.239A9.591,9.591,0,0,1,564.065.327a9.788,9.788,0,0,1,8.148,4.464c.728,1.081,1.339,2.116,1.876,3.111.244-.491.483-.99.721-1.5A9.641,9.641,0,0,1,583.624.655,9.438,9.438,0,0,1,593.2,9.929a9.749,9.749,0,0,1-1.014,4.236q-.965,1.91-1.975,3.7c4.127,2.73,4.938,7.263,4.938,10.4V40.048a15.388,15.388,0,0,1-.765,4.934h.353a9.148,9.148,0,0,1,0,18.286H576.627v2.185C576.627,70.441,572.568,74.2,567.184,74.2Z"/><path class="cls-1" d="M468.544,73.94c-5.347,0-9.379-3.62-9.379-8.422V29.31c0-.206,0-.408.009-.608a8.921,8.921,0,0,1-4.492-7.708,9.385,9.385,0,0,1,2.6-6.392l.132-.141a36.786,36.786,0,0,0,6.107-8.822l.09-.181A9.368,9.368,0,0,1,472.053.327a9.236,9.236,0,0,1,8.766,5.959h5.529a8.282,8.282,0,0,1,2.925.526c.245-.458.476-.914.689-1.363l.1-.2A9.352,9.352,0,0,1,498.368.2a9.176,9.176,0,0,1,8.719,6.09H517.8a8.392,8.392,0,0,1,8.339,8.619,8.518,8.518,0,0,1-5.243,8.027,13.249,13.249,0,0,1,1.41,6.378V60.28c0,8.515-4.84,13.4-13.278,13.4a32.188,32.188,0,0,1-4.768-.307,8.975,8.975,0,0,1-7.137-5.048c-.423.028-.844.044-1.259.051H485.373a16.588,16.588,0,0,1-7.556-1.528C477.148,70.973,473.385,73.94,468.544,73.94Z"/><path class="cls-1" d="M434.23,75.705a9.018,9.018,0,0,1-7.105-3.5,42.572,42.572,0,0,0-6.549-6.509,8.443,8.443,0,0,1-3.6-6.884,8.636,8.636,0,0,1,8.665-8.586,9.345,9.345,0,0,1,4.769,1.376l.089.054a45.2,45.2,0,0,1,10.384,9.223,9.58,9.58,0,0,1,2.206,6.038A8.834,8.834,0,0,1,434.23,75.705Z"/><path class="cls-1" d="M370.323,70.082a8.9,8.9,0,0,1-9-7.539,114.952,114.952,0,0,1-1.336-18.186,114.981,114.981,0,0,1,3.17-25.274,8.78,8.78,0,0,1,8.861-6.8,9.458,9.458,0,0,1,7.3,3.333,8.469,8.469,0,0,1,1.708,7.179s-.132.584-.181.806a8.763,8.763,0,0,1,2.924-.5c.179,0,.362,0,.549.016.847.057,1.56.1,2.342.1q.377,0,.744,0V20.765a8.857,8.857,0,0,1,17.7,0v.749q.386-.032.767-.032a8.525,8.525,0,0,1,8.555,8.676,8.912,8.912,0,0,1-7.227,8.81c-.615.127-1.258.249-1.939.366.049,1.625.122,3.289.234,4.952a45.63,45.63,0,0,1,7.083,4.39,9.334,9.334,0,0,1,3.877,7.5,8.955,8.955,0,0,1-8.906,8.984,9.19,9.19,0,0,1-5.094-1.61c-2.893,3.239-7.355,5.035-12.945,5.035a17.5,17.5,0,0,1-10.924-3.434,8.678,8.678,0,0,1-1.14,1.71A9.44,9.44,0,0,1,370.323,70.082ZM389.141,57.8Zm-10.677-18.85c-.144,1.872-.219,3.666-.222,5.364a16.256,16.256,0,0,1,7.586-3.4,26.033,26.033,0,0,1-2.836-.145A8.763,8.763,0,0,1,378.464,38.948Z"/><path class="cls-1" d="M303.223,73.286c-5.458,0-9.574-3.762-9.574-8.75V47.446a9.156,9.156,0,0,1-1.408.108,9.783,9.783,0,0,1-9.768-9.536,9.644,9.644,0,0,1,2.63-6.552c4.742-5.4,9.84-14.693,12.7-23.133a9.56,9.56,0,0,1,9.192-6.5,10.132,10.132,0,0,1,7.528,3.281,9.711,9.711,0,0,1,7.547-3.346c5.5,0,9.639,3.959,9.639,9.208v7.477q1.65-1.229,3.28-2.589a9.543,9.543,0,0,1,6.184-2.31,9.849,9.849,0,0,1,9.639,9.8A9.282,9.282,0,0,1,347,30.888a96.726,96.726,0,0,1-15.291,9.775v12.5h.432a24.924,24.924,0,0,0,2.982-.136c.029-.18.061-.4.092-.663a9.124,9.124,0,0,1,9.271-8.106,9.9,9.9,0,0,1,7.418,3.2,8.883,8.883,0,0,1,2.183,7.013c-1.67,15.035-11.5,17.109-21.881,17.109-6.218,0-17.253,0-19.406-10.614v3.567C312.8,69.524,308.681,73.286,303.223,73.286Zm8.364-47.622a8.518,8.518,0,0,1,.84,1.92V23.95Q312.018,24.805,311.587,25.664Z"/><path class="cls-1" d="M258.385,67.982c-5.791,0-10.158-4.184-10.158-9.732V24.7h-5.436a9.059,9.059,0,0,1-9.184-9.339,9.059,9.059,0,0,1,9.184-9.339h31.124a9.06,9.06,0,0,1,9.184,9.339,9.059,9.059,0,0,1-9.184,9.339h-5.5V58.25C268.414,63.889,264.2,67.982,258.385,67.982Z"/><path class="cls-1" d="M206.465,68.44c-16.608,0-27.767-12.752-27.767-31.732S189.857,4.976,206.465,4.976a28.094,28.094,0,0,1,17.215,5.386l.084.062c2.067,1.543,4.815,4.127,4.815,8.737A9.991,9.991,0,0,1,211.493,26a6.44,6.44,0,0,0-5.028-2.15c-5.547,0-7.515,6.926-7.515,12.857s1.968,12.857,7.515,12.857a8.467,8.467,0,0,0,6.448-2.322,10.011,10.011,0,0,1,6.742-2.654,9.557,9.557,0,0,1,6.221,16.936A28.614,28.614,0,0,1,206.465,68.44Z"/><path class="cls-1" d="M161.435,67.982c-5.791,0-10.159-4.184-10.159-9.732V15.167c0-5.549,4.368-9.732,10.159-9.732,5.811,0,10.028,4.092,10.028,9.732V58.25C171.463,63.889,167.246,67.982,161.435,67.982Z"/><path class="cls-1" d="M94.5,74.2C89.083,74.2,85,70.5,85,65.583V39.589a17.224,17.224,0,0,1,.308-3.328,8.826,8.826,0,0,1-8.04-8.981,9.01,9.01,0,0,1,1.331-4.762,8.853,8.853,0,0,1-3.8-7.417,8.526,8.526,0,0,1,8.4-8.815H100.5c1.125-3.715,4.71-6.286,9.2-6.286,4.465,0,8.025,2.571,9.143,6.286h17.757c4.755,0,8.34,3.79,8.34,8.815a8.662,8.662,0,0,1-5.864,8.435,9.523,9.523,0,0,1,1.835,5.577,9.222,9.222,0,0,1-5.629,8.474,18.366,18.366,0,0,1,.106,2V60.411c0,8.349-5.061,13.333-13.537,13.333-1.223,0-3.142-.058-4.861-.223l-.2-.023a9.093,9.093,0,0,1-8.15-9.159,9.927,9.927,0,0,1,.175-1.857h-4.874v3.1C103.947,70.417,99.8,74.2,94.5,74.2Z"/><path class="cls-1" d="M17.436,73.81c-5.421,0-9.509-3.706-9.509-8.62V45.8A9.34,9.34,0,0,1,0,36.643a9.908,9.908,0,0,1,1.71-5.537c3.644-5.534,7.106-14.261,9.029-22.763A9.441,9.441,0,0,1,20.1,1.113a9.812,9.812,0,0,1,8.157,4.132,15.559,15.559,0,0,1,8.477-2.168H52.978c8.558,0,13.668,4.764,13.668,12.744l0,8.466A12.994,12.994,0,0,1,64.1,32.255c4.167.659,7.162,4.3,7.162,8.971a9.057,9.057,0,0,1-4.67,8.127c.481.288.965.565,1.448.834a9.611,9.611,0,0,1,5.171,8.456,9.4,9.4,0,0,1-9.314,9.47,9.685,9.685,0,0,1-4.989-1.455,57.036,57.036,0,0,1-4.8-3.141v1.346c0,5.026-4.06,8.816-9.444,8.816s-9.444-3.79-9.444-8.816V64.6c-1.264.975-2.544,1.879-3.825,2.7a9.862,9.862,0,0,1-5.314,1.6h-.053A9.324,9.324,0,0,1,17.436,73.81Z"/><path class="cls-2" d="M65.129,55.435A59.531,59.531,0,0,1,50.7,44.3H62.725c1.689,0,2.534-1.572,2.534-3.078,0-1.571-.845-3.077-2.534-3.077H48.105V35.006c0-1.833-1.689-2.75-3.444-2.75-1.689,0-3.444.917-3.444,2.75v3.143H27.442c-1.624,0-2.469,1.506-2.469,3.077,0,1.506.845,3.078,2.469,3.078H38.423a51.189,51.189,0,0,1-13.84,12.571,3.2,3.2,0,0,0-1.754,2.75A3.313,3.313,0,0,0,26.078,62.9a3.856,3.856,0,0,0,2.079-.655,57.2,57.2,0,0,0,13.32-12.178l-.26,8.642v6.155c0,1.9,1.755,2.816,3.444,2.816,1.755,0,3.444-.917,3.444-2.816V58.708l-.26-9.035A57.09,57.09,0,0,0,62.01,61.524a3.7,3.7,0,0,0,1.884.589,3.454,3.454,0,0,0,3.314-3.47A3.638,3.638,0,0,0,65.129,55.435ZM18.086,27.8a93.031,93.031,0,0,0,5.653-16.435,5.169,5.169,0,0,0,.13-.917A3.486,3.486,0,0,0,20.1,7.113a3.427,3.427,0,0,0-3.509,2.554c-2.014,8.9-5.653,18.333-9.876,24.75A3.905,3.905,0,0,0,6,36.643a3.355,3.355,0,0,0,3.444,3.274,3.673,3.673,0,0,0,3.119-1.834l1.364-2.16V65.191c0,1.767,1.755,2.619,3.509,2.619,1.689,0,3.444-.852,3.444-2.619V30.423C20.88,28.917,19.58,28,18.086,27.8Zm18.648,3.077H52.978c4.678-.066,7.537-1.571,7.667-6.744V15.821c0-4.517-2.339-6.744-7.667-6.744H36.734c-5.328,0-7.667,2.227-7.667,6.744v8.316C29.067,28.655,31.406,30.881,36.734,30.881Zm-.78-14.012c0-1.309.455-1.768,2.08-1.768H51.679c1.624,0,2.079.459,2.079,2.226v5.3c0,1.768-.455,2.226-2.079,2.226H38.034c-1.365,0-2.08-.262-2.08-1.768Zm84.54,15.78H99.9c-6.5,0-8.9,2.03-8.9,6.94V65.583c0,1.7,1.754,2.62,3.509,2.62,1.689,0,3.443-.917,3.443-2.62v-9.1h24.5v3.012c0,1.441-.52,1.834-1.5,1.834a24.167,24.167,0,0,1-2.859-.2,3.058,3.058,0,0,0-3.444,3.208,3.125,3.125,0,0,0,2.924,3.209c1.365.131,3.054.2,4.289.2,5.2,0,7.537-2.291,7.537-7.333V39.589C129.4,34.679,127.057,32.649,120.494,32.649Zm1.95,18.6h-24.5V47.315h24.5Zm0-9.167h-24.5v-1.7c0-1.637.52-2.095,2.859-2.095h18.779c2.339,0,2.859.458,2.859,2.095Zm14.165-29.791H113.217V8.815c0-1.9-1.755-2.815-3.509-2.815-1.819,0-3.574.917-3.574,2.815v3.471H83.2a2.551,2.551,0,0,0-2.4,2.815,2.588,2.588,0,0,0,2.4,2.816H99.832A60.725,60.725,0,0,1,96.193,24.2c-3.379.131-6.823.2-10.136.2a2.716,2.716,0,0,0-2.794,2.881,2.821,2.821,0,0,0,2.924,3.012,346.3,346.3,0,0,0,39.051-2.881c1.364,1.244,2.664,2.553,3.768,3.666a3.594,3.594,0,0,0,2.664,1.244,3.257,3.257,0,0,0,3.249-3.208,3.676,3.676,0,0,0-1.169-2.619,78.619,78.619,0,0,0-10.267-8.577h13.126c1.559,0,2.339-1.441,2.339-2.816C138.948,13.661,138.168,12.286,136.609,12.286ZM103.86,23.875c1.235-1.964,2.339-3.929,3.379-5.958H118.09a2.5,2.5,0,0,0-.715,1.7,2.591,2.591,0,0,0,1.17,2.03c.455.327.91.655,1.364,1.047C114.581,23.155,109.253,23.548,103.86,23.875Zm57.575-12.441c-2.339,0-4.159,1.31-4.159,3.733V58.25c0,2.423,1.82,3.732,4.159,3.732s4.029-1.309,4.029-3.732V15.167C165.464,12.744,163.774,11.434,161.435,11.434Zm58.22,39.155a4.05,4.05,0,0,0-2.729,1.113,14.4,14.4,0,0,1-10.461,3.864c-7.732,0-13.515-7.006-13.515-18.858,0-11.785,5.653-18.857,13.515-18.857a12.425,12.425,0,0,1,9.227,3.863,3.993,3.993,0,0,0,6.887-2.553c0-1.572-.649-2.619-2.4-3.929a22.066,22.066,0,0,0-13.71-4.256c-12.215,0-21.767,9.167-21.767,25.732,0,16.631,9.486,25.733,21.767,25.733a22.612,22.612,0,0,0,15.465-5.435,3.643,3.643,0,0,0,1.429-3.012A3.529,3.529,0,0,0,219.655,50.589Zm54.259-38.565H242.791a3.08,3.08,0,0,0-3.184,3.339,3.08,3.08,0,0,0,3.184,3.339h11.436V58.25c0,2.423,1.819,3.732,4.158,3.732s4.029-1.309,4.029-3.732V18.7h11.5a3.08,3.08,0,0,0,3.184-3.339A3.08,3.08,0,0,0,273.914,12.024Zm33.077-4.191a3.516,3.516,0,0,0-3.509,2.423c-2.924,8.643-8.317,18.857-13.905,25.208a3.605,3.605,0,1,0,5.393,4.78,61.641,61.641,0,0,0,4.679-6.089V64.536c0,1.833,1.819,2.75,3.573,2.75,1.82,0,3.574-.917,3.574-2.75V30.161a2.939,2.939,0,0,0-2.859-2.881A88.182,88.182,0,0,0,310.7,12.351a3.733,3.733,0,0,0,.195-1.178C310.89,9.143,308.94,7.833,306.991,7.833Zm37.492,42.429a3.129,3.129,0,0,0-3.314,2.816c-.585,4.91-2.079,6.089-9.032,6.089-5.653,0-6.433-.655-6.433-3.012V36.839A84,84,0,0,0,343.378,26.1a3.336,3.336,0,0,0,1.43-2.75,3.9,3.9,0,0,0-3.639-3.8,3.546,3.546,0,0,0-2.339.917A74.567,74.567,0,0,1,325.7,29.31V10.976c0-2.161-1.819-3.208-3.638-3.208s-3.639,1.047-3.639,3.208v46.03c0,6.417,2.6,8.577,13.775,8.577,10.916,0,14.88-2.422,15.919-11.785C348.381,51.506,346.432,50.262,344.483,50.262Zm27.54-31.983a2.858,2.858,0,0,0-3.016,2.155,109.958,109.958,0,0,0-3.015,23.923A108.2,108.2,0,0,0,367.253,61.6a3.133,3.133,0,0,0,6.2-.774,114.908,114.908,0,0,1-1.207-16.409,106.283,106.283,0,0,1,2.906-22.819C375.587,19.439,373.778,18.279,372.023,18.279Zm36.955,35.195a38.265,38.265,0,0,0-9.157-5.139c-.493-4.7-.6-9.447-.658-14.2,2.358-.276,4.716-.608,6.854-1.05a2.911,2.911,0,0,0,2.412-2.928,2.562,2.562,0,0,0-3.289-2.6c-1.864.332-3.893.663-6.031.884v-7.68a2.87,2.87,0,0,0-5.7,0V29c-2.357.165-4.605.221-6.744.221-.987,0-1.864-.056-2.686-.111a2.6,2.6,0,0,0-2.851,2.763,2.78,2.78,0,0,0,2.522,2.928,26.158,26.158,0,0,0,3.015.11c2.139,0,4.442-.055,6.8-.221.055,4.034.165,8.067.494,12.1a28.145,28.145,0,0,0-3.619-.276c-7.128,0-10.8,3.426-10.8,8.012,0,4.972,3.838,8.066,9.978,8.066,6.8,0,9.924-3.315,10.528-7.9a42.484,42.484,0,0,1,5.428,3.647,3.466,3.466,0,0,0,2.083.828,2.984,2.984,0,0,0,2.906-2.983A3.36,3.36,0,0,0,408.978,53.474ZM389.513,57.12c-2.741,0-4.221-.884-4.221-2.6,0-1.6,1.206-2.818,5.044-2.818a15.267,15.267,0,0,1,3.893.607C394.174,55.794,392.31,57.12,389.513,57.12Zm37.859-.344a3.5,3.5,0,0,0-1.727-.546,2.644,2.644,0,0,0-2.665,2.585,2.448,2.448,0,0,0,1.135,2.039,48.175,48.175,0,0,1,7.7,7.608,3,3,0,0,0,2.418,1.243,2.823,2.823,0,0,0,2.862-2.785,3.64,3.64,0,0,0-.889-2.287A39.594,39.594,0,0,0,427.372,56.776ZM517.8,12.286H500.383c.259-.59.584-1.179.844-1.768a3.073,3.073,0,0,0,.325-1.441A3.054,3.054,0,0,0,498.368,6.2a3.323,3.323,0,0,0-2.989,1.834,42.793,42.793,0,0,1-6.562,9.887,2.9,2.9,0,0,0-.91,2.095,3.052,3.052,0,0,0,3.184,2.815,3.871,3.871,0,0,0,2.729-1.244,29.818,29.818,0,0,0,3.314-4.059h4.483c.715,1.113,1.3,2.226,1.884,3.339a2.957,2.957,0,0,0,2.729,1.7,2.989,2.989,0,0,0,3.184-2.684,2.732,2.732,0,0,0-.39-1.31c-.195-.327-.39-.72-.584-1.047H517.8a2.4,2.4,0,0,0,2.339-2.619A2.4,2.4,0,0,0,517.8,12.286ZM502.917,49.018c0-3.929-1.755-5.7-7.148-5.7h-10.4c-5.393,0-7.148,1.767-7.148,5.7v7.661c0,3.928,1.755,5.7,7.148,5.7h10.4c4.289-.065,7.083-.851,7.148-5.7Zm-6.238,7.268c0,1.047-.39,1.375-1.755,1.375h-8.706c-1.04,0-1.755-.131-1.755-1.375V54.911h12.216Zm0-5.566H484.463V49.411c0-1.048.39-1.375,1.755-1.375h8.706c1.365,0,1.755.327,1.755,1.375Zm-25.926-33.2h4.094A32.771,32.771,0,0,1,476.6,20.8a3.1,3.1,0,0,0,2.859,1.9,2.969,2.969,0,0,0,3.119-2.684,2.6,2.6,0,0,0-.325-1.31c-.195-.393-.455-.785-.65-1.178h4.743a2.4,2.4,0,0,0,2.34-2.619,2.4,2.4,0,0,0-2.34-2.619H474c.325-.59.65-1.244.91-1.834a3.18,3.18,0,0,0,.389-1.375c0-1.637-1.624-2.75-3.248-2.75a3.338,3.338,0,0,0-3.119,1.9,42.538,42.538,0,0,1-7.213,10.411,3.486,3.486,0,0,0-1.039,2.357A3.05,3.05,0,0,0,463.8,23.94a3.971,3.971,0,0,0,2.859-1.309C468.024,21.125,469.389,19.357,470.753,17.524Zm37.492,5.762h-7.018c-6.3,0-8.057,1.637-8.057,5.762V35.2c0,4.125,1.754,5.7,8.057,5.7h8.317v18.53c0,1.506-.195,1.964-1.429,1.964a22.064,22.064,0,0,1-2.6-.2,2.877,2.877,0,0,0-3.314,3.011A3.07,3.07,0,0,0,505,67.417a26.09,26.09,0,0,0,4.028.262c5,0,7.278-2.161,7.278-7.4V29.31C516.3,25.054,514.547,23.286,508.245,23.286Zm1.3,13.291h-7.862c-1.624,0-1.884-.262-1.884-1.375V34.024h9.746Zm0-6.482H499.8V28.982c0-1.113.26-1.375,1.884-1.375h5.978c1.624,0,1.884.262,1.884,1.375Zm-24.366,9.953c2.014-.917,2.4-2.816,2.469-4.846V29.048c0-4.125-1.754-5.762-8.057-5.762h-6.368c-6.3,0-8.057,1.768-8.057,6.024V65.518c0,1.637,1.689,2.423,3.379,2.423s3.379-.786,3.379-2.423V40.9h7.667A13.373,13.373,0,0,0,485.178,40.048ZM471.923,28.982c0-1.113.26-1.375,1.884-1.375h5.328c1.625,0,1.884.262,1.884,1.375V30.1h-9.1Zm0,7.595V34.024h9.1V35.2c0,1.113-.259,1.375-1.884,1.375ZM563.87,16.345a3.483,3.483,0,0,0,3.314,2.161,3.346,3.346,0,0,0,3.509-3.143,3.069,3.069,0,0,0-.325-1.44,39.239,39.239,0,0,0-3.119-5.762,3.846,3.846,0,0,0-3.184-1.834,3.267,3.267,0,0,0-3.444,2.947,3.66,3.66,0,0,0,.52,1.7A52,52,0,0,1,563.87,16.345Zm-13.255,1.768a3.727,3.727,0,0,0,3.249,1.9,3.378,3.378,0,0,0,3.574-3.208,3.723,3.723,0,0,0-.65-2.03,50.289,50.289,0,0,0-3.769-5.3,3.985,3.985,0,0,0-3.054-1.44,3.409,3.409,0,0,0-3.573,3.077,3.057,3.057,0,0,0,.714,1.964C548.536,14.97,549.445,16.28,550.615,18.113Zm44.119,32.869H570.628V46.857H580.7c6.238,0,8.447-2.16,8.447-6.809V28.262c0-4.583-2.209-6.744-8.382-6.744A72.575,72.575,0,0,0,586.807,11.5a3.726,3.726,0,0,0,.39-1.572,3.471,3.471,0,0,0-3.574-3.273,3.661,3.661,0,0,0-3.379,2.291,69.557,69.557,0,0,1-7.472,12.572H554.124c-6.238,0-8.447,2.161-8.447,6.744V40.048c.13,5.762,3.379,6.678,8.447,6.809h9.616v4.125H540.479a3.165,3.165,0,0,0,0,6.286H563.74v8.185c0,1.833,1.755,2.75,3.444,2.75,1.754,0,3.444-.917,3.444-2.75V57.268h24.106a3.157,3.157,0,0,0,0-6.286ZM570.628,26.887h9.162c2.014,0,2.469.524,2.469,1.964v2.554H570.628Zm0,9.756h11.631v2.815c0,1.375-.455,1.9-2.469,1.9h-9.162Zm-6.888,4.714h-8.707c-1.494,0-2.469-.2-2.469-1.9V36.643H563.74Zm0-9.952H552.564V28.786c0-1.375.455-1.9,2.469-1.9h8.707Zm61.409,16.86A10.837,10.837,0,1,0,636,59.069,10.774,10.774,0,0,0,625.149,48.265Zm0,17.286a6.45,6.45,0,1,1,6.368-6.482A6.35,6.35,0,0,1,625.149,65.551Z"/></svg>