<svg xmlns="http://www.w3.org/2000/svg" xmlns:xlink="http://www.w3.org/1999/xlink" x="0px"
	 y="0px" viewBox="0 0 560 560" enable-background="new 0 0 560 560" xml:space="preserve">
<path d="M134.032,238.833c33.14,0,60.007-26.937,60.007-60.166
	c0-33.23-26.867-60.167-60.007-60.167c-33.141,0-60.008,26.937-60.008,60.167C74.025,211.896,100.891,238.833,134.032,238.833z
	 M278.255,276.047c33.113,0,59.956-26.917,59.956-60.121c0-33.203-26.843-60.12-59.956-60.12c-33.112,0-59.955,26.917-59.955,60.12
	C218.3,249.13,245.143,276.047,278.255,276.047z M517.922,313.633c0-19.35-35.486-51.488-58.724-56.624
	c-16.677-3.685-40.805-2.738-57.888-0.034c-17.026,2.696-40.195,17.28-52.298,35.195c20.679,11.68,37.247,35.183,40.627,50.022
	c2.819,12.373,2.678,38.822,3.259,60.711C446.575,403.363,520,404.045,520,404.045S517.922,332.983,517.922,313.633z
	 M158.691,256.975c-17.083-2.704-41.211-3.652-57.889,0.034c-23.237,5.136-58.723,37.274-58.723,56.624
	c0,19.35-2.078,90.412-2.078,90.412s73.425-0.682,127.102-1.142c0.58-21.889,0.848-49.956,3.259-60.711
	c3.797-16.938,19.948-38.341,40.627-50.022C198.886,274.255,175.716,259.671,158.691,256.975z M425.916,238.741
	c33.111,0,59.955-26.917,59.955-60.121c0-33.203-26.844-60.12-59.955-60.12c-33.113,0-59.956,26.917-59.956,60.12
	C365.961,211.824,392.803,238.741,425.916,238.741z M311.538,295.467c-16.677-3.685-40.806-3.741-57.89-1.036
	c-24.06,3.81-57.444,31.023-60.421,58.505c-1.578,14.572-2.272,70.366-2.272,87.014c14.566,0,181.385,1.55,181.385,1.55
	s2.06-68.268-2.078-90.412C366.708,332.067,334.776,300.602,311.538,295.467z"/>
</svg>
