<?xml version="1.0" encoding="utf-8"?>
<!-- Generator: Adobe Illustrator 24.0.1, SVG Export Plug-In . SVG Version: 6.00 Build 0)  -->
<svg version="1.1" id="レイヤー_1" xmlns="http://www.w3.org/2000/svg" xmlns:xlink="http://www.w3.org/1999/xlink" x="0px"
	 y="0px" viewBox="0 0 560 560" style="enable-background:new 0 0 560 560;" xml:space="preserve">
<style type="text/css">
	.st0{fill-rule:evenodd;clip-rule:evenodd;fill:#FF8096;}
	.st1{fill-rule:evenodd;clip-rule:evenodd;fill:#FF607B;}
	.st2{fill-rule:evenodd;clip-rule:evenodd;fill:#FFFFFF;}
</style>
<title>baloon</title>
<path class="st0" d="M280,40L280,40c132.6,0,240,107.4,240,240l0,0c0,132.5-107.4,240-240,240l0,0C147.4,520,40,412.6,40,280l0,0
	C40,147.4,147.4,40,280,40z"/>
<path class="st1" d="M280,66.7c117.8,0,213.3,95.5,213.3,213.3S397.8,493.3,280,493.3S66.7,397.8,66.7,280S162.2,66.7,280,66.7z"/>
<path class="st2" d="M158.7,182.3h20.2c6.9,0,8.2,0.1,11.1,0.4v-10.1c5.1-2,7.7-7.8,5.7-12.9c-2-5.1-7.8-7.7-12.9-5.7
	c-3.8,1.5-6.3,5.1-6.3,9.2c0,4.4,2.9,8.2,7.1,9.4c-2.1,0.1-3,0.1-4.8,0.1h-20v-4.5c-0.1-3,0-6.1,0.4-9.1h-11.8
	c0.4,2.9,0.6,5.9,0.5,8.8v4.8h-19.2c-6.5,0-8.1-0.1-11.2-0.6v10.6c3.7-0.4,7.3-0.6,11-0.4h19.4v41.5c0.1,3.2-0.1,6.5-0.5,9.7h11.9
	c-0.4-3.2-0.5-6.4-0.4-9.6v-41.6H158.7z M180.8,163.2c0.1-3.2,2.7-5.7,5.9-5.6c3.1,0.1,5.5,2.5,5.6,5.6c0,3.2-2.6,5.7-5.8,5.7
	C183.4,168.9,180.9,166.3,180.8,163.2z M113.4,221.6c3.6,1.3,7.1,3.2,10.1,5.6c6.4-8.4,11.9-20.8,14.7-33.4c0.2-0.8,0.4-1.3,0.4-1.5
	c0.1-0.2,0.2-0.7,0.4-1.2l-10.8-2.6C127,199.1,120.2,214.5,113.4,221.6L113.4,221.6z M193.3,221.3c-5.8-6.7-12.8-21.5-15.5-32.7
	l-10.3,2.6c0.6,1.3,1.1,2.6,1.4,3.9c4.1,13.6,8,22.5,14.3,32.1C186.4,224.9,189.7,222.9,193.3,221.3L193.3,221.3z M247.9,173.8
	c-13.7,10.4-29.3,18-45.9,22.3c2.5,2.9,4.5,6.2,5.9,9.8c16.1-5.7,21-7.9,31.2-13.9v30.2c0.1,3.1,0,6.2-0.5,9.3h12.2
	c-0.4-3.2-0.5-6.3-0.4-9.5v-36.6c7.4-5.3,14.3-11.2,20.6-17.7c1-1.1,2.1-2.1,3.2-3l-10.1-6.9C261.6,162,255.6,167.9,247.9,173.8
	L247.9,173.8z M304.3,227.5c13.6-2.8,24.4-7,33.3-12.9c12-7.8,20.3-17.9,27.7-33.6c-3.5-2.3-6.7-5.1-9.3-8.4
	c-2.2,6.1-5.2,11.9-8.9,17.2c-6.4,9.4-15.4,16.7-26,21c-8.2,3.5-17,5.6-25.9,6.4l3.2,11.8C300.4,228.3,302.3,227.8,304.3,227.5
	L304.3,227.5z M317.8,189.8l7.5-9.4c-6.7-6.3-12.2-10.2-22.6-16.6l-7.3,8.5C303.7,177,311.3,182.8,317.8,189.8L317.8,189.8z
	 M400.4,182.9v-16c-0.1-3,0-6,0.4-9h-12c0.4,2.9,0.6,5.8,0.5,8.8v55c0.1,3.2-0.1,6.4-0.5,9.6h12c-0.3-3.2-0.4-6.3-0.4-9.5v-22.7
	c0-2-0.1-3.9-0.3-5.8c1,0.5,2,1,3,1.5c14.6,6.6,23.7,11.5,31,16.4l6.1-10.1C427.4,193.9,414.1,187.8,400.4,182.9z M231,273.4
	c-26.3,0-44.2,17.6-44.2,48.3v49.9c0,30.7,17.9,48.3,44.2,48.3s44.2-17.6,44.2-48.3v-49.9C275.1,291,257.2,273.4,231,273.4z
	 M248.1,369.7c0,16.3-7,23.8-17.1,23.8s-17.1-7.5-17.1-23.8v-46c0-16.3,7-23.8,17.1-23.8s17.1,7.5,17.1,23.8V369.7z M305.6,301.4
	h20.9v116.2h27v-142h-48L305.6,301.4z"/>
</svg>
