<?xml version="1.0" encoding="utf-8"?>
<!-- Generator: Adobe Illustrator 24.0.1, SVG Export Plug-In . SVG Version: 6.00 Build 0)  -->
<svg version="1.1" id="レイヤー_1" xmlns="http://www.w3.org/2000/svg" xmlns:xlink="http://www.w3.org/1999/xlink" x="0px"
	 y="0px" viewBox="0 0 560 560" style="enable-background:new 0 0 560 560;" xml:space="preserve">
<style type="text/css">
	.st0{fill-rule:evenodd;clip-rule:evenodd;fill:#FF8096;}
	.st1{fill-rule:evenodd;clip-rule:evenodd;fill:#FF607B;}
	.st2{fill-rule:evenodd;clip-rule:evenodd;fill:#FFFFFF;}
</style>
<title>icon_ quotation</title>
<path class="st0" d="M280,40L280,40c132.6,0,240,107.4,240,240v0c0,132.5-107.4,240-240,240h0C147.4,520,40,412.6,40,280v0
	C40,147.4,147.4,40,280,40z"/>
<path class="st1" d="M280,66.7c117.8,0,213.3,95.5,213.3,213.3S397.8,493.3,280,493.3S66.7,397.8,66.7,280S162.2,66.7,280,66.7z"/>
<path class="st2" d="M223.6,273.4c-25.9,0-43.6,17.6-43.6,48.3v49.9c0,30.7,17.6,48.3,43.6,48.3s43.6-17.6,43.6-48.3v-49.9
	C267.1,291,249.5,273.4,223.6,273.4z M240.5,369.7c0,16.3-6.9,23.8-16.9,23.8s-16.9-7.5-16.9-23.8v-46c0-16.3,6.9-23.8,16.9-23.8
	s16.9,7.5,16.9,23.8V369.7z M350.9,339.6c10.3-4.4,16.9-12.3,16.9-28.6c0-22.3-15.8-37.6-40.9-37.6c-25.3,0-42.6,15-42.8,42.8h29.3
	c0-8.6,3.6-15.9,11.8-15.9c9.2,0,13.3,6.1,13.3,13.8c0,9.6-5.6,15-16.9,15h-7.1v25.7h9c12,0,20.6,6.1,20.6,20.3
	c0,10.7-6.4,18-15.6,18c-11.6,0-17.5-7.7-17.5-19.4h-29.3c0,9.2,2.4,18.1,6.9,26.1c7.5,12.7,21.2,20.1,40.4,20.1
	c28.5,0,44.3-19.6,44.3-43.5C373.4,360.1,367.7,344.8,350.9,339.6L350.9,339.6z M158.7,182.2h20.2c3.7-0.1,7.4,0,11.1,0.4v-10.1
	c5.1-2,7.6-7.8,5.6-12.9c-2-5.1-7.8-7.6-12.9-5.6c-3.8,1.5-6.3,5.1-6.3,9.1c0,4.4,2.9,8.2,7.1,9.4c-2.1,0.1-3,0.1-4.8,0.1h-20v-4.5
	c-0.1-3,0-6.1,0.4-9.1h-11.8c0.4,2.9,0.6,5.9,0.5,8.8v4.8h-19.2c-6.5,0-8.1-0.1-11.2-0.6v10.5c3.7-0.4,7.3-0.6,11-0.4h19.4v41.4
	c0.1,3.2-0.1,6.5-0.5,9.7h11.9c-0.4-3.2-0.5-6.4-0.4-9.6V182.2z M180.8,163.2c0.1-3.2,2.7-5.7,5.9-5.6c3,0.1,5.5,2.5,5.6,5.6
	c0,3.2-2.6,5.7-5.8,5.7C183.4,168.8,180.9,166.3,180.8,163.2z M113.4,221.4c3.6,1.3,7.1,3.2,10.1,5.6c6.4-8.4,11.9-20.7,14.7-33.3
	c0.2-0.8,0.4-1.3,0.4-1.5c0.1-0.2,0.2-0.7,0.4-1.2l-10.8-2.6C127,199,120.2,214.3,113.4,221.4L113.4,221.4z M193.3,221
	c-5.8-6.7-12.8-21.5-15.5-32.6l-10.3,2.6c0.6,1.3,1.1,2.6,1.4,3.9c4.1,13.6,8,22.4,14.3,32C186.4,224.6,189.7,222.7,193.3,221
	L193.3,221z M247.9,173.7c-13.7,10.4-29.3,18-45.9,22.2c2.5,2.9,4.5,6.2,5.9,9.8c16.1-5.6,21-7.9,31.2-13.9V222
	c0.1,3.1,0,6.2-0.5,9.2h12.2c-0.4-3.1-0.5-6.3-0.4-9.5v-36.5c7.4-5.3,14.3-11.1,20.6-17.6c1-1.1,2.1-2.1,3.2-3l-10.1-6.8
	C261.6,161.9,255.6,167.8,247.9,173.7L247.9,173.7z M304.3,227.3c13.6-2.8,24.4-7,33.3-12.8c12-7.8,20.3-17.9,27.7-33.5
	c-3.5-2.3-6.7-5.1-9.3-8.4c-2.2,6.1-5.2,11.8-8.9,17.1c-6.4,9.4-15.5,16.7-26,21c-8.2,3.5-17,5.6-25.9,6.3l3.2,11.8
	C300.4,228.1,302.3,227.6,304.3,227.3L304.3,227.3z M317.8,189.6l7.5-9.3c-6.7-6.2-12.2-10.2-22.6-16.5l-7.3,8.5
	C303.7,176.9,311.3,182.7,317.8,189.6L317.8,189.6z M400.4,182.8v-15.9c-0.1-3,0-6,0.4-9h-12c0.4,2.9,0.6,5.8,0.5,8.7v54.8
	c0.1,3.2-0.1,6.4-0.5,9.6h12c-0.3-3.2-0.4-6.3-0.4-9.5V199c0-1.9-0.1-3.9-0.3-5.8c1,0.5,2,1,3,1.5c14.6,6.6,23.7,11.5,31,16.3
	l6.1-10.1C427.4,193.7,414.1,187.7,400.4,182.8z"/>
</svg>
