<?xml version="1.0" encoding="utf-8"?>
<!-- Generator: Adobe Illustrator 23.0.1, SVG Export Plug-In . SVG Version: 6.00 Build 0)  -->
<svg version="1.1" id="レイヤー_1" xmlns="http://www.w3.org/2000/svg" xmlns:xlink="http://www.w3.org/1999/xlink" x="0px"
	 y="0px" viewBox="0 0 487.9 480" style="enable-background:new 0 0 487.9 480;" xml:space="preserve">
<path d="M264.3,104.3c-4.3,4.7-5.3,11.8-2.5,17.5c2.4,5,12.9,13.6,22.2,18.2c10.2,5,18.9,6.9,30.3,6.9c19,0,35-6.7,48.7-20.4
	c13.8-13.8,20.9-30.4,21.7-50.3c0.8-21.8-6.8-41.1-22.3-56.3c-12.1-12-27.8-19-44.1-19.7C313-0.1,312,0,309.9,0.8
	c-3.2,1.3-6.9,5-8.3,8.2c-2.4,5.6-1,13.1,3.3,17.4c2.9,2.9,5.4,3.9,11.8,4.7c3.2,0.4,7.3,1.1,9.2,1.7c17.1,5.2,29.1,22,29.2,40.5
	c0,30.5-30.4,51.1-57.1,38.8c-4.5-2-7-3.8-11.4-7.7c-4.4-4-7-5.2-11.3-5.2C270.8,99.3,267.5,100.8,264.3,104.3z"/>
<path d="M114.3,318.5c-0.9,2.4-1,3.7-0.9,6.7c0.2,3.5,0.5,4.4,3,9.5c29.4,57.4,90.7,88.6,152.2,77.4c33.2-6.1,63.4-24.2,85.5-51.2
	c5.5-6.7,12.7-17.8,16.6-25.4l3.4-6.7v-4.4c0-3.6-0.2-4.8-1.2-6.8c-4.5-9-15.5-11.5-22.9-5c-1.7,1.5-3.2,3.7-5.3,7.6
	c-5.8,11.2-12.1,19.8-20.7,28.7c-10,10.2-19.3,17-31.5,23c-11.3,5.6-22.6,8.9-35.7,10.7c-5.6,0.7-19.9,0.7-25.9,0
	c-19.8-2.5-37.9-9.9-54-21.8c-5.9-4.4-15.4-13.6-20-19.3c-4.5-5.6-10.6-14.7-13.6-20.7c-1.4-2.7-3.4-5.9-4.4-7c-4-4.4-10.6-6-16-3.8
	C119.1,311.3,115.8,314.7,114.3,318.5z"/>
<path d="M319.3,276.1c15.1,8.8,33.7,3,41.4-12.8c1.2-2.5,2.4-5.8,2.7-7.3c0.8-3.8,0.6-10.8-0.2-14.5c-2.5-10.8-11.7-20.2-22.2-22.7
	c-4.2-1-10.4-0.9-14.1,0.2c-4.8,1.4-8.9,3.9-12.6,7.2c-6.3,6-9.7,13.6-9.7,22.5c0,5.9,0.9,10,3.6,15.2
	C310.2,268.2,315.4,273.9,319.3,276.1z"/>
<path d="M157.7,280.2c7.5-0.5,14.3-3.8,19.5-9.2c5.7-6.1,8.4-12.9,8.5-21.2c0.1-6-0.6-9.1-3.3-14.7c-1.6-3.4-2.8-5.1-6.1-8.2
	c-4.4-4.4-8-6.5-13.5-7.9c-3.6-0.9-10-0.9-13.6,0c-8.3,2-15.8,8.1-19.7,16.3c-2.6,5.5-3.4,8.4-3.4,14.3
	C126.3,267.1,140.9,281.3,157.7,280.2z"/>
<path d="M481.7,274c-3.9-8.8-9.7-16.9-16.9-23.8l-4.8-4.6v-2.9c0-4.3-1.7-18.8-3.3-26.8c-4.4-23.7-12.5-46.8-23.6-67.3
	c-4-7.3-11.2-18.9-13.8-22.4c-3.9-4.9-10.4-7-16.2-5.1c-3.5,1.1-7.5,4.9-8.9,8.2c-2.6,6.2-1.8,10.7,3.7,19.1
	c5.5,8.3,8.9,14.5,13.2,23.4c12.2,25.3,18.5,51.7,19.3,81l0.3,11.2l5.4,3.2c13.7,8.1,20.7,19.4,21.5,34.6
	c0.9,16.1-8.1,31.5-22.4,38.3c-5.5,2.6-9.2,3.5-17.5,3.9c-6.8,0.3-6.9,0.4-7.6,1.6c-7.5,14-14.5,24.9-21.7,33.9
	C358.6,417,317,441,270.5,447.4c-37.9,5.3-78-2.5-111.8-21.8c-31.7-18.1-56.6-44.4-74.5-78.9c-3-5.9-3.3-6.1-4.6-5.9
	c-0.8,0.1-4.5,0.4-8.2,0.6c-5.2,0.2-7.7,0.1-10.4-0.5c-7.9-1.7-13.7-4.9-19.6-10.8c-7.5-7.6-11.2-15.7-11.8-26.6
	c-0.7-11.9,3.9-23.5,12.3-31.6c4.1-4,7.8-6.2,15.3-9.3c5.3-2.2,5.6-2.4,5.6-3.9c0.1-10,1.6-26.5,3.6-36.9
	c8.3-46.6,33.7-88.9,70.5-117.6C163.5,83.5,194.2,71,228,67.1c6.5-0.7,26.3-0.8,36.7-0.2c7.2,0.4,7.3,0.4,10.1-0.8
	c8.1-3.8,11.4-13.3,7.3-21.6c-1.3-2.8-5.4-6.4-8.3-7.3c-1.3-0.4-4.8-1-7.8-1.3c-6-0.6-23.2-1-27.6-0.8c-21.5,1.4-37.9,4.4-55.5,10.2
	c-18.4,6-34.2,13.7-50.6,24.6c-13.5,9-23.5,17.3-34.9,29c-35.9,36.7-57.8,84.7-63,137.1l-0.3,3.3l-4.5,3.2
	c-5.4,3.9-13.7,12.4-17.4,17.8c-5.3,7.9-9,17-11.2,26.8c-1.4,6.7-1.5,20.6-0.2,27.4C7,345.1,30.2,368,59.5,371.8l4.7,0.6l4.3,6.9
	c31.2,49.9,80.8,84.8,136.9,96.4c31.9,6.6,66.5,5.4,97.7-3.5c51.3-14.6,95-48,124.1-94.9c2-3.3,2-3.3,4.7-3.7
	c3.7-0.5,11.5-3,16.3-5.4c13.7-6.5,25.9-18.9,32.7-33C489.9,316.4,490.3,293.3,481.7,274z"/>
</svg>
