<?xml version="1.0" encoding="utf-8"?>
<!-- Generator: Adobe Illustrator 23.0.1, SVG Export Plug-In . SVG Version: 6.00 Build 0)  -->
<svg version="1.1" id="レイヤー_1" xmlns="http://www.w3.org/2000/svg" xmlns:xlink="http://www.w3.org/1999/xlink" x="0px"
	 y="0px" viewBox="0 0 667.4 480" style="enable-background:new 0 0 667.4 480;" xml:space="preserve">
<rect x="289.1" y="336.5" width="89.3" height="49.9"/>
<rect x="177.6" y="192.2" width="89.3" height="49.9"/>
<rect x="177.6" y="336.5" width="89.3" height="49.9"/>
<rect x="66" y="264.5" width="89.3" height="49.9"/>
<rect x="66" y="336.5" width="89.3" height="49.9"/>
<rect x="289.1" y="264.5" width="89.3" height="49.9"/>
<rect x="66" y="192.2" width="89.3" height="49.9"/>
<rect x="177.6" y="264.5" width="89.3" height="49.9"/>
<rect x="512.1" y="192.2" width="89.3" height="49.9"/>
<rect x="512.1" y="264.5" width="89.3" height="49.9"/>
<path d="M642.4,30.9h-99.7V17.5c0-9.6-7.8-17.5-17.5-17.5c-9.6,0-17.5,7.9-17.5,17.5V31h-60.9V17.5C446.8,7.9,439,0,429.2,0
	c-9.6,0-17.5,7.9-17.5,17.5V31h-60.9V17.5C350.8,7.9,343,0,333.3,0c-9.6,0-17.5,7.9-17.5,17.5V31h-60.9V17.5
	c0-9.6-7.8-17.5-17.5-17.5c-9.6,0-17.5,7.9-17.5,17.5V31H159V17.5C159,7.9,151.2,0,141.5,0C131.9,0,124,7.9,124,17.5V31H25
	C11.3,31,0,42.3,0,56v399c0,13.8,11.3,25,25,25h517.4c3.8,0,7.4-1.4,10-3.9L662.6,375c3.1-2.8,4.9-6.8,4.9-11V55.9
	C667.4,42.1,656.2,30.9,642.4,30.9z M638.2,354.3H538.1v94.4l-1.5,1.4H29.8V60.8h94.8V76c0,9.6,7.9,17.5,17.5,17.5
	s17.5-7.9,17.5-17.5V60.8h60.9V76c0,9.6,7.9,17.5,17.5,17.5s17.5-7.9,17.5-17.5V60.8h60.9V76c0,9.6,7.9,17.5,17.5,17.5
	s17.5-7.9,17.5-17.5V60.8h60.9V76c0,9.6,7.9,17.5,17.5,17.5s17.5-7.9,17.5-17.5V60.8h60.9V76c0,9.6,7.9,17.5,17.5,17.5
	s17.5-7.9,17.5-17.5V60.8H638v293.5H638.2z"/>
<rect x="400.6" y="336.5" width="89.3" height="49.9"/>
<rect x="400.6" y="192.2" width="89.3" height="49.9"/>
<rect x="289.1" y="192.2" width="89.3" height="49.9"/>
<rect x="400.6" y="264.5" width="89.3" height="49.9"/>
</svg>
