<?xml version="1.0" encoding="utf-8"?>
<!-- Generator: Adobe Illustrator 24.0.1, SVG Export Plug-In . SVG Version: 6.00 Build 0)  -->
<svg version="1.1" id="レイヤー_1" xmlns="http://www.w3.org/2000/svg" xmlns:xlink="http://www.w3.org/1999/xlink" x="0px"
	 y="0px" viewBox="0 0 560 560" style="enable-background:new 0 0 560 560;" xml:space="preserve">
<style type="text/css">
	.st0{fill-rule:evenodd;clip-rule:evenodd;}
</style>
<path id="menu_04.svg" class="st0" d="M280,520C147.5,520,40,412.5,40,280S147.5,40,280,40s240,107.5,240,240
	C519.8,412.5,412.5,519.8,280,520z M280,75.8C167.2,76,76,167.6,76.1,280.3c0.2,112.8,91.8,204,204.5,203.9
	C393.3,484,484.5,392.7,484.5,280C484.3,167.2,392.8,75.9,280,75.8z M233.6,233.4c0,17.2-13.9,31.2-31.2,31.2
	c-17.2,0-31.2-13.9-31.2-31.2c0-17.2,13.9-31.2,31.1-31.2c17.2-0.1,31.3,13.8,31.3,31C233.7,233.3,233.7,233.4,233.6,233.4
	L233.6,233.4z M388.7,233.4c0,17.2-13.9,31.2-31.2,31.2c-17.2,0-31.2-13.9-31.2-31.2c0-17.2,13.9-31.2,31.1-31.2
	c17.2-0.1,31.3,13.8,31.3,31C388.8,233.3,388.8,233.4,388.7,233.4L388.7,233.4z M280,414c-53.8,0-102.5-32.2-123.4-81.8
	c-3.1-7.3,0.2-15.6,7.5-18.8c7.2-3.1,15.5,0.2,18.6,7.4c0,0,0,0.1,0.1,0.1c22.8,53.8,84.9,78.8,138.7,56c25.2-10.7,45.3-30.8,56-56
	c3-7.2,11.3-10.6,18.5-7.6c0,0,0.1,0,0.1,0.1c7.2,3.2,10.6,11.5,7.5,18.8C382.5,381.8,333.9,414.1,280,414z"/>
</svg>
