<svg xmlns="http://www.w3.org/2000/svg" viewBox="0 0 585.41 241.141"><defs><style>.cls-1,.cls-2{fill:#fff;}.cls-1,.cls-3{fill-rule:evenodd;}.cls-3{fill:#003d5c;}</style></defs><title>アートボード 3</title><path class="cls-1" d="M218.006,241.141a11,11,0,0,1,0-22h150a11,11,0,0,1,0,22Z"/><path class="cls-2" d="M525.219,169.444a28.522,28.522,0,0,1-5.667-.451,9.5,9.5,0,0,1-7.952-9.509,10.226,10.226,0,0,1,.444-3,9.476,9.476,0,0,1-6.64-9.02,9.967,9.967,0,0,1,2.466-6.514A53.947,53.947,0,0,0,514,131.6a9.107,9.107,0,0,1-7.1-9.126,9.207,9.207,0,0,1,7.277-9.3,8.7,8.7,0,0,1-.084-1.209c0-.11,0-.218.006-.326a9.334,9.334,0,0,1-4.991-8.457c0-5.432,3.834-9.529,8.919-9.529h14.456c6.663,0,10.714,3.039,12.464,6.777.545-1,1.036-2,1.461-3a9.929,9.929,0,0,1,18.847,1.69h10.31c4.963,0,8.707,3.973,8.707,9.24,0,5.05-3.441,8.91-8.1,9.219q-.476.82-1,1.627,1.362.463,2.811.857a9.749,9.749,0,0,1,3.068,17.589,15.683,15.683,0,0,1,1,7.1,50.536,50.536,0,0,1-2.025,11.423c-2.389,7.951-7.46,11.821-15.5,11.821a33.536,33.536,0,0,1-6.191-.612l-.135-.028a9.679,9.679,0,0,1-5.811-3.681A39.99,39.99,0,0,1,545.105,168a9.816,9.816,0,0,1-10.892-1.692A12.98,12.98,0,0,1,525.219,169.444ZM538.2,149.738q.792-.414,1.5-.856a8.5,8.5,0,0,1-1.5-.729Z"/><path class="cls-2" d="M469.442,170.6c-5.491,0-9.631-3.786-9.631-8.808v-.3a100.432,100.432,0,0,1-17.088,6.5l-.307.086-.471.08a10.993,10.993,0,0,1-1.984.2,9.194,9.194,0,0,1-9.275-9.311,9.071,9.071,0,0,1,4.991-8.181,9.126,9.126,0,0,1-3.14-7.011,8.787,8.787,0,0,1,7.582-8.96c-.022-.273-.034-.55-.034-.831a9.733,9.733,0,0,1,.1-1.376,8.95,8.95,0,0,1-5.08-8.271,9.408,9.408,0,0,1,1.547-5.24,9.125,9.125,0,0,1-4.894-8.3,8.786,8.786,0,0,1,8.509-9.095c-.024-.255-.035-.511-.035-.769a9.423,9.423,0,0,1,9.489-9.095,9.559,9.559,0,0,1,5.579,1.8,9.624,9.624,0,0,1,7.88-3.748,10.052,10.052,0,0,1,6.065,1.928,10.184,10.184,0,0,1,6.112-1.928,9.627,9.627,0,0,1,7.838,3.694,9.4,9.4,0,0,1,5.976-2.11c5.221,0,9.632,4.2,9.632,9.168a8.178,8.178,0,0,1-.07,1.056h.051c4.963,0,8.706,3.91,8.706,9.1a9.1,9.1,0,0,1-4.171,7.908,9.356,9.356,0,0,1,1.822,5.627,8.876,8.876,0,0,1-5.961,8.615c.033.338.051.682.051,1.032,0,.289-.012.575-.036.856a8.676,8.676,0,0,1,7.371,8.935,9.24,9.24,0,0,1-2.344,6.3,9.538,9.538,0,0,1-4.939,17.623,12.755,12.755,0,0,1-2.175-.222l-.249-.041-.268-.066a95.435,95.435,0,0,1-17.513-6.311v.64C479.074,166.81,474.934,170.6,469.442,170.6Z"/><path class="cls-2" d="M399.723,166.636c-12.72,0-21.952-7.337-21.952-17.447a17.585,17.585,0,0,1,.1-1.854c-.121,0-.242.007-.363.007a9.985,9.985,0,0,1-9.987-9.96,10.184,10.184,0,0,1,4.072-8.1,133.2,133.2,0,0,0,13.1-12.026h-.025a9.647,9.647,0,0,1-9.6-9.9,9.519,9.519,0,0,1,9.189-9.736c5.583-.352,12.872-1.187,19.517-2.237a13.143,13.143,0,0,1,1.91-.145,10.628,10.628,0,0,1,10.937,10.535,11.716,11.716,0,0,1-2.463,6.958l-.06.08c-1.407,1.832-2.887,3.677-4.393,5.484,11.492,1.963,18.879,10.181,18.879,21.676C428.581,155.921,416.983,166.636,399.723,166.636Zm4.106-29.8a19.312,19.312,0,0,1,4.4,3.853c.013-.211.019-.425.019-.645C408.25,137.387,405.419,136.9,403.829,136.838Z"/><path class="cls-2" d="M334.142,168.148c-10.353,0-27.72-2.481-27.72-19.1a17.016,17.016,0,0,1,4.53-11.608,9.791,9.791,0,0,1-2.764-16.605,9.813,9.813,0,0,1-2.692-6.849,9.182,9.182,0,0,1,8.774-9.449c1.757-.1,3.686-.263,5.7-.48q-.106-.423-.2-.837a9.749,9.749,0,0,1-.309-2.337c0-5.141,4.357-9.167,9.917-9.167a9.5,9.5,0,0,1,9.526,7.213c.16.61.328,1.238.5,1.891,2.383-.53,4.5-1.08,6.209-1.614a10,10,0,0,1,3.129-.507,9.628,9.628,0,0,1,9.561,9.672,9.266,9.266,0,0,1-.77,3.735,9.8,9.8,0,0,1,7.25,9.512,9.364,9.364,0,0,1-6.851,8.968c-1.391.45-2.867.888-4.415,1.309,1.021,1.392,2.052,2.705,3.078,3.914a10.507,10.507,0,0,1,2.491,6.832,9.751,9.751,0,0,1-9.562,9.809,9.71,9.71,0,0,1-7.211,15.316A77.3,77.3,0,0,1,334.142,168.148Z"/><path class="cls-2" d="M277.687,165.354c-.271,0-.549-.009-.831-.03-16.784-1.257-28.5-12.924-28.5-28.374a32.245,32.245,0,0,1,3.526-14.52c-2.295.34-12.419,1.846-15.094,2.241a11.269,11.269,0,0,1-1.607.118,9.921,9.921,0,0,1-9.969-10.086,9.818,9.818,0,0,1,8.969-9.915c14.259-1.87,32.715-3.918,48.178-5.347.384-.03.673-.041.956-.041a9.746,9.746,0,0,1,9.869,9.831,9.969,9.969,0,0,1-.96,4.3c.076.06.355.286.355.286a42.019,42.019,0,0,1,6.391,6.873,9.394,9.394,0,0,1,1.976,5.75,8.789,8.789,0,0,1-7.751,8.669,8.773,8.773,0,0,1-15.613,2.064,45.748,45.748,0,0,0-4.633-5.36l-.141-.143-.131-.151a8.974,8.974,0,0,1-1.794-3.146,14.667,14.667,0,0,0-2.267,8.362c0,1.889,0,6.907,10.184,8.157a10.17,10.17,0,0,1,9.114,10.2,10.362,10.362,0,0,1-2.618,6.931,10.058,10.058,0,0,1-7.612,3.33Z"/><path class="cls-2" d="M171.659,169.444c-5.654,0-9.917-3.88-9.917-9.024V140.913a9.544,9.544,0,0,1-2.118.237,10.145,10.145,0,0,1-10.13-9.887,10.021,10.021,0,0,1,2.731-6.8c5.244-6,10.88-16.293,14.033-25.644a9.908,9.908,0,0,1,9.531-6.747,10.482,10.482,0,0,1,8.271,3.942A9.982,9.982,0,0,1,192.31,92c5.693,0,9.987,4.1,9.987,9.528v9.37q2.3-1.665,4.533-3.531a9.886,9.886,0,0,1,6.415-2.407,10.218,10.218,0,0,1,9.988,10.176,9.627,9.627,0,0,1-3.94,7.8,104.84,104.84,0,0,1-17,10.857v14.712c.311.006.66.009,1.05.009a23.287,23.287,0,0,0,3.756-.213c.055-.269.12-.653.184-1.19a9.438,9.438,0,0,1,9.59-8.388,10.276,10.276,0,0,1,7.695,3.312,9.182,9.182,0,0,1,2.255,7.249c-1.679,15.173-10.573,18.285-23.409,18.285-7.373,0-21.1,0-21.1-15.431V113.166c-.671,1.5-1.393,3.02-2.162,4.548a9.007,9.007,0,0,1,1.415,4.909v37.8C181.575,165.564,177.312,169.444,171.659,169.444Z"/><path class="cls-2" d="M112.969,170.6c-5.653,0-9.916-3.91-9.916-9.1v-5.879H83.275a8.955,8.955,0,0,1-8.849-9.24,9.5,9.5,0,0,1,2.2-6.228,9.416,9.416,0,0,1-1.061-4.355,9.248,9.248,0,0,1,5.752-8.529c1.606-.709,3.261-1.52,4.844-2.367-1.078-1.1-2.542-2.514-3.579-3.458a9,9,0,0,1-3.029-6.6,8.55,8.55,0,0,1,.062-1.029,9.226,9.226,0,0,1-3.623-7.467,8.883,8.883,0,0,1,8.777-9.167h18.482c.9-4.173,4.747-7.128,9.646-7.128s8.747,2.955,9.646,7.128h19.194a8.883,8.883,0,0,1,8.778,9.167,9.2,9.2,0,0,1-3.851,7.631c0,.1,0,.192,0,.288a9.045,9.045,0,0,1-2.374,6.08c-.96,1.094-2.057,2.221-3.236,3.329a70.913,70.913,0,0,1,5.789,4.6,9.653,9.653,0,0,1,3.453,7.306,9.066,9.066,0,0,1-1,4.119,9.369,9.369,0,0,1,2.636,6.68,8.885,8.885,0,0,1-8.919,9.24H122.815V161.5C122.815,166.686,118.582,170.6,112.969,170.6Z"/><path class="cls-2" d="M37.4,169.228a9.784,9.784,0,0,1-9.742-8.208,9.839,9.839,0,0,1-3.807-2.25,54.862,54.862,0,0,1-8.228,7.148,10.335,10.335,0,0,1-5.852,1.942,9.626,9.626,0,0,1-9.632-9.6,10.1,10.1,0,0,1,4.528-8.21A39.59,39.59,0,0,0,11.18,144q-.841-.831-1.725-1.656a9.72,9.72,0,0,1-3.045-5.456A9.669,9.669,0,0,1,.5,128.166a9.515,9.515,0,0,1,2.854-6.718c.593-.648,1.2-1.376,1.8-2.148A9.362,9.362,0,0,1,0,110.6c0-5.3,3.918-9.456,8.919-9.456H13.53v-1.127c0-5.227,4.2-9.168,9.774-9.168s9.774,3.941,9.774,9.168v1.127h3.827a8.736,8.736,0,0,1,4.753,1.366v-1.989c0-5.227,4.232-9.168,9.845-9.168,5.572,0,9.774,3.941,9.774,9.168v7.888c5.1.008,13.6,1.807,13.6,13.71A237.153,237.153,0,0,1,72.9,154.14c-1.838,11.887-9.045,14.368-14.771,14.368a31.326,31.326,0,0,1-5.977-.54l-.16-.033a10.253,10.253,0,0,1-5.8-3.506q-.69.768-1.434,1.554l-.093.1A10.206,10.206,0,0,1,37.4,169.228Zm-1.75-27.2c.435.535.859,1.067,1.267,1.592a41.987,41.987,0,0,0,3.388-10.283,9.725,9.725,0,0,1-1.5.8c-.054.252-.118.506-.191.765l-.077.251A50.51,50.51,0,0,1,35.653,142.03Z"/><path class="cls-2" d="M405.78,73.354c-.27,0-.549-.009-.831-.03-16.784-1.257-28.5-12.924-28.5-28.374a32.258,32.258,0,0,1,3.526-14.52c-2.351.347-12.474,1.854-15.093,2.241a11.293,11.293,0,0,1-1.608.118A9.92,9.92,0,0,1,353.31,22.7a9.818,9.818,0,0,1,8.968-9.915c14.26-1.87,32.716-3.918,48.178-5.347.384-.03.673-.041.955-.041a9.746,9.746,0,0,1,9.87,9.831,9.976,9.976,0,0,1-.96,4.3c.076.059.356.285.356.285a41.978,41.978,0,0,1,6.39,6.873,9.394,9.394,0,0,1,1.976,5.75,8.789,8.789,0,0,1-7.751,8.669,8.772,8.772,0,0,1-15.612,2.064,45.861,45.861,0,0,0-4.634-5.36l-.142-.144-.132-.152a9.005,9.005,0,0,1-1.792-3.143,14.669,14.669,0,0,0-2.266,8.361c0,1.889,0,6.907,10.182,8.157a10.172,10.172,0,0,1,9.116,10.2,10.362,10.362,0,0,1-2.618,6.931,10.059,10.059,0,0,1-7.613,3.33Z"/><path class="cls-2" d="M299.752,77.444c-5.653,0-9.917-3.88-9.917-9.024V48.913a9.537,9.537,0,0,1-2.118.237,10.145,10.145,0,0,1-10.13-9.887,10.021,10.021,0,0,1,2.731-6.8c5.244-6,10.881-16.293,14.033-25.644A9.908,9.908,0,0,1,303.882.072a10.479,10.479,0,0,1,8.271,3.943A9.98,9.98,0,0,1,320.4,0c5.694,0,9.988,4.1,9.988,9.528V18.9q2.3-1.665,4.533-3.531a9.886,9.886,0,0,1,6.415-2.407,10.218,10.218,0,0,1,9.987,10.176,9.625,9.625,0,0,1-3.94,7.8,104.91,104.91,0,0,1-17,10.856V56.508c.31.006.659.009,1.049.009A23.413,23.413,0,0,0,335.2,56.3c.056-.269.12-.653.185-1.191a9.436,9.436,0,0,1,9.59-8.387,10.279,10.279,0,0,1,7.695,3.313,9.177,9.177,0,0,1,2.254,7.249c-1.68,15.172-10.572,18.284-23.408,18.284-7.373,0-21.1,0-21.1-15.431V21.166c-.671,1.5-1.393,3.02-2.162,4.548a9,9,0,0,1,1.415,4.909v37.8C309.668,73.564,305.4,77.444,299.752,77.444Z"/><path class="cls-2" d="M259.928,71.612c-6.117,0-10.557-4.249-10.557-10.1V24.023h-6.533a9.371,9.371,0,0,1-9.489-9.671,9.371,9.371,0,0,1,9.489-9.672h34.11a9.372,9.372,0,0,1,9.489,9.672,9.372,9.372,0,0,1-9.489,9.671h-6.6V61.509C270.343,67.363,265.963,71.612,259.928,71.612Z"/><path class="cls-2" d="M211.46,72.116c-17.857,0-29.856-13.781-29.856-34.294s12-34.294,29.856-34.294A30.178,30.178,0,0,1,230,9.344l.083.061c2.163,1.619,5.038,4.327,5.038,9.122a10.326,10.326,0,0,1-10.2,10.176,10.2,10.2,0,0,1-7.553-3.09,7.633,7.633,0,0,0-5.905-2.525c-6.5,0-8.812,7.937-8.812,14.734,0,8.951,3.459,14.735,8.812,14.735a9.863,9.863,0,0,0,7.443-2.7,10.391,10.391,0,0,1,7.013-2.771,9.913,9.913,0,0,1,6.444,17.569C226.7,69.606,219.671,72.116,211.46,72.116Z"/><path class="cls-2" d="M169.132,71.612c-6.118,0-10.558-4.249-10.558-10.1V14.136c0-5.855,4.44-10.1,10.558-10.1,6.035,0,10.415,4.249,10.415,10.1V61.509C179.547,67.363,175.167,71.612,169.132,71.612Z"/><path class="cls-3" d="M169.132,65.612c2.564,0,4.415-1.44,4.415-4.1V14.136c0-2.664-1.851-4.1-4.415-4.1s-4.557,1.44-4.557,4.1V61.509C164.575,64.172,166.569,65.612,169.132,65.612Zm42.328.5c6.48,0,12.177-1.8,16.948-5.975a4.011,4.011,0,0,0,1.567-3.312,3.873,3.873,0,0,0-4.059-3.744,4.429,4.429,0,0,0-2.991,1.224,15.751,15.751,0,0,1-11.465,4.248c-8.474,0-14.812-7.7-14.812-20.735,0-12.959,6.2-20.734,14.812-20.734a13.594,13.594,0,0,1,10.112,4.247,4.373,4.373,0,0,0,7.548-2.807c0-1.728-.712-2.88-2.635-4.32a24.122,24.122,0,0,0-15.025-4.68c-13.387,0-23.855,10.079-23.855,28.294C187.605,56.109,198,66.116,211.46,66.116Zm31.378-48.092h12.533V61.509c0,2.663,1.994,4.1,4.558,4.1s4.415-1.44,4.415-4.1V18.024h12.6a3.382,3.382,0,0,0,3.489-3.672,3.382,3.382,0,0,0-3.489-3.672h-34.11a3.383,3.383,0,0,0-3.489,3.672A3.383,3.383,0,0,0,242.838,18.024Zm88.674,51.548c11.963,0,16.307-2.664,17.446-12.959.285-2.52-1.851-3.888-3.987-3.888a3.433,3.433,0,0,0-3.632,3.1c-.641,5.4-2.279,6.7-9.9,6.7-6.2,0-7.05-.72-7.05-3.312V37.966A92.022,92.022,0,0,0,343.76,26.159a3.673,3.673,0,0,0,1.567-3.024,4.28,4.28,0,0,0-3.988-4.175,3.883,3.883,0,0,0-2.564,1.008,81.688,81.688,0,0,1-14.384,9.719V9.528C324.391,7.152,322.4,6,320.4,6s-3.988,1.152-3.988,3.528V60.141C316.415,67.2,319.264,69.572,331.512,69.572ZM287.718,43.15a4.062,4.062,0,0,0,2.991-1.44,67.656,67.656,0,0,0,5.127-6.7V68.42c0,2.016,1.993,3.024,3.916,3.024,1.994,0,3.917-1.008,3.917-3.024v-37.8a3.227,3.227,0,0,0-3.133-3.168,97.053,97.053,0,0,0,7.4-16.415,4.1,4.1,0,0,0,.214-1.3c0-2.232-2.136-3.672-4.273-3.672a3.854,3.854,0,0,0-3.845,2.664c-3.2,9.5-9.115,20.735-15.239,27.718a3.886,3.886,0,0,0,2.92,6.7ZM416.777,26.375a3.4,3.4,0,0,0-2.137-.864,2.872,2.872,0,0,0-2.991,2.664,2.391,2.391,0,0,0,.784,1.728c1.638,1.728,3.631,3.888,5.269,5.975a3.086,3.086,0,0,0,2.493,1.3,2.8,2.8,0,0,0,2.848-2.736,3.377,3.377,0,0,0-.783-2.159A35.99,35.99,0,0,0,416.777,26.375Zm-52.767.36c10.254-1.512,21.577-3.24,30.122-4.392v.144c-8.047,6.408-11.679,14.9-11.679,22.463,0,12.239,9.471,21.382,22.93,22.39a4.266,4.266,0,0,0,.783-8.5c-9.969-1.224-15.452-6.12-15.452-14.111,0-6.84,2.35-14.327,13.458-20.735a24.2,24.2,0,0,1,7.834-2.88,3.875,3.875,0,0,0,3.275-3.887,3.759,3.759,0,0,0-4.272-3.816c-14.812,1.368-33.184,3.384-48,5.328a3.853,3.853,0,0,0-3.7,3.959A3.956,3.956,0,0,0,364.01,26.735Zm40.59,7.2a2.571,2.571,0,0,0,.712,1.655,52.183,52.183,0,0,1,5.269,6.12,2.847,2.847,0,0,0,2.35,1.368,2.92,2.92,0,0,0,2.849-2.88,3.033,3.033,0,0,0-.641-1.944,35.847,35.847,0,0,0-5.555-6.263,2.973,2.973,0,0,0-4.984,1.944ZM60.761,114.415l-5.484.144V100.52c0-2.16-1.922-3.167-3.774-3.167-1.922,0-3.845,1.007-3.845,3.167V114.7l-5.127.072a3.122,3.122,0,0,0-3.062,3.384,3.217,3.217,0,0,0,3.2,3.456l4.914-.072c-.5,15.911-4.487,26.782-12.6,35.061a4.391,4.391,0,0,0-1.425,3.024,3.748,3.748,0,0,0,3.846,3.6A4.239,4.239,0,0,0,40.4,161.86a60.672,60.672,0,0,0,4.415-5.183,51.862,51.862,0,0,0,7.548-15.767A75.127,75.127,0,0,0,55.206,121.4l3.988-.072c1.709,0,2.136.432,2.136,1.872a188.168,188.168,0,0,1-1.922,28.726c-.356,2.16-1.069,2.736-2.35,2.736a16.392,16.392,0,0,1-2.706-.288,3.65,3.65,0,0,0-4.344,3.815,3.862,3.862,0,0,0,3.276,3.888,25.251,25.251,0,0,0,4.842.432c4.771,0,7.762-2.3,8.83-9.215a229.674,229.674,0,0,0,1.923-31.174C68.879,116.863,67.027,114.271,60.761,114.415ZM13.406,117.8a47.333,47.333,0,0,1-5.7,7.776,3.637,3.637,0,0,0-1.21,2.591,3.781,3.781,0,0,0,6.622,2.232,47.309,47.309,0,0,0,6.409-9,3.635,3.635,0,0,0,.5-1.8,3.7,3.7,0,0,0-3.774-3.456A3.134,3.134,0,0,0,13.406,117.8Zm19.227-1.008a3.851,3.851,0,0,0-2.564-1.08,3.609,3.609,0,0,0-3.632,3.312,3.058,3.058,0,0,0,.926,2.088,71.711,71.711,0,0,1,5.056,6.119,3.352,3.352,0,0,0,2.777,1.656,3.9,3.9,0,0,0,3.632-3.815,3.289,3.289,0,0,0-.641-2.088A39.373,39.373,0,0,0,32.633,116.791ZM8.92,114.127H36.905c1.994,0,2.92-1.728,2.92-3.527,0-1.728-.926-3.456-2.92-3.456H27.078v-7.128c0-2.16-1.851-3.167-3.774-3.167-1.851,0-3.774,1.007-3.774,3.167v7.128H8.92C7,107.144,6,108.872,6,110.6,6,112.4,7,114.127,8.92,114.127Zm24.425,34.7c-1.5-2.016-3.2-4.1-4.914-6.048a51.907,51.907,0,0,0,4.415-9.5,4.922,4.922,0,0,0,.214-1.368,3.675,3.675,0,0,0-3.774-3.6,3.423,3.423,0,0,0-3.347,2.448,54.069,54.069,0,0,1-2.777,6.264c-1.5-1.512-2.991-2.952-4.415-4.176a4.4,4.4,0,0,0-2.849-1.152,3.54,3.54,0,0,0-2.35,6.264c1.852,1.728,3.7,3.6,5.555,5.687a49.935,49.935,0,0,1-10.967,11.3,4.137,4.137,0,0,0-1.994,3.311,3.653,3.653,0,0,0,3.632,3.6A4.318,4.318,0,0,0,12.2,161a54.872,54.872,0,0,0,11.821-11.663c1.211,1.512,2.35,2.952,3.418,4.464a3.813,3.813,0,0,0,3.062,1.656,3.945,3.945,0,0,0,3.846-3.888A4.481,4.481,0,0,0,33.345,148.829ZM81.566,135.8a3.346,3.346,0,0,0,3.276,3.384,4.446,4.446,0,0,0,1.566-.36,69.83,69.83,0,0,0,13.1-7.56,3.108,3.108,0,0,0,1.353-2.448,3.433,3.433,0,0,0-3.347-3.239,3.642,3.642,0,0,0-1.994.647A72.371,72.371,0,0,1,83.7,132.774,3.285,3.285,0,0,0,81.566,135.8Zm9.827-14.111a3.663,3.663,0,0,0,2.777,1.44,3.547,3.547,0,0,0,3.49-3.456,3.683,3.683,0,0,0-1.14-2.52,49.222,49.222,0,0,0-5.127-4.752,3.8,3.8,0,0,0-2.279-.792,3.534,3.534,0,0,0-3.56,3.24,3,3,0,0,0,1.068,2.16C88.046,118.3,90.254,120.463,91.393,121.687Zm48.423-5.328a3.074,3.074,0,0,0,.854-2.088,3.513,3.513,0,0,0-3.489-3.239,3.209,3.209,0,0,0-2.492,1.223,53.886,53.886,0,0,1-6.979,6.192,3.151,3.151,0,0,0-1.424,2.592,3.445,3.445,0,0,0,3.347,3.312,3.283,3.283,0,0,0,2.065-.72A49.825,49.825,0,0,0,139.816,116.359Zm-9.542,15.263c2.706,1.944,5.981,4.536,7.9,6.264a3.8,3.8,0,0,0,2.635,1.08,3.535,3.535,0,0,0,3.489-3.384,3.73,3.73,0,0,0-1.424-2.808,66.531,66.531,0,0,0-8.474-6.336,3.549,3.549,0,0,0-5.483,2.808A2.891,2.891,0,0,0,130.274,131.622Zm12.746,11.519H116.815v-5.4c2.065-.216,4.13-.5,6.2-.792.143.36.356.648.5,1.008a3.214,3.214,0,0,0,6.124-1.08,4.037,4.037,0,0,0-.57-1.872,78.291,78.291,0,0,0-4.913-7.415,3.692,3.692,0,0,0-2.991-1.656,2.84,2.84,0,0,0-2.92,2.591,2.667,2.667,0,0,0,.57,1.512c.356.5.712,1.008,1,1.512-2.421.288-4.842.432-7.264.648a109.47,109.47,0,0,0,10.468-12.959,3.261,3.261,0,0,0,.641-1.8,3.441,3.441,0,0,0-6.409-1.368,70.958,70.958,0,0,1-4.2,5.976c-.855-.864-1.78-1.8-2.706-2.664a42.36,42.36,0,0,0,4.771-6.623,3.012,3.012,0,0,0,.427-1.44,2.468,2.468,0,0,0-.783-1.8h26.989a3.2,3.2,0,0,0,0-6.336h-25v-4.1c0-2.016-1.923-3.023-3.846-3.023s-3.845,1.007-3.845,3.023v4.1H84.771a3.2,3.2,0,0,0,0,6.336h24.923a2.568,2.568,0,0,0-.5.72,40.341,40.341,0,0,1-3.561,5.327,3.526,3.526,0,0,0-2.136-.648,3.181,3.181,0,0,0-3.2,3.1,3.385,3.385,0,0,0,1.5,2.736,60.725,60.725,0,0,1,7.192,6.407c-1.567,1.872-3.276,3.672-5.056,5.472-1.139,0-2.279.072-3.347.072a2.909,2.909,0,0,0-3.062,3.024,3.124,3.124,0,0,0,3.418,3.168q3.846-.108,8.118-.432v4.679H83.275c-1.923,0-2.848,1.584-2.848,3.24a2.958,2.958,0,0,0,2.848,3.24h25.778V161.5c0,2.088,1.923,3.1,3.917,3.1,1.922,0,3.845-1.008,3.845-3.1V149.621H143.02a2.97,2.97,0,0,0,2.92-3.24C145.94,144.725,145.014,143.141,143.02,143.141Zm77.845,5.472c.285-2.52-1.851-3.888-3.988-3.888a3.432,3.432,0,0,0-3.631,3.1c-.641,5.4-2.279,6.7-9.9,6.7-6.2,0-7.049-.72-7.049-3.312V129.966a92.047,92.047,0,0,0,19.369-11.807,3.672,3.672,0,0,0,1.566-3.024,4.279,4.279,0,0,0-3.987-4.175,3.883,3.883,0,0,0-2.564,1.008,81.688,81.688,0,0,1-14.384,9.719V101.528C196.3,99.152,194.3,98,192.31,98s-3.988,1.152-3.988,3.528v50.613c0,7.055,2.849,9.431,15.1,9.431C215.382,161.572,219.726,158.908,220.865,148.613ZM175.789,98.072a3.853,3.853,0,0,0-3.845,2.664c-3.2,9.5-9.115,20.735-15.239,27.718a3.957,3.957,0,1,0,5.91,5.256,67.656,67.656,0,0,0,5.127-6.7V160.42c0,2.016,1.994,3.024,3.917,3.024,1.994,0,3.917-1.008,3.917-3.024v-37.8a3.228,3.228,0,0,0-3.134-3.168,97.061,97.061,0,0,0,7.406-16.415,4.1,4.1,0,0,0,.214-1.3C180.062,99.512,177.925,98.072,175.789,98.072Zm116.312,31.1a2.8,2.8,0,0,0,2.849-2.736,3.377,3.377,0,0,0-.783-2.159,35.952,35.952,0,0,0-5.484-5.9,3.4,3.4,0,0,0-2.136-.864,2.872,2.872,0,0,0-2.991,2.664,2.391,2.391,0,0,0,.784,1.728c1.637,1.728,3.631,3.888,5.269,5.975A3.086,3.086,0,0,0,292.1,129.174Zm-10.61-5.183a2.974,2.974,0,0,0-4.985,1.944,2.577,2.577,0,0,0,.713,1.656,52.179,52.179,0,0,1,5.269,6.119,2.846,2.846,0,0,0,2.35,1.368,2.92,2.92,0,0,0,2.848-2.88,3.031,3.031,0,0,0-.64-1.944A35.847,35.847,0,0,0,281.491,123.991Zm-45.574-5.256c10.254-1.512,21.576-3.24,30.122-4.392v.144c-8.047,6.408-11.679,14.9-11.679,22.463,0,12.239,9.471,21.382,22.93,22.39a4.266,4.266,0,0,0,.783-8.5c-9.969-1.224-15.453-6.12-15.453-14.111,0-6.84,2.35-14.327,13.459-20.735a24.208,24.208,0,0,1,7.833-2.88,3.875,3.875,0,0,0,3.276-3.887,3.759,3.759,0,0,0-4.273-3.816c-14.811,1.368-33.184,3.384-48,5.328a3.853,3.853,0,0,0-3.7,3.959A3.956,3.956,0,0,0,235.917,118.735Zm74.8,9.575a3.475,3.475,0,0,0,3.7,3.672,201.145,201.145,0,0,0,21.862-2.52c1.851,3.1,3.7,5.9,5.269,8.136l-.071.144a36.068,36.068,0,0,0-9.684-1.152c-13.246,0-19.37,5.04-19.37,12.455,0,8.351,6.694,13.1,21.719,13.1a72.131,72.131,0,0,0,7.62-.36,3.681,3.681,0,0,0,3.56-3.672,3.636,3.636,0,0,0-4.2-3.671c-2.136.144-4.13.288-7.05.288-10.4,0-13.458-2.376-13.458-5.832,0-3.024,2.492-5.616,11.251-5.616a44.374,44.374,0,0,1,15.452,2.808,6,6,0,0,0,1.852.36,3.806,3.806,0,0,0,3.916-3.816,4.446,4.446,0,0,0-1.068-2.951,90.156,90.156,0,0,1-8.26-11.664,114.775,114.775,0,0,0,12.39-3.167,3.4,3.4,0,0,0,2.635-3.24,3.791,3.791,0,0,0-3.632-3.816,3.5,3.5,0,0,0-1.139.216,133.361,133.361,0,0,1-13.743,3.384c-1-2.232-1.994-4.536-2.849-6.84,4.629-.936,8.9-2.016,12.462-3.095a3.136,3.136,0,0,0,2.421-3.1,3.65,3.65,0,0,0-3.56-3.672,3.989,3.989,0,0,0-1.282.216,106.634,106.634,0,0,1-12.32,2.88c-.712-2.448-1.424-4.968-2.065-7.416a3.531,3.531,0,0,0-3.7-2.663c-1.922,0-3.916,1.079-3.916,3.167a4.269,4.269,0,0,0,.142.936c.57,2.376,1.282,4.824,2.065,7.272-4.628.72-9.257,1.224-13.1,1.44a3.182,3.182,0,0,0-3.062,3.455,3.418,3.418,0,0,0,3.631,3.672c4.487-.288,9.685-.936,14.955-1.8.854,2.3,1.851,4.608,2.919,6.912-6.338.936-12.818,1.728-19.013,2.016A3.326,3.326,0,0,0,310.713,128.31Zm93.5-4.463a24.366,24.366,0,0,0-9.043,1.8l-.143-.216a158.049,158.049,0,0,0,14.314-16.271,5.758,5.758,0,0,0,1.281-3.384c0-2.736-2.421-4.968-5.91-4.464-6.836,1.08-14.385,1.944-20.153,2.3a3.552,3.552,0,0,0-3.489,3.744,3.645,3.645,0,0,0,3.845,3.888c5.626-.432,10.468-.936,14.456-1.584A161.124,161.124,0,0,1,375.3,134a4.25,4.25,0,0,0-1.78,3.384,4.035,4.035,0,0,0,3.988,3.96,4.906,4.906,0,0,0,2.99-1.152c8.759-6.84,15.738-9.36,22.93-9.36,6.836,0,10.824,4.1,10.824,9.216,0,5.4-2.492,9.575-6.907,11.735-2.066-7.2-6.837-11.807-13.673-11.807-6.337,0-9.9,3.815-9.9,9.215,0,6.408,6.195,11.447,15.951,11.447,13.886,0,22.859-8.063,22.859-20.662C422.582,129.966,415.318,123.847,404.209,123.847Zm-4.913,29.59c-5.626,0-8.332-1.872-8.332-4.248a2.624,2.624,0,0,1,2.564-2.808c2.991,0,5.127,2.448,6.338,7.056Zm100.553,1.368a84.559,84.559,0,0,1-22.146-7.92h20.224c1.78,0,2.634-1.512,2.634-3.024a2.733,2.733,0,0,0-2.634-3.023H473.074v-3.816h17.66c1.709,0,2.493-1.512,2.493-2.952,0-1.512-.784-2.952-2.493-2.952h-17.66v-3.671h23.5c1.709,0,2.563-1.512,2.563-3.024s-.854-3.024-2.563-3.024H480.907a35.38,35.38,0,0,0,2.208-3.672,3.047,3.047,0,0,0,.427-1.512,2.611,2.611,0,0,0-1.21-2.16h16.449c1.852,0,2.706-1.584,2.706-3.167,0-1.512-.854-3.1-2.706-3.1H487.815a4.35,4.35,0,0,0,1.139-.864,29.861,29.861,0,0,0,3.276-4.464,3.781,3.781,0,0,0,.569-1.728c0-1.8-1.851-3.168-3.631-3.168a3.354,3.354,0,0,0-2.991,1.728,25.453,25.453,0,0,1-2.635,3.672,3.193,3.193,0,0,0-.783,2.088,3.065,3.065,0,0,0,1.851,2.736h-5.7V98.936c0-2.016-1.78-2.951-3.56-2.951-1.852,0-3.632.935-3.632,2.951v8.856h-4.984V98.936c0-2.016-1.781-2.951-3.561-2.951s-3.56.935-3.56,2.951v8.856h-5.341a3.238,3.238,0,0,0,1.922-2.808,4.409,4.409,0,0,0-.854-2.376,20.511,20.511,0,0,0-2.991-3.528,3.66,3.66,0,0,0-2.635-1.152,3.4,3.4,0,0,0-3.489,3.1,2.825,2.825,0,0,0,.783,1.872,27.983,27.983,0,0,1,2.706,3.528,3.848,3.848,0,0,0,1.5,1.368H440.389a2.843,2.843,0,0,0-2.635,3.1c0,1.583.926,3.167,2.635,3.167H456.7a2.638,2.638,0,0,0-1.282,2.232,3.1,3.1,0,0,0,.712,1.872c.712.936,1.353,1.944,2.065,3.024l.143.216H443.665c-1.71,0-2.564,1.512-2.564,3.024s.854,3.024,2.564,3.024h22.146v3.671H448.578c-1.638,0-2.492,1.44-2.492,2.952a2.69,2.69,0,0,0,2.492,2.952h17.233v3.816H441.172a3.052,3.052,0,0,0,0,6.047h19.939a84.912,84.912,0,0,1-21.79,9,3.161,3.161,0,0,0-2.635,3.167,3.237,3.237,0,0,0,3.276,3.312,7.02,7.02,0,0,0,1.139-.144,86.387,86.387,0,0,0,25-11.3l-.285,6.551v4.32c0,1.872,1.851,2.808,3.632,2.808,1.851,0,3.631-.936,3.631-2.808v-4.32l-.356-6.839a82.447,82.447,0,0,0,25.351,11.015,7.834,7.834,0,0,0,1.211.144,3.364,3.364,0,0,0,3.418-3.528A3.41,3.41,0,0,0,499.849,154.805ZM463.888,121.4a2.859,2.859,0,0,0,.712-1.8,3.157,3.157,0,0,0-.5-1.656,27.642,27.642,0,0,0-2.35-3.312,2.814,2.814,0,0,0-.712-.576h16.449a4.162,4.162,0,0,0-1.282,1.584,37.981,37.981,0,0,1-3.2,5.76Zm75.217,11.951a29.393,29.393,0,0,0,3.347-6.695,7.24,7.24,0,0,0,.5-2.592c0-2.952-2.137-5.04-6.552-5.04h-4.343a3.174,3.174,0,0,0,.569-1.8,3.918,3.918,0,0,0-.641-2.016,40.887,40.887,0,0,0,5.84-5.327,7.488,7.488,0,0,0,2.136-4.9c0-2.952-2.564-5.328-7.477-5.328H518.027c-1.923,0-2.919,1.728-2.919,3.528,0,1.656,1,3.384,2.919,3.384h12.248q1.068,0,1.068.432a1.436,1.436,0,0,1-.5.792,33.675,33.675,0,0,1-3.489,3.024c-.428-.36-.926-.648-1.353-1.008a4.191,4.191,0,0,0-2.493-.864,3.272,3.272,0,0,0-3.418,3.024,3.584,3.584,0,0,0,1.424,2.663c1.567,1.368,3.062,2.736,4.629,4.392H515.82c-1.923,0-2.92,1.728-2.92,3.456a3.037,3.037,0,0,0,2.92,3.312h7.4A69.311,69.311,0,0,1,512.473,144.8a4.017,4.017,0,0,0-1.068,2.664,3.453,3.453,0,0,0,3.489,3.456,4.143,4.143,0,0,0,3.2-1.728,62.875,62.875,0,0,0,7.05-11.447l-.356,12.455v4.464c0,1.152-.356,1.439-1.21,1.439a11.06,11.06,0,0,1-1.923-.215,3.408,3.408,0,0,0-4.059,3.6,3.516,3.516,0,0,0,2.991,3.6,22.814,22.814,0,0,0,4.628.36c4.344,0,6.979-2.016,6.979-7.487V125.791h2.279c.783,0,1.139.144,1.139.5a2.242,2.242,0,0,1-.142.576,16.265,16.265,0,0,1-2.065,3.456,3.281,3.281,0,0,0-.713,1.944,3.108,3.108,0,0,0,3.2,2.952A3.855,3.855,0,0,0,539.105,133.35Zm37.314-7.487a44.935,44.935,0,0,1-10.681-4.32,36.016,36.016,0,0,0,6.765-9.936h3.062c1.851,0,2.706-1.655,2.706-3.239,0-1.656-.855-3.24-2.706-3.24H557.691c.57-1.008,1-2.016,1.424-2.952a3.459,3.459,0,0,0,.285-1.44c0-1.944-1.922-3.383-3.916-3.383a3.734,3.734,0,0,0-3.561,2.447,45.475,45.475,0,0,1-9.044,13.463,3.641,3.641,0,0,0-1.21,2.592,3.568,3.568,0,0,0,3.632,3.384,4.072,4.072,0,0,0,2.706-1.152,19.759,19.759,0,0,0,2.065-2.16,42.494,42.494,0,0,0,4.913,5.76,35.769,35.769,0,0,1-9.684,4.751,3.417,3.417,0,0,0-2.635,3.312,3.375,3.375,0,0,0,3.347,3.456,3.907,3.907,0,0,0,1.21-.216,45.824,45.824,0,0,0,13.174-6.768,48.512,48.512,0,0,0,13.957,6.768,5.268,5.268,0,0,0,1.424.216,3.707,3.707,0,0,0,.641-7.343Zm-16.378-8.424a33.781,33.781,0,0,1-5.269-5.832h9.684A32.081,32.081,0,0,1,560.041,117.439Zm7.9,18.935-6.907.072c.142-.936.285-1.944.356-2.952.214-2.3-1.851-3.528-3.845-3.528-1.781,0-3.561.936-3.7,3.024a29.329,29.329,0,0,1-.427,3.6l-10.682.144c-1.851,0-2.777,1.728-2.777,3.384s.926,3.311,2.777,3.311l9.044-.144c-2.208,5.688-5.982,9.5-12.035,12.384a3.914,3.914,0,0,0-2.563,3.6,3.714,3.714,0,0,0,3.631,3.672,3.656,3.656,0,0,0,1.709-.36,30.389,30.389,0,0,0,17.02-19.367l7.049-.072c1.5,0,1.852.432,1.781,1.584a29.428,29.428,0,0,1-1.5,7.848,2.534,2.534,0,0,1-2.777,1.944,17.97,17.97,0,0,1-3.133-.288,3.694,3.694,0,0,0-4.415,3.743,3.5,3.5,0,0,0,2.919,3.528,27.362,27.362,0,0,0,5.056.5c5.127,0,8.047-1.872,9.756-7.559a44.208,44.208,0,0,0,1.78-10.08C576.419,138.966,574.069,136.3,567.945,136.374ZM368.007,225.14h-150a5,5,0,0,0,0,10h150a5,5,0,0,0,0-10Z"/></svg>
