<svg xmlns="http://www.w3.org/2000/svg" viewBox="0 0 616.803 335.235"><defs><style>.cls-1,.cls-2{fill:#fff;}.cls-1,.cls-3{fill-rule:evenodd;}.cls-3{fill:#003d5c;}</style></defs><title>アートボード 4</title><path class="cls-1" d="M233.005,335.235a11,11,0,0,1,0-22h150a11,11,0,0,1,0,22Z"/><path class="cls-2" d="M584.17,262.6c-5.816,0-10.2-4.19-10.2-9.744V197.919a9.906,9.906,0,0,1,10.2-9.815c5.815,0,10.2,4.219,10.2,9.815v12.319a11.306,11.306,0,0,1,1.8.64,89.41,89.41,0,0,1,16.309,9.943,10.685,10.685,0,0,1,4.321,8.489,10.166,10.166,0,0,1-10.06,10.247,10.723,10.723,0,0,1-6.674-2.344c-1.68-1.286-3.707-2.679-5.7-3.973v19.612C594.371,258.406,589.985,262.6,584.17,262.6Z"/><path class="cls-2" d="M514.736,259.5a10.344,10.344,0,0,1-10.272-10.392,9.88,9.88,0,0,1,6.675-9.435c15.62-5.994,29.456-17.709,37.017-31.344a9.989,9.989,0,0,1,8.879-5.321,10.169,10.169,0,0,1,10.344,9.959,10.307,10.307,0,0,1-1.539,5.346,91.457,91.457,0,0,1-46.99,40.414A10.934,10.934,0,0,1,514.736,259.5Zm7.691-34.558a10.493,10.493,0,0,1-7.47-3.219,98.383,98.383,0,0,0-9.113-8.2,9.94,9.94,0,0,1-4.015-7.967,10.616,10.616,0,0,1,10.558-10.392,11.126,11.126,0,0,1,6.116,1.9l.111.075a70,70,0,0,1,11.43,9.815,10.2,10.2,0,0,1,2.94,7.238A10.8,10.8,0,0,1,522.427,224.941Z"/><path class="cls-2" d="M471.108,263.027c-5.815,0-10.2-4.189-10.2-9.744V233.711c-3,1.993-6.044,3.844-9.064,5.5a10.767,10.767,0,0,1-5.445,1.423,9.986,9.986,0,0,1-9.916-10.032,10.531,10.531,0,0,1,5.921-9.346A103.23,103.23,0,0,0,475,193.457a10.516,10.516,0,0,1,8.36-4.273A10.2,10.2,0,0,1,493.7,199.215a10.382,10.382,0,0,1-2.222,6.3,111.751,111.751,0,0,1-10.937,12.306,9.876,9.876,0,0,1,.769,3.859v31.6C481.311,258.838,476.925,263.027,471.108,263.027Z"/><path class="cls-2" d="M394.39,263.243a36.917,36.917,0,0,1-6.548-.526,10.053,10.053,0,0,1-8.282-10.01,11.139,11.139,0,0,1,.212-2.174,10.465,10.465,0,0,1-6.175,2.055,10.06,10.06,0,0,1-10.2-9.888,10.181,10.181,0,0,1,3.314-7.471A35.767,35.767,0,0,0,374,224.059a11,11,0,0,1,.535-1.07,9.534,9.534,0,0,1-9-9.806c0-5.6,4.049-9.817,9.418-9.817H389.6V198.64c0-5.514,4.447-9.672,10.343-9.672,5.816,0,10.2,4.095,10.2,9.527v4.871h1.109a14.319,14.319,0,0,1-.5-3.791,13.655,13.655,0,1,1,27.31,0,13.767,13.767,0,0,1-4.6,10.406,10.788,10.788,0,0,1,.474,3.2,9.531,9.531,0,0,1-9.109,9.81c.1.183.2.369.3.56a68.682,68.682,0,0,0,7.173,11.247A11.351,11.351,0,0,1,435,241.908a10.235,10.235,0,0,1-10.272,10.176,10.9,10.9,0,0,1-8.858-4.726,94.067,94.067,0,0,1-5.722-8.9v8.707C410.146,257.383,404.4,263.243,394.39,263.243ZM389.6,238.181a54.068,54.068,0,0,1-2.949,4.629,9.936,9.936,0,0,1,2.871-.418h.078Z"/><path class="cls-2" d="M336.456,259a10.13,10.13,0,0,1-9.517-13.182,19.2,19.2,0,0,1-16.119,8c-11.373,0-19.317-9.514-19.317-23.135,0-20.454,16.785-35.878,39.042-35.878,19.675,0,33.416,12.889,33.416,31.343,0,15.307-8.933,27.349-23.9,32.236A10.6,10.6,0,0,1,336.456,259Zm1.306-43.307c-1.314,9.768-4.072,18.722-7.98,25.758a11.179,11.179,0,0,1,3.591-2.14c8.519-3.093,10.256-7.5,10.256-13.164C343.629,221.352,341.479,217.665,337.762,215.688Zm-21.305,3.568a16.22,16.22,0,0,0-4.764,11.421c0,.523.02.979.054,1.376l.038-.07A48.428,48.428,0,0,0,316.457,219.256Z"/><path class="cls-2" d="M263.717,259.644a10.018,10.018,0,0,1-8.845-5.142,9.858,9.858,0,0,1-4.828,1.254,9.292,9.292,0,0,1-6.8-2.955,19.245,19.245,0,0,1-8.721,2.018c-9.615,0-15.828-6.678-15.828-17.014,0-8.272,3.829-16.539,10.62-23.148-.715-3.417-1.278-6.888-1.679-10.363a9.2,9.2,0,0,1,2.259-7.273,10.175,10.175,0,0,1,7.618-3.3,9.348,9.348,0,0,1,9.53,8.414c.066.593.143,1.2.23,1.835q1.893-.6,3.8-1.012c.21-1.477.4-2.96.562-4.468l.019-.156a9.673,9.673,0,0,1,9.791-8.285,10.231,10.231,0,0,1,7.637,3.331,9.343,9.343,0,0,1,2.315,7.356l-.012.1q-.175,1.383-.371,2.729c11.511,3.606,18.648,13.06,18.648,25.386,0,14.791-8.008,25.489-22.55,30.123l-.176.057-.357.09A11,11,0,0,1,263.717,259.644Zm-5.166-18.75a11.311,11.311,0,0,1,2.106-.974c7.367-2.677,8.809-6.024,8.809-10.9a7.6,7.6,0,0,0-3.135-6.3,72.775,72.775,0,0,1-8.5,16.719Q258.193,240.171,258.551,240.894Z"/><path class="cls-2" d="M177.22,264.251a10.057,10.057,0,0,1-10.059-10.031,9.712,9.712,0,0,1,4.906-8.413c-5.41-3.124-8.751-9.091-8.751-16.57a19.238,19.238,0,0,1,2.754-10.2q-4.8.279-8.873.56c-.274.016-.465.021-.655.021a9.828,9.828,0,0,1-9.747-10.11,9.652,9.652,0,0,1,9.287-9.878c7.508-.45,15.074-.839,22.19-1.142,0-.984,0-1.993,0-3.019a9.663,9.663,0,0,1,9.988-9.529c5.613,0,9.845,4.066,9.845,9.456v2.407c5.671-.134,10.573-.2,14.865-.2a9.618,9.618,0,0,1,9.7,9.96,9.52,9.52,0,0,1-9.418,9.816c-4.557,0-9.562.112-14.849.259.065,1.706.145,3.329.243,4.913a25.115,25.115,0,0,1,2.519,11.291c0,13.334-6.743,23.507-19.5,29.418l-.135.063-.138.056A11.146,11.146,0,0,1,177.22,264.251Z"/><path class="cls-2" d="M101.476,264.251A10.057,10.057,0,0,1,91.417,254.22a9.708,9.708,0,0,1,4.907-8.413c-5.411-3.125-8.752-9.092-8.752-16.57a19.238,19.238,0,0,1,2.754-10.2c-3.2.186-6.165.373-8.873.56-.273.016-.465.021-.654.021a9.828,9.828,0,0,1-9.748-10.11,9.652,9.652,0,0,1,9.286-9.878c7.509-.45,15.075-.839,22.191-1.142,0-.984,0-1.993,0-3.019a9.663,9.663,0,0,1,9.988-9.529c5.612,0,9.845,4.066,9.845,9.456v2.407c5.671-.134,10.573-.2,14.865-.2a9.619,9.619,0,0,1,9.7,9.96,9.521,9.521,0,0,1-9.419,9.816c-4.557,0-9.562.112-14.849.259.065,1.7.145,3.327.242,4.913a25.1,25.1,0,0,1,2.52,11.291c0,13.334-6.743,23.507-19.5,29.419l-.135.062-.139.056A11.141,11.141,0,0,1,101.476,264.251Z"/><path class="cls-2" d="M19.316,260.8C10.18,260.8,0,253.719,0,243.564c0-8.178,5.063-14.923,15.453-20.543v-1.875c-1.287.075-2.554.122-3.75.124h-.2a9.714,9.714,0,0,1,.033-19.417c1.047-.026,2.381-.08,3.921-.182v-5.481a9.477,9.477,0,0,1,9.845-9.527,9.477,9.477,0,0,1,9.845,9.527V198.7a10.8,10.8,0,0,1,2.047-.16,9.883,9.883,0,0,1,5.768,1.814,10.041,10.041,0,0,1,7.833-3.9,9.8,9.8,0,0,1,4.78,1.228A59.907,59.907,0,0,1,66.786,205.5a10.448,10.448,0,0,1,3.606,7.828,10.129,10.129,0,0,1-9.993,10.1,18.654,18.654,0,0,1,5.507,13.727c0,12.2-8.123,20.662-21.729,22.641a11.072,11.072,0,0,1-1.616.119,9.688,9.688,0,0,1-9.242-6.51C30.9,258.227,26.13,260.8,19.316,260.8Zm15.827-17.2a10.15,10.15,0,0,1,5.773-3.193c4.872-.854,4.872-2.2,4.872-3.175,0-.274-1.147-1.344-4.4-1.344a34.366,34.366,0,0,0-6.248.57Zm6.337-26.768a35.275,35.275,0,0,1,8.287.966,39.948,39.948,0,0,0-3.967-2.614,10.666,10.666,0,0,1-1.153-.744A9.84,9.84,0,0,1,41.48,216.829Z"/><path class="cls-2" d="M450.706,169.875a38.392,38.392,0,0,1-5.787-.435,9.993,9.993,0,0,1-6.566-3.812,10.16,10.16,0,0,1-6.8,2.592,9.658,9.658,0,0,1-9.916-9.6A10.8,10.8,0,0,1,423,153.536a104.118,104.118,0,0,0,7.69-17.8c-.3.028-.6.04-.9.04a9.466,9.466,0,0,1-9.436-9.7,9.776,9.776,0,0,1,8.052-9.633c2.431-.481,4.95-.866,7.365-1.186.5-2.93.9-5.777,1.212-8.5a9.7,9.7,0,0,1,9.879-8.708,10.209,10.209,0,0,1,7.617,3.3,9.473,9.473,0,0,1,2.336,7.447q-.285,2.608-.7,5.344a19.073,19.073,0,0,1,6.357,1.764,9.724,9.724,0,0,1,5.99-7.41,8.01,8.01,0,0,1-.4-2.5,8.957,8.957,0,0,1,7.553-8.618,8.988,8.988,0,0,1,8.488-5.806,9.316,9.316,0,0,1,5.911,2.2l.126.1a42.1,42.1,0,0,1,6.39,6.872,9.4,9.4,0,0,1,1.976,5.751,8.79,8.79,0,0,1-7.752,8.67,8.921,8.921,0,0,1-3.42,4.453,72.318,72.318,0,0,1,5.122,8.52,11.606,11.606,0,0,1,1.207,5.139,10.164,10.164,0,0,1-10.13,10.176,10.386,10.386,0,0,1-9.294-6.072c-.907-1.78-1.937-3.579-3.037-5.316.075,1.151.1,2.283.1,3.373a70.42,70.42,0,0,1-2.144,18.82C465.446,168.1,457.349,169.875,450.706,169.875Zm-2.92-20.039c.645.07,1.176.129,1.723.162.06-.186.127-.4.2-.654a51.573,51.573,0,0,0,1.618-13.226c-1.365,4.728-2.918,9.305-4.61,13.608.188.013.378.032.566.055Z"/><path class="cls-2" d="M378.565,172.323a9.211,9.211,0,0,1-5.349-1.739,17.428,17.428,0,0,1-5.953,1.019h-7.141c-8.339,0-13.121-4.576-13.121-12.552v-8.928a13.355,13.355,0,0,1,2.12-7.727,9.936,9.936,0,0,1-1.621-5.52,10.158,10.158,0,0,1,1.3-5.076,10.015,10.015,0,0,1-1.3-5,10.869,10.869,0,0,1,.2-2.092,10.129,10.129,0,0,1,.008-16.412,10.469,10.469,0,0,1-.207-2.087c0-5.35,3.743-9.384,8.706-9.384h14.241a8.64,8.64,0,0,1,8.425,6.636,9.247,9.247,0,0,1,6.529-2.676,10.043,10.043,0,0,1,1.791.161,9.441,9.441,0,0,1,9.105-6.209,10,10,0,0,1,7.178,2.927,8.9,8.9,0,0,1,2.081,3.465,9.509,9.509,0,0,1,4.271-.992,9.342,9.342,0,0,1,9.489,9.168,9.644,9.644,0,0,1-2.274,6.15,48.673,48.673,0,0,1-3.362,3.977q.887.481,1.853.94a9.846,9.846,0,0,1,5.919,8.875,9.6,9.6,0,0,1-2.947,6.916,9.084,9.084,0,0,1,.74,3.6,9.643,9.643,0,0,1-2.7,6.551,49.5,49.5,0,0,1-4.142,4.127,30.034,30.034,0,0,0,3.791,2.235,9.839,9.839,0,0,1-4.021,18.789,10.078,10.078,0,0,1-4.8-1.236A45.671,45.671,0,0,1,395.8,161.44a39.869,39.869,0,0,1-13.209,9.932l-.215.1A9.618,9.618,0,0,1,378.565,172.323Z"/><path class="cls-2" d="M288.85,172.9c-5.441,0-9.7-4.027-9.7-9.168v-6.922a9.293,9.293,0,0,1-11.108-9.061,9.884,9.884,0,0,1,1.481-5.078l.081-.137.087-.131a61.66,61.66,0,0,0,6.6-13.65c-4.113-.8-7.042-4.528-7.042-9.3,0-5.391,3.712-9.456,8.635-9.456h1.263v-6.959c0-5.062,4.172-8.88,9.7-8.88,5.491,0,9.632,3.818,9.632,8.88v6.622c.557-5.265,3.552-12.118,15.363-12.118H327.8c13.461,0,15.47,8.9,15.47,14.208v45.2c-.2,9.095-5.354,13.831-15.322,14.074l-14.1,0c-11.811,0-14.806-6.853-15.363-12.118v4.822A9.308,9.308,0,0,1,288.85,172.9Zm34.589-20.927v-.455h-5.232v.455Z"/><path class="cls-2" d="M213.533,173.331c-5.531,0-9.7-3.973-9.7-9.24v-3.643a9.494,9.494,0,0,1-3.044.5,9.232,9.232,0,0,1-9.276-9.168,9.86,9.86,0,0,1,2.262-6.151,49.368,49.368,0,0,0,5.573-8.962,9.113,9.113,0,0,1-7.052-9.222,9.38,9.38,0,0,1,4.213-8.142,35.926,35.926,0,0,0-1.374-4.318l-.105-.242-.082-.25a9.561,9.561,0,0,1-.515-3.03c0-4.777,3.98-8.52,9.062-8.52.113,0,.225,0,.338.006v-.414c0-5.062,4.171-8.88,9.7-8.88,5.5,0,9.653,3.772,9.7,8.788.089,0,.178,0,.267,0a9.436,9.436,0,0,1,6.653,2.719,9.672,9.672,0,0,1,11.914-.317v-1.514c0-5.308,4.263-9.311,9.917-9.311,5.613,0,9.845,4,9.845,9.311v27.749c4.971.146,8.973,4.5,8.973,9.833A9.173,9.173,0,0,1,263.627,150l-1.8.419v13.165c0,5.309-4.232,9.312-9.845,9.312-5.654,0-9.917-4-9.917-9.312v-8.654L232.9,157.05a8.929,8.929,0,0,1-9.663-3.982v11.023C223.236,169.358,219.065,173.331,213.533,173.331Z"/><path class="cls-2" d="M127.57,172.251a10.037,10.037,0,0,1-10.058-9.743,9.5,9.5,0,0,1,2.015-5.876,46.918,46.918,0,0,0,3.075-4.741,9.28,9.28,0,0,1-4.806-8.319,9.431,9.431,0,0,1,3.372-7.364,9.22,9.22,0,0,1-6.22-8.979,9.462,9.462,0,0,1,3.971-7.874,8.8,8.8,0,0,1-.126-1.485,9.479,9.479,0,0,1,3.132-6.992A44.607,44.607,0,0,0,130.9,99.052l.1-.2a9.424,9.424,0,0,1,8.392-4.911,9.874,9.874,0,0,1,9.959,8.064h31.342c5.045,0,8.849,4,8.849,9.312a9.513,9.513,0,0,1-2.674,6.792,9.6,9.6,0,0,1,.557,18.077,9.837,9.837,0,0,1-.287,14.993c1.1,1.558,2.1,3.1,2.872,4.423l.093.165a10.508,10.508,0,0,1,1.361,5.083,9.81,9.81,0,0,1-9.987,9.6,10.3,10.3,0,0,1-8.9-5.111A10,10,0,0,1,156.3,167c-.122.168-.251.333-.385.494a10.042,10.042,0,0,1-7.766,3.53,9.763,9.763,0,0,1-9.491-7.219c-.854,1.436-1.734,2.773-2.623,3.982A10.41,10.41,0,0,1,127.57,172.251Z"/><path class="cls-2" d="M471.6,75a10.126,10.126,0,0,1-9.517-13.181,19.2,19.2,0,0,1-16.119,8c-11.373,0-19.317-9.514-19.317-23.135,0-20.454,16.785-35.878,39.042-35.878,19.675,0,33.416,12.889,33.416,31.343,0,15.306-8.932,27.348-23.9,32.235A10.59,10.59,0,0,1,471.6,75Zm1.306-43.307c-1.314,9.768-4.072,18.722-7.978,25.757a11.174,11.174,0,0,1,3.589-2.139c8.519-3.093,10.256-7.5,10.256-13.164C478.776,37.351,476.626,33.665,472.909,31.688ZM451.6,35.256a16.224,16.224,0,0,0-4.764,11.421c0,.523.02.979.054,1.376.012-.024.026-.046.039-.07A48.5,48.5,0,0,0,451.6,35.256Z"/><path class="cls-2" d="M417.044,76.724a10.424,10.424,0,0,1-8.071-3.941,105.66,105.66,0,0,0-12.387-12.6,87.13,87.13,0,0,1-21,15.111,10.616,10.616,0,0,1-4.752,1.14A10.165,10.165,0,0,1,360.7,66.26a10.026,10.026,0,0,1,5.713-9.027c11.486-5.862,21.139-14.677,26.9-24.355l-18.283.36a9.623,9.623,0,0,1-9.56-9.887c0-5.6,4.134-10,9.424-10.032,0,0,28.663-.51,28.865-.51.091,0,.18,0,.27,0a8.991,8.991,0,0,1,8.351-7.895A8.968,8.968,0,0,1,420.462,0a9.252,9.252,0,0,1,6.615,2.788l.085.088a42.1,42.1,0,0,1,5.766,7.55,9.683,9.683,0,0,1,1.438,4.933,8.838,8.838,0,0,1-8.6,8.805,8.935,8.935,0,0,1-8.078,5.114q-.3,0-.6-.02-.21.775-.494,1.6l-.043.12a68.394,68.394,0,0,1-7.077,13.79,111.53,111.53,0,0,1,15.335,14.5,11.088,11.088,0,0,1,2.8,7.141A10.582,10.582,0,0,1,417.044,76.724Z"/><path class="cls-2" d="M321.219,78.308a9.737,9.737,0,0,1-9.631-9.817,9.9,9.9,0,0,1,5.312-8.71,43.873,43.873,0,0,0,13.49-11.942c-.184.01-.368.015-.554.015a9.427,9.427,0,0,1-4.971-1.392,10.159,10.159,0,0,1-8.844,4.991,9.387,9.387,0,0,1-8.837-5.98,64.3,64.3,0,0,0-4.144-8.458,9.083,9.083,0,0,1-1.351-4.809c0-5.135,4.449-9.311,9.917-9.311a9.752,9.752,0,0,1,5.3,1.548,9.967,9.967,0,0,1,8.73-4.932,9.72,9.72,0,0,1,8.554,4.888,62.1,62.1,0,0,1,4.057,8.165q.628-1.857,1.164-3.811a9.213,9.213,0,0,1,9.3-7.011c5.586,0,10.131,4.242,10.131,9.456a9.243,9.243,0,0,1-.23,1.965l-.064.321-.048.182c-4.871,18.449-17.286,35.052-32.4,43.328l-.179.095A10.31,10.31,0,0,1,321.219,78.308Z"/><path class="cls-2" d="M267.444,79.1a9.706,9.706,0,0,1-9.836-8.121l-2.364-13.291-15,2.537a10.154,10.154,0,0,1-1.647.137,9.688,9.688,0,0,1-9.556-10.013,9.445,9.445,0,0,1,7.812-9.424,9.912,9.912,0,0,1-5.889-9.295,9.3,9.3,0,0,1,8.091-9.47l9.673-1.5-1.011-5.78a9.078,9.078,0,0,1,1.939-7.565,10.573,10.573,0,0,1,8.1-3.644,9.7,9.7,0,0,1,9.831,8.015l1.039,5.9,10.277-1.609a10.155,10.155,0,0,1,1.592-.127,9.713,9.713,0,0,1,9.608,10.014,9.48,9.48,0,0,1-2.536,6.574c.264-.02.523-.03.779-.03a9.667,9.667,0,0,1,9.59,9.943,9.447,9.447,0,0,1-7.855,9.433l-15.044,2.535,2.371,13.487a9.186,9.186,0,0,1-1.959,7.658A10.465,10.465,0,0,1,267.444,79.1Z"/><path class="cls-2" d="M207.369,74.707c-6.118,0-10.558-4.249-10.558-10.1V27.119h-6.533a9.372,9.372,0,0,1-9.489-9.672,9.372,9.372,0,0,1,9.489-9.672h34.11a9.372,9.372,0,0,1,9.489,9.672,9.372,9.372,0,0,1-9.489,9.672h-6.6V64.6C217.784,70.458,213.4,74.707,207.369,74.707Z"/><path class="cls-2" d="M158.9,75.212c-17.858,0-29.855-13.782-29.855-34.295s12-34.294,29.855-34.294a30.187,30.187,0,0,1,18.538,5.815l.084.063c2.163,1.62,5.038,4.328,5.038,9.122a10.325,10.325,0,0,1-10.2,10.176,10.207,10.207,0,0,1-7.554-3.089,7.628,7.628,0,0,0-5.905-2.527c-6.5,0-8.812,7.937-8.812,14.734,0,8.951,3.459,14.735,8.812,14.735a9.749,9.749,0,0,0,7.442-2.7,10.392,10.392,0,0,1,7.014-2.771A9.914,9.914,0,0,1,179.8,67.747C174.142,72.7,167.11,75.212,158.9,75.212Z"/><path class="cls-2" d="M116.572,74.707c-6.117,0-10.557-4.249-10.557-10.1V17.231c0-5.854,4.44-10.1,10.557-10.1,6.035,0,10.415,4.25,10.415,10.1V64.6C126.987,70.458,122.607,74.707,116.572,74.707Z"/><path class="cls-3" d="M116.572,68.707c2.564,0,4.415-1.439,4.415-4.1V17.231c0-2.664-1.851-4.1-4.415-4.1s-4.557,1.44-4.557,4.1V64.6C112.015,67.268,114.009,68.707,116.572,68.707Zm42.328.505c6.48,0,12.177-1.8,16.948-5.976a4.011,4.011,0,0,0,1.567-3.312,3.873,3.873,0,0,0-4.059-3.744,4.427,4.427,0,0,0-2.991,1.224A15.751,15.751,0,0,1,158.9,61.652c-8.474,0-14.812-7.7-14.812-20.735,0-12.959,6.2-20.734,14.812-20.734a13.593,13.593,0,0,1,10.112,4.248,4.373,4.373,0,0,0,7.548-2.808c0-1.728-.712-2.88-2.635-4.32a24.122,24.122,0,0,0-15.025-4.68c-13.387,0-23.855,10.08-23.855,28.294C135.045,59.2,145.441,69.212,158.9,69.212Zm31.378-48.093h12.533V64.6c0,2.664,1.994,4.1,4.558,4.1s4.415-1.439,4.415-4.1V21.119h12.6a3.382,3.382,0,0,0,3.489-3.672,3.382,3.382,0,0,0-3.489-3.672h-34.11a3.383,3.383,0,0,0-3.489,3.672A3.383,3.383,0,0,0,190.278,21.119Zm48.967,33.189,20.864-3.527L263.528,70a3.7,3.7,0,0,0,3.916,3.1c2.279,0,4.558-1.584,4.059-4.248l-3.418-19.438,20.936-3.528a3.445,3.445,0,0,0,2.919-3.528c0-2.16-1.566-4.32-4.272-3.887L266.8,42l-1.78-10.151,16.165-2.52a3.328,3.328,0,0,0,2.919-3.456c0-2.159-1.566-4.391-4.272-3.959l-16.094,2.52L261.676,12.7a3.705,3.705,0,0,0-3.916-3.023c-2.279,0-4.629,1.511-4.131,4.175L255.7,25.654,239.886,28.1a3.3,3.3,0,0,0-2.92,3.528c0,2.16,1.5,4.392,4.13,3.96l15.952-2.52,1.78,10.223-20.865,3.528a3.445,3.445,0,0,0-2.919,3.528C235.044,52.509,236.61,54.74,239.245,54.308Zm73.5-11.087a3.376,3.376,0,0,0,3.276,2.232c1.994,0,4.059-1.44,4.059-3.528a4.1,4.1,0,0,0-.214-1.3,55.594,55.594,0,0,0-4.984-9.863,3.791,3.791,0,0,0-3.276-1.872c-1.994,0-3.916,1.44-3.916,3.312a3.21,3.21,0,0,0,.5,1.728A69.911,69.911,0,0,1,312.745,43.221Zm7.05,21.815a3.878,3.878,0,0,0-2.207,3.455,3.793,3.793,0,0,0,3.631,3.816,4.448,4.448,0,0,0,1.994-.576c13.673-7.487,25-22.606,29.481-39.6a5.029,5.029,0,0,0,.143-.936c0-2.16-2.137-3.456-4.131-3.456a3.3,3.3,0,0,0-3.489,2.52C340.945,45.885,332.542,57.764,319.8,65.036Zm6.765-25.559a3.36,3.36,0,0,0,3.276,2.376c1.923,0,3.916-1.368,3.916-3.455a4.039,4.039,0,0,0-.213-1.224,50.781,50.781,0,0,0-4.558-9.792,3.674,3.674,0,0,0-3.347-1.872c-1.994,0-3.845,1.3-3.845,3.168a3.159,3.159,0,0,0,.5,1.656A63.468,63.468,0,0,1,326.56,39.477Zm88.7-17.782a2.732,2.732,0,0,0,2.421,1.584A2.932,2.932,0,0,0,420.6,20.4a3.21,3.21,0,0,0-.5-1.728,38.444,38.444,0,0,0-4.985-6.768,2.842,2.842,0,0,0-2.136-1.008,2.92,2.92,0,0,0-2.991,2.664,2.417,2.417,0,0,0,.57,1.584A51.668,51.668,0,0,1,415.264,21.7Zm-44.435,48.74a4.574,4.574,0,0,0,2.065-.5,82.466,82.466,0,0,0,23.214-17.854A110.26,110.26,0,0,1,413.626,69a4.42,4.42,0,0,0,3.418,1.727A4.56,4.56,0,0,0,421.6,66.4a5.087,5.087,0,0,0-1.353-3.24A106.2,106.2,0,0,0,401.164,46.1a67.023,67.023,0,0,0,9.756-17.207,12.174,12.174,0,0,0,.783-3.888c0-3.887-2.848-6.335-8.4-6.191l-28.341.5c-2.279,0-3.489,2.016-3.489,4.032a3.611,3.611,0,0,0,3.56,3.887l25.493-.5c1.211,0,1.78.288,1.78.936a2.716,2.716,0,0,1-.284,1.152c-5.626,13.967-18.088,26.206-32.9,33.766A4.007,4.007,0,0,0,366.7,66.26,4.2,4.2,0,0,0,370.829,70.435Zm52.054-53.852a3.214,3.214,0,0,0,2.635,1.584,2.81,2.81,0,0,0,2.848-2.808,3.9,3.9,0,0,0-.641-1.944,36.175,36.175,0,0,0-4.913-6.407A3.278,3.278,0,0,0,420.462,6a2.784,2.784,0,0,0-2.92,2.52,2.519,2.519,0,0,0,.641,1.583A79.222,79.222,0,0,1,422.883,16.583Zm42.809.216c-19.583,0-33.041,13.463-33.041,29.878,0,11.231,6.052,17.135,13.316,17.135,5.483,0,9.684-2.088,13.6-9.072,4.415-7.847,7.335-18.646,8.047-30.6,10.824.792,17.161,8.568,17.161,18,0,8.928-4.059,15.119-14.17,18.791a4.141,4.141,0,0,0-2.991,3.96A4.017,4.017,0,0,0,471.6,69a4.624,4.624,0,0,0,1.637-.289c12.249-3.959,19.868-13.535,19.868-26.566C493.108,27.814,483.067,16.8,465.692,16.8Zm-13.53,34.126c-2.065,3.671-3.988,4.823-6.195,4.823-2.564,0-5.127-2.447-5.127-9.071a22.735,22.735,0,0,1,18.443-22.03C458.429,35.23,455.794,44.517,452.162,50.925ZM123.8,130.614h9.685v9.647h-6.836c-1.852,0-2.849,1.656-2.849,3.312s1,3.311,2.849,3.311H181.9c1.922,0,2.848-1.655,2.848-3.311s-.926-3.312-2.848-3.312h-5.127v-9.647h7.9c1.923,0,2.848-1.728,2.848-3.384,0-1.728-.925-3.384-2.848-3.384h-7.9v-9.215h3.916c1.923,0,2.849-1.656,2.849-3.312s-.926-3.312-2.849-3.312H141.314c.641-1.08,1.282-2.088,1.78-3.1a3.387,3.387,0,0,0,.356-1.584c0-2.016-1.993-3.383-4.059-3.383a3.424,3.424,0,0,0-3.133,1.8A50.493,50.493,0,0,1,126,115.279a3.518,3.518,0,0,0-1.211,2.592,3.788,3.788,0,0,0,3.846,3.527,4.48,4.48,0,0,0,2.991-1.224c.64-.576,1.21-1.152,1.851-1.8v5.472H123.8c-1.851,0-2.848,1.656-2.848,3.384C120.948,128.886,121.945,130.614,123.8,130.614Zm40.661-15.983h5.2v9.215h-5.2Zm0,15.983h5.2v9.647h-5.2Zm-12.034-15.983h5.056v9.215h-5.056Zm0,15.983h5.056v9.647h-5.056ZM140.6,114.631h4.842v9.215H140.6Zm0,15.983h4.842v9.647H140.6Zm9.186,22.03a3.936,3.936,0,0,0-3.774-2.808,3.55,3.55,0,0,0-3.774,3.384,3.625,3.625,0,0,0,.213,1.152c.713,2.232,1.425,5.256,1.923,7.559a3.772,3.772,0,0,0,3.774,3.1c2.208,0,4.344-1.584,3.846-4.32A57.269,57.269,0,0,0,149.788,152.644Zm25.778-3.96c-2.065,0-3.988,1.44-3.988,3.384a3.829,3.829,0,0,0,.855,2.232,89.882,89.882,0,0,1,5.269,7.919,4.332,4.332,0,0,0,3.774,2.232,3.78,3.78,0,0,0,3.988-3.6,4.648,4.648,0,0,0-.641-2.231,70.054,70.054,0,0,0-5.91-8.352A4.139,4.139,0,0,0,175.566,148.684Zm-46.073,2.952a52.457,52.457,0,0,1-5.2,8.64,3.554,3.554,0,0,0-.783,2.231,4.015,4.015,0,0,0,4.058,3.744,4.444,4.444,0,0,0,3.632-2.016,53.628,53.628,0,0,0,5.412-9.5,3.667,3.667,0,0,0,.356-1.656,3.9,3.9,0,0,0-4.059-3.672A3.617,3.617,0,0,0,129.493,151.636Zm30.763-2.232c-1.923,0-3.632,1.224-3.632,3.1a3.387,3.387,0,0,0,.356,1.584c1.068,2.3,2.279,5.255,3.134,7.7a3.9,3.9,0,0,0,3.7,2.664,3.6,3.6,0,0,0,3.846-3.528,5.41,5.41,0,0,0-.214-1.439,55.669,55.669,0,0,0-3.489-7.848A4.293,4.293,0,0,0,160.256,149.4ZM220.8,110.455a45.2,45.2,0,0,1-2.35,7.055,2.487,2.487,0,0,0-.285,1.152c0,1.512,1.5,2.52,3.062,2.52a2.96,2.96,0,0,0,2.635-1.584,39.794,39.794,0,0,0,2.706-7.559c.569-2.232-1.282-3.6-3.062-3.6A2.661,2.661,0,0,0,220.8,110.455Zm-17.3-1.512c-1.567,0-3.062.936-3.062,2.52a3.625,3.625,0,0,0,.213,1.152,44.546,44.546,0,0,1,1.923,6.191,2.87,2.87,0,0,0,2.92,2.376,3.2,3.2,0,0,0,3.2-3.816,32.461,32.461,0,0,0-2.35-6.695A3.006,3.006,0,0,0,203.493,108.943Zm27.7,21.311a69.14,69.14,0,0,1,5.555,4.9,3.735,3.735,0,0,0,2.706,1.224,3.842,3.842,0,0,0,3.7-3.744,3.993,3.993,0,0,0-1.14-2.663,41.073,41.073,0,0,0-6.124-5.184,3.8,3.8,0,0,0-2.278-.792,3.848,3.848,0,0,0-3.846,3.6A3.371,3.371,0,0,0,231.193,130.254Zm7.905-10.3a3.882,3.882,0,0,0,2.777,1.224,3.777,3.777,0,0,0,3.7-3.672,4,4,0,0,0-1.139-2.663,35.99,35.99,0,0,0-5.84-5.112,3.751,3.751,0,0,0-6.053,2.808,3.6,3.6,0,0,0,1.353,2.663C235.466,116.575,237.389,118.3,239.1,119.958ZM231.549,151.2l16.521-3.816v16.2c0,2.232,1.923,3.312,3.917,3.312,1.922,0,3.845-1.08,3.845-3.312V145.661l6.48-1.512a3.142,3.142,0,0,0,2.493-3.24c0-2.088-1.567-4.32-3.988-3.744l-4.985,1.152v-34.99c0-2.232-1.923-3.311-3.845-3.311-1.994,0-3.917,1.079-3.917,3.311v36.718l-18.087,4.1a3.081,3.081,0,0,0-2.421,3.239C227.562,149.476,229.128,151.78,231.549,151.2Zm-4.415-7.559a4.389,4.389,0,0,0-1.21-2.88,44.256,44.256,0,0,0-8.688-6.912v-3.024h6.836c1.781,0,2.706-1.727,2.706-3.383,0-1.728-.925-3.384-2.706-3.384h-6.836V102.536c0-1.944-1.851-2.88-3.7-2.88s-3.7.936-3.7,2.88v21.526h-8.9c-1.709,0-2.635,1.656-2.635,3.384,0,1.656.926,3.383,2.706,3.383h7.335a66.255,66.255,0,0,1-9.9,18.575,3.875,3.875,0,0,0-.926,2.376,3.209,3.209,0,0,0,3.276,3.168,4.143,4.143,0,0,0,3.2-1.728,47.157,47.157,0,0,0,6.124-10.439l-.285,13.967v7.343c0,2.16,1.852,3.24,3.7,3.24s3.7-1.08,3.7-3.24V141.7a39.938,39.938,0,0,1,3.917,3.815,3.8,3.8,0,0,0,2.777,1.368A3.254,3.254,0,0,0,227.134,143.645ZM288.85,100.16c-1.851,0-3.7.935-3.7,2.879V116h-7.263c-1.78,0-2.635,1.728-2.635,3.456s.855,3.456,2.706,3.456h6.409c-2.421,9.071-5.7,16.847-9.685,22.823a3.922,3.922,0,0,0-.64,2.015,3.276,3.276,0,0,0,6.124,1.584,57.566,57.566,0,0,0,5.2-10.511l-.214,14.975v9.935c0,2.088,1.852,3.168,3.7,3.168,1.78,0,3.632-1.08,3.632-3.168V137.309a39.416,39.416,0,0,1,3.133,3.888,3.079,3.079,0,0,0,2.493,1.368,3.3,3.3,0,0,0,3.275-3.168,3.875,3.875,0,0,0-.926-2.376,45.987,45.987,0,0,0-7.975-7.847V122.91h5.483c1.852,0,2.706-1.728,2.706-3.456S299.817,116,297.965,116h-5.483V103.039C292.482,101.1,290.63,100.16,288.85,100.16Zm25,64.867H327.8c5.911-.144,9.329-1.728,9.471-8.207V111.751c0-5.688-2.777-8.208-9.471-8.208H313.845c-6.694,0-9.471,2.52-9.471,8.208V156.82C304.374,162.507,307.151,165.027,313.845,165.027Zm-1.638-51.98c0-1.8.57-2.448,2.492-2.448h12.249c1.922,0,2.492.648,2.492,2.448v7.919H312.207Zm0,14.831H329.44V138.6H312.207Zm0,17.638H329.44v10.008c0,1.8-.57,2.448-2.492,2.448H314.7c-1.78-.072-2.492-.576-2.492-2.448Zm44-15.334h14.242c1.851,0,2.777-1.728,2.777-3.384,0-1.728-.926-3.384-2.777-3.384H356.206c-1.78,0-2.706,1.656-2.706,3.384C353.5,128.454,354.426,130.182,356.206,130.182Zm20.01-13.68c0-1.8-1-3.6-2.92-3.6H352.36c-1.851,0-2.848,1.8-2.848,3.6s1,3.6,2.848,3.6H373.3C375.219,120.1,376.216,118.3,376.216,116.5Zm9.613,1.008a30.789,30.789,0,0,0,2.92-6.7,4.926,4.926,0,0,0,.142-1.008,3.285,3.285,0,0,0-3.489-3.024,3.215,3.215,0,0,0-3.133,2.3,31.343,31.343,0,0,1-2.635,5.616,4.16,4.16,0,0,0-.641,2.087,3.125,3.125,0,0,0,3.276,2.952A4.1,4.1,0,0,0,385.829,117.51Zm-29.623-7.919h14.242c1.851,0,2.777-1.728,2.777-3.384,0-1.728-.926-3.384-2.777-3.384H356.206c-1.78,0-2.706,1.656-2.706,3.384C353.5,107.863,354.426,109.591,356.206,109.591Zm0,30.67h14.242c1.851,0,2.777-1.728,2.777-3.384,0-1.728-.926-3.384-2.777-3.384H356.206c-1.78,0-2.706,1.656-2.706,3.384C353.5,138.533,354.426,140.261,356.206,140.261Zm24.994-1.008a35.986,35.986,0,0,1-2.848,5.76,4.163,4.163,0,0,0-.641,2.087,3.377,3.377,0,0,0,3.489,3.312,3.914,3.914,0,0,0,3.347-2.016,30.861,30.861,0,0,0,3.276-7.487,3.66,3.66,0,0,0,.142-.864,3.425,3.425,0,0,0-3.56-3.24A3.265,3.265,0,0,0,381.2,139.253Zm-4.771-8.5a3.423,3.423,0,0,0,3.347,3.456,3.708,3.708,0,0,0,1.638-.432c6.409-3.167,11.251-7.487,14.385-13.175,3.418,5.04,7.69,8.5,13.885,11.807a4.3,4.3,0,0,0,1.994.5,3.792,3.792,0,0,0,3.775-3.671,3.842,3.842,0,0,0-2.493-3.456,36.213,36.213,0,0,1-8.83-5.76,44.773,44.773,0,0,0,8.189-8.279,3.771,3.771,0,0,0,1-2.448,3.4,3.4,0,0,0-3.489-3.168,3.541,3.541,0,0,0-3.062,1.728,45.33,45.33,0,0,1-6.623,7.416,23.508,23.508,0,0,1-1.353-2.232A38.581,38.581,0,0,0,400,104.119c.071-2.232-1.78-3.384-3.7-3.384a3.387,3.387,0,0,0-3.632,3.24c-.427,12.456-4.557,18.863-14.1,23.687A3.521,3.521,0,0,0,376.429,130.757Zm-2.207,28.295v-8.928c0-4.391-1.78-6.551-7.05-6.551h-7.05c-5.341,0-7.121,2.16-7.121,6.551v8.928c0,4.391,1.78,6.551,7.121,6.551h7.05C371.943,165.531,374.151,164.019,374.222,159.052Zm-7.05-1.512c0,1.224-.356,1.583-1.5,1.583h-4.13c-1.14,0-1.5-.431-1.5-1.583v-5.832c0-1.224.356-1.656,1.5-1.656h4.13c1.139,0,1.5.432,1.5,1.656Zm11.394,8.783a3.772,3.772,0,0,0,1.424-.36c7.05-3.384,12.248-8.279,15.452-14.831a37.789,37.789,0,0,0,14.812,13.823,4.037,4.037,0,0,0,1.923.5,3.883,3.883,0,0,0,3.774-3.888,3.965,3.965,0,0,0-2.421-3.527,33.374,33.374,0,0,1-10.468-7.992,45.776,45.776,0,0,0,9.044-7.775,3.817,3.817,0,0,0,1.139-2.52,3.632,3.632,0,0,0-3.7-3.384,3.469,3.469,0,0,0-2.848,1.512,39.853,39.853,0,0,1-7.264,6.984,23.059,23.059,0,0,1-1.139-2.3,49.815,49.815,0,0,0,1-9.5c0-2.015-1.923-3.095-3.774-3.095s-3.632,1.008-3.632,2.951c-.285,13.751-4.486,21.671-14.669,26.711a3.428,3.428,0,0,0-2.137,3.023A3.691,3.691,0,0,0,378.566,166.323ZM482.4,115.135a2.92,2.92,0,0,0,2.848-2.88,3.027,3.027,0,0,0-.641-1.944,35.808,35.808,0,0,0-5.554-6.264,2.974,2.974,0,0,0-4.985,1.944,2.576,2.576,0,0,0,.712,1.656,52.184,52.184,0,0,1,5.27,6.12A2.846,2.846,0,0,0,482.4,115.135Zm-14.028,2.159a3.976,3.976,0,0,0,1.139,2.592,69.624,69.624,0,0,1,10.112,14.831,4.358,4.358,0,0,0,3.916,2.736,4.107,4.107,0,0,0,4.13-4.176,5.544,5.544,0,0,0-.569-2.448,64,64,0,0,0-11.323-15.766A4.734,4.734,0,0,0,472.5,113.7C470.36,113.7,468.367,115.279,468.367,117.294ZM486.24,98.432a3.4,3.4,0,0,0-2.136-.864,2.872,2.872,0,0,0-2.991,2.664,2.392,2.392,0,0,0,.783,1.727c1.638,1.728,3.632,3.888,5.27,5.976a3.086,3.086,0,0,0,2.492,1.3,2.8,2.8,0,0,0,2.849-2.736,3.373,3.373,0,0,0-.784-2.16A35.9,35.9,0,0,0,486.24,98.432Zm-35.747,57.6a33.376,33.376,0,0,1-3.917-.288,3.651,3.651,0,0,0-4.2,3.888,3.841,3.841,0,0,0,3.489,3.887,32.455,32.455,0,0,0,4.842.36c7.193,0,10.468-2.952,12.676-11.231a64.671,64.671,0,0,0,1.922-17.207c0-11.3-3.346-15.479-12.461-15.479-1.14,0-2.421,0-3.846.072.784-3.96,1.425-7.991,1.852-11.879.285-2.664-1.852-4.1-3.988-4.1a3.74,3.74,0,0,0-3.916,3.384c-.5,4.392-1.211,8.856-2.066,13.247-3.774.432-7.69.936-11.322,1.656a3.722,3.722,0,0,0-3.2,3.744,3.486,3.486,0,0,0,4.343,3.6c2.706-.576,5.555-1.08,8.474-1.44a122.162,122.162,0,0,1-10.9,28.15,4.887,4.887,0,0,0-.641,2.232,3.718,3.718,0,0,0,3.917,3.6,4.52,4.52,0,0,0,3.845-2.3c4.985-9.072,9.186-20.663,12.035-32.542,1.922-.144,3.7-.216,5.269-.216,3.418,0,4.629,1.728,4.629,8.207a58.237,58.237,0,0,1-1.852,15.623C454.267,155.236,452.985,156.028,450.493,156.028ZM62.754,209.942a53.568,53.568,0,0,0-10.04-6.983,3.844,3.844,0,0,0-1.923-.5,4.3,4.3,0,0,0-4.059,4.248,3.6,3.6,0,0,0,1.994,3.239,54.806,54.806,0,0,1,8.616,6.264,4.319,4.319,0,0,0,2.92,1.224,4.189,4.189,0,0,0,4.13-4.1A4.483,4.483,0,0,0,62.754,209.942ZM41.32,222.829a47.521,47.521,0,0,0-12.177,1.44V213.542c3.2-.5,6.2-1.152,8.83-1.8a3.6,3.6,0,0,0,2.991-3.528,3.653,3.653,0,0,0-3.774-3.671,3.9,3.9,0,0,0-1.282.144c-1.994.5-4.344.936-6.765,1.368v-9.864a3.546,3.546,0,0,0-3.845-3.528,3.547,3.547,0,0,0-3.846,3.528v10.944c-3.56.432-6.978.648-9.826.719a3.475,3.475,0,0,0-3.49,3.744,3.42,3.42,0,0,0,3.49,3.672c2.848,0,6.266-.288,9.826-.648v12.1C8.991,232.549,6,238.308,6,243.564c0,6.264,6.907,11.231,13.316,11.231,6.623,0,9.827-2.736,9.827-10.223V231.757a41.614,41.614,0,0,1,12.248-1.872c6.765,0,10.4,3.384,10.4,7.344,0,4.679-2.777,7.847-9.756,9.071a3.834,3.834,0,1,0,1.282,7.559c10.4-1.511,16.592-7.415,16.592-16.7C59.906,228.157,52.714,222.829,41.32,222.829ZM21.452,244c0,1.8-.213,3.1-2.278,3.168-2.635,0-5.2-1.44-5.2-3.744,0-2.808,1.282-5.184,7.477-8.711Zm115.772-40.389c-6.338,0-13.459.144-20.865.36V195.4c0-2.3-1.923-3.455-3.845-3.455-1.994,0-3.988,1.223-3.988,3.527,0,3.24,0,6.192.071,8.784-9.756.36-19.511.864-27.914,1.368a3.7,3.7,0,0,0-3.632,3.887,3.851,3.851,0,0,0,3.988,4.1c8.332-.576,18.016-1.08,27.629-1.512.072,1.944.143,3.816.214,5.76a16.552,16.552,0,0,0-4.273-.576c-6.622,0-11.037,4.9-11.037,11.951,0,8.207,5.127,12.959,12.106,12.959a7.8,7.8,0,0,0,5.269-1.8l.214.072c-1.282,3.456-5.2,7.56-10.967,10.08a3.94,3.94,0,0,0,1.282,7.7,5.2,5.2,0,0,0,1.923-.432c10.254-4.751,16.022-12.6,16.022-23.974A18.52,18.52,0,0,0,117,224.269c-.285-4.175-.427-8.279-.5-12.455,7.405-.216,14.669-.432,21.006-.432a3.566,3.566,0,0,0,3.419-3.815A3.662,3.662,0,0,0,137.224,203.607Zm-31.19,31.534c-2.35,0-4.914-2.16-4.914-5.688,0-3.168,1.709-5.112,4.13-5.112,3.062,0,4.985,2.52,4.985,5.76C110.235,233.413,108.455,235.141,106.034,235.141Zm106.934-31.534c-6.338,0-13.459.144-20.865.36V195.4c0-2.3-1.923-3.455-3.845-3.455-1.994,0-3.988,1.223-3.988,3.527,0,3.24,0,6.192.071,8.784-9.756.36-19.511.864-27.914,1.368a3.7,3.7,0,0,0-3.632,3.887,3.851,3.851,0,0,0,3.988,4.1c8.331-.576,18.016-1.08,27.629-1.512.072,1.944.143,3.816.214,5.76a16.551,16.551,0,0,0-4.272-.576c-6.623,0-11.038,4.9-11.038,11.951,0,8.207,5.127,12.959,12.106,12.959a7.8,7.8,0,0,0,5.269-1.8l.214.072c-1.282,3.456-5.2,7.56-10.967,10.08a3.94,3.94,0,0,0,1.282,7.7,5.2,5.2,0,0,0,1.923-.432c10.254-4.751,16.022-12.6,16.022-23.974a18.52,18.52,0,0,0-2.421-9.576c-.285-4.175-.427-8.279-.5-12.455,7.405-.216,14.669-.432,21.006-.432a3.566,3.566,0,0,0,3.419-3.815A3.662,3.662,0,0,0,212.968,203.607Zm-31.19,31.534c-2.35,0-4.914-2.16-4.914-5.688,0-3.168,1.709-5.112,4.13-5.112,3.062,0,4.985,2.52,4.985,5.76C185.979,233.413,184.2,235.141,181.778,235.141Zm63.424,9c.5,1.224,1.068,2.376,1.638,3.456a3.589,3.589,0,0,0,3.2,2.16,3.865,3.865,0,0,0,3.846-3.744,4.428,4.428,0,0,0-.5-2.016c-.854-1.728-1.709-3.456-2.492-5.255a69.506,69.506,0,0,0,11.607-23.615c8.332,1.008,12.96,7.056,12.96,13.895,0,8.423-4.059,13.391-12.818,16.559a4.1,4.1,0,0,0,1.069,8.063,6.582,6.582,0,0,0,1.566-.288c11.75-3.743,18.372-12.023,18.372-24.406,0-11.3-7.619-19.3-19.511-20.735.5-2.591.926-5.327,1.282-8.135.285-2.592-1.923-4.032-3.988-4.032a3.647,3.647,0,0,0-3.845,3.1c-.356,3.24-.784,6.192-1.282,9.071a36.445,36.445,0,0,0-13.673,4.176c-.64-3.239-1.21-6.479-1.566-9.647a3.32,3.32,0,0,0-3.561-3.024c-2.065,0-4.2,1.368-3.916,3.888a108.972,108.972,0,0,0,2.35,13.175c-7.976,6.48-11.251,14.327-11.251,21.023,0,7.2,3.845,11.015,9.827,11.015C238.01,248.82,241.286,247.74,245.2,244.14Zm9.4-28.726a62.058,62.058,0,0,1-6.765,15.623c-1.424-3.888-2.564-7.775-3.632-11.663A32.083,32.083,0,0,1,254.6,215.414Zm-22.5,21.311c0-3.744,1.709-8.208,5.768-12.456,1.282,4.392,2.778,8.64,4.344,12.888-3.2,3.095-5.412,3.959-7.406,3.959C233.31,241.116,232.1,239.892,232.1,236.725Zm103.359,8.207a4.141,4.141,0,0,0-2.99,3.96,4.017,4.017,0,0,0,3.988,4.1,4.624,4.624,0,0,0,1.637-.289c12.248-3.959,19.868-13.535,19.868-26.566,0-14.327-10.041-25.342-27.416-25.342-19.583,0-33.041,13.463-33.041,29.878,0,11.231,6.052,17.135,13.316,17.135,5.483,0,9.684-2.088,13.6-9.071,4.415-7.848,7.335-18.647,8.047-30.6,10.824.792,17.161,8.568,17.161,18C349.629,235.069,345.57,241.26,335.458,244.932Zm-18.443-10.007c-2.065,3.672-3.988,4.823-6.195,4.823-2.564,0-5.127-2.447-5.127-9.071a22.737,22.737,0,0,1,18.443-22.031C323.282,219.23,320.647,228.517,317.015,234.925ZM373.6,246.588a4.718,4.718,0,0,0,3.347-1.512,47.691,47.691,0,0,0,10.183-15.551,4.264,4.264,0,0,0,.356-1.8,4,4,0,0,0-4.13-3.887,4.064,4.064,0,0,0-3.845,2.591,41.71,41.71,0,0,1-8.617,13.1,4.265,4.265,0,0,0-1.5,3.168A4.121,4.121,0,0,0,373.6,246.588Zm50.844-54.717a7.74,7.74,0,1,0,7.62,7.7A7.6,7.6,0,0,0,424.44,191.871Zm0,11.88a4.157,4.157,0,0,1-4.13-4.176,4.1,4.1,0,0,1,4.13-4.1,4.035,4.035,0,0,1,4.059,4.1A4.1,4.1,0,0,1,424.44,203.751Zm-4.7,22.462a4.194,4.194,0,0,0-3.916-2.447,3.807,3.807,0,0,0-4.059,3.671,4.73,4.73,0,0,0,.427,1.872,88.3,88.3,0,0,0,8.545,14.543,4.924,4.924,0,0,0,3.988,2.232A4.277,4.277,0,0,0,429,241.908a5.415,5.415,0,0,0-1.353-3.311A74.093,74.093,0,0,1,419.74,226.213Zm8.19-13.031c0-1.944-1.14-3.816-3.418-3.816H404.145V198.5c0-2.376-2.065-3.528-4.2-3.528s-4.344,1.224-4.344,3.672v10.727H374.949c-2.278,0-3.418,1.872-3.418,3.816,0,1.872,1.14,3.816,3.418,3.816H395.6v29.158c0,2.088-.641,2.592-2.207,2.592a18.457,18.457,0,0,1-3.062-.288c-3.062-.5-4.771,1.872-4.771,4.247a3.989,3.989,0,0,0,3.346,4.1,30.46,30.46,0,0,0,5.484.432c6.195,0,9.755-2.808,9.755-10.079V217h20.367C426.79,217,427.93,215.054,427.93,213.182Zm55.427-18a4.44,4.44,0,0,0-3.561,1.872,109.93,109.93,0,0,1-34.608,29.518,4.58,4.58,0,0,0-2.706,4.032,3.988,3.988,0,0,0,3.917,4.032,4.776,4.776,0,0,0,2.492-.648,125.114,125.114,0,0,0,18.016-12.1v31.391c0,2.519,2.137,3.743,4.2,3.743,2.136,0,4.2-1.224,4.2-3.743V221.678a3.742,3.742,0,0,0-3.7-3.744,113.08,113.08,0,0,0,15.1-16.055,4.449,4.449,0,0,0,1-2.664A4.268,4.268,0,0,0,483.357,195.183Zm73.678,13.823a4.048,4.048,0,0,0-3.632,2.232c-8.545,15.407-24,27.862-40.162,34.054a3.883,3.883,0,0,0-2.777,3.816,4.367,4.367,0,0,0,4.272,4.391,4.984,4.984,0,0,0,1.923-.359,85.781,85.781,0,0,0,44.008-37.87,4.331,4.331,0,0,0,.712-2.3A4.159,4.159,0,0,0,557.035,209.006Zm-34.608,9.936a4.843,4.843,0,0,0,4.557-4.752,4.27,4.27,0,0,0-1.281-3.1,64.2,64.2,0,0,0-10.468-9,5.14,5.14,0,0,0-2.848-.936,4.625,4.625,0,0,0-4.558,4.392,4.018,4.018,0,0,0,1.709,3.239,104.605,104.605,0,0,1,9.685,8.712A4.492,4.492,0,0,0,522.427,218.942Zm86.382,6.623a83.346,83.346,0,0,0-15.1-9.215,4.344,4.344,0,0,0-1.851-.432,4.062,4.062,0,0,0-3.49,2.232V197.919c0-2.52-2.065-3.816-4.2-3.816-2.065,0-4.2,1.3-4.2,3.816v54.932c0,2.52,2.136,3.744,4.2,3.744,2.136,0,4.2-1.224,4.2-3.744V221.822a5.124,5.124,0,0,0,2.065,2.016,125.443,125.443,0,0,1,13.317,8.639,4.784,4.784,0,0,0,2.991,1.08,4.159,4.159,0,0,0,4.058-4.248A4.641,4.641,0,0,0,608.809,225.565Zm-225.8,93.67h-150a5,5,0,0,0,0,10h150a5,5,0,0,0,0-10Z"/></svg>
