<?xml version="1.0" encoding="utf-8"?>
<!-- Generator: Adobe Illustrator 23.1.1, SVG Export Plug-In . SVG Version: 6.00 Build 0)  -->
<svg version="1.1" id="レイヤー_1" xmlns="http://www.w3.org/2000/svg" xmlns:xlink="http://www.w3.org/1999/xlink" x="0px"
	 y="0px" viewBox="0 0 560 560" style="enable-background:new 0 0 560 560;" xml:space="preserve">
<style type="text/css">
	.st0{fill-rule:evenodd;clip-rule:evenodd;}
</style>
<path id="star_on.svg" class="st0" d="M519.2,227.3c-2.1-6.3-7.5-10.9-14.1-11.8L360.7,194L297.1,65.8c-3-5.9-9.1-9.7-15.7-9.6
	c-6.6-0.2-12.8,3.5-15.8,9.4l-65.7,127.2L55.2,212.3c-6.6,0.8-12.1,5.3-14.3,11.5c-2.1,6.2-0.4,13,4.3,17.6l104,100.1l-25.8,140.1
	c-1.2,6.5,1.4,13.1,6.8,17c5.5,3.8,12.6,4.3,18.6,1.3l129.8-65.3l128.8,67.3c2.6,1.2,5.4,1.9,8.3,1.9c9.6,0.1,17.4-7.6,17.5-17.2
	c0-0.9,0-1.8-0.2-2.6l-23.6-140.6l105.4-98.5C519.5,240.4,521.2,233.5,519.2,227.3z"/>
</svg>
