<?xml version="1.0" encoding="utf-8"?>
<!-- Generator: Adobe Illustrator 23.0.1, SVG Export Plug-In . SVG Version: 6.00 Build 0)  -->
<svg version="1.1" id="レイヤー_1" xmlns="http://www.w3.org/2000/svg" xmlns:xlink="http://www.w3.org/1999/xlink" x="0px"
	 y="0px" viewBox="0 0 425.8 480" style="enable-background:new 0 0 425.8 480;" xml:space="preserve">
<path d="M273.4,52.1l-0.2-0.2l0,0l-0.1-0.1L40.9,283.9L0.4,413.6c-1.9,6.1,3.1,12.1,9,12.1c0.9,0,1.8-0.1,2.7-0.4l129.7-40.5
	l231.5-231.5l0.5-0.5l0,0l0.1-0.1L273.4,52.1z M98.9,314.8l-25.1-25.1l129.5-129.5l74.6-74.6l25.1,25.1L98.9,314.8z M127.7,367.8
	l-78.1,24.4l-16.1-16.1l24.4-78.2l34.9,34.9l24,24L127.7,367.8z M136,351.9l-25.1-25.1L315,122.7l25.1,25.1l-74.6,74.6L136.2,351.7
	L136,351.9z"/>
<polygon points="280.3,44.3 280.3,44.3 280.3,44.3 280.2,44.4 381.3,145.6 399.6,127.3 298.4,26.2 "/>
<path d="M403,22.8C375.8-4.4,334.7-7.6,309.9,15c-0.6,0.6-1.3,1.1-1.9,1.6l0,0l-0.1,0.1L327,35.8l0,0l0,0l0.1,0.1
	c3.5-3.5,7.7-5.9,12.3-7.4h0.1c2.3-0.7,4.7-1.2,7.1-1.4l0,0c12.4-1.1,26.3,4,37.1,14.8c17.3,17.3,20,42.6,6,56.6l19.3,19.3
	C433.5,93.3,430.8,50.7,403,22.8z"/>
<rect x="66.6" y="450" width="292.5" height="30"/>
</svg>
