<?xml version="1.0" encoding="utf-8"?>
<!-- Generator: Adobe Illustrator 23.0.1, SVG Export Plug-In . SVG Version: 6.00 Build 0)  -->
<svg version="1.1" id="レイヤー_1" xmlns="http://www.w3.org/2000/svg" xmlns:xlink="http://www.w3.org/1999/xlink" x="0px"
	 y="0px" viewBox="0 0 368.1 479.9" style="enable-background:new 0 0 368.1 479.9;" xml:space="preserve">
<g>
	<path d="M32.9,20.3c-33,21.4-39.5,88.3-27,142.7c9.7,42.4,30.3,99.4,65.1,153c32.7,50.4,78.3,95.6,113.1,121.8
		c44.7,33.6,108.4,54.9,141.4,33.6c16.7-10.8,41.5-40.4,42.6-45.7c0,0-14.5-22.4-17.7-27.3l-48.7-75.1c-3.6-5.6-26.3-0.5-37.9,6.1
		c-15.6,8.8-29.9,32.5-29.9,32.5c-10.7,6.2-19.6,0-38.3-8.6c-22.9-10.6-48.7-43.4-69.3-73.1c-18.8-30.9-38.2-67.8-38.5-93.1
		c-0.2-20.6-2.2-31.2,7.8-38.4c0,0,27.4-3.4,41.8-14c10.7-7.9,24.6-26.5,21-32.1l-48.7-75.1C106.5,22.5,92,0.1,92,0.1
		C86.6-1,49.6,9.5,32.9,20.3z"/>
</g>
</svg>
