<?xml version="1.0" encoding="utf-8"?>
<!-- Generator: Adobe Illustrator 23.0.1, SVG Export Plug-In . SVG Version: 6.00 Build 0)  -->
<svg version="1.1" id="レイヤー_1" xmlns="http://www.w3.org/2000/svg" xmlns:xlink="http://www.w3.org/1999/xlink" x="0px"
	 y="0px" viewBox="0 0 560 560" style="enable-background:new 0 0 560 560;" xml:space="preserve">
<g>
	<path d="M449.71,110.29C404.38,64.96,344.11,40,280,40c-64.11,0-124.38,24.96-169.71,70.29C64.96,155.62,40,215.89,40,280
		c0,64.11,24.96,124.38,70.29,169.71C155.62,495.03,215.89,520,280,520c64.11,0,124.38-24.97,169.71-70.29
		C495.04,404.38,520,344.11,520,280C520,215.89,495.04,155.62,449.71,110.29z M280,489.97c-115.78,0-209.97-94.19-209.97-209.97
		c0-115.78,94.19-209.97,209.97-209.97S489.97,164.22,489.97,280C489.97,395.78,395.78,489.97,280,489.97z"/>
	<path d="M205.36,150.71c7.39-4.26,9.92-13.71,5.65-21.1c-4.26-7.39-13.71-9.92-21.1-5.65c-7.39,4.26-9.92,13.71-5.65,21.1
		C188.52,152.45,197.97,154.98,205.36,150.71z"/>
	<path d="M129.62,211.01c7.39,4.26,16.83,1.73,21.1-5.65c4.26-7.39,1.73-16.83-5.65-21.1c-7.39-4.26-16.83-1.73-21.1,5.65
		C119.7,197.3,122.23,206.74,129.62,211.01z"/>
	<path d="M456.67,277.64c6.79-3.12,7.85-9.43,7.85-13.08c0-9.66-7.87-16.15-19.57-16.15c-10.14,0-17.07,4.69-19.53,13.22
		c-0.15,0.53-0.07,1.11,0.23,1.58c0.3,0.47,0.79,0.78,1.34,0.86l8.59,1.21c0.09,0.01,0.18,0.02,0.27,0.02c0.8,0,1.53-0.5,1.8-1.26
		c0.93-2.53,3.26-3.92,6.57-3.92c4.07,0,6.6,2.26,6.6,5.88c0,3.24-3.15,6.6-8.43,6.6h-4.76c-1.06,0-1.92,0.86-1.92,1.92v7.46
		c0,1.06,0.86,1.92,1.92,1.92h5.56c5.67,0,9.78,3.51,9.78,8.35c0,4.29-3.54,7.4-8.43,7.4c-4.54,0-7.63-2.15-8.71-6.07
		c-0.23-0.83-0.99-1.41-1.85-1.41h-9.43c-0.57,0-1.11,0.25-1.48,0.69c-0.37,0.44-0.52,1.01-0.42,1.58
		c1.98,10.9,10.01,17.15,22.04,17.15c13.85,0,22.12-6.99,22.12-18.7C466.83,285.92,462.89,280.11,456.67,277.64z"/>
	<path d="M282.59,434.78c-6.66,0-10.1,2.33-11.78,4.17c0.6-9.79,5.4-14.18,10.04-14.18c3.66,0,6.17,1.5,7.46,4.46
		c0.3,0.7,1,1.15,1.76,1.15c0.15,0,0.3-0.02,0.44-0.05l8.05-1.88c0.54-0.13,1-0.48,1.26-0.97c0.26-0.49,0.3-1.07,0.1-1.58
		c-3.09-8.1-10.01-12.75-18.99-12.75c-14.73,0-22.84,11.81-22.84,33.26c0,19.29,8.05,29.92,22.68,29.92
		c12.66,0,21.17-8.63,21.17-21.48C301.92,442.65,294.33,434.78,282.59,434.78z M280.52,464.3c-3.84,0-8.47-2.8-8.9-10.67
		c1.01-3.72,4.39-7.46,8.98-7.46c4.15,0,8.35,3,8.35,8.75C288.95,461.84,284.41,464.3,280.52,464.3z"/>
	<path d="M137.19,278.33c0-19.29-8.05-29.92-22.68-29.92c-12.66,0-21.17,8.63-21.17,21.48c0,12.18,7.59,20.05,19.34,20.05
		c4.86,0,9.12-1.75,11.8-4.77c-0.56,10.86-5.65,14.78-10.05,14.78c-3.43,0-5.96-1.44-7.31-4.16c-0.33-0.66-0.99-1.07-1.72-1.07
		c-0.12,0-0.24,0.01-0.36,0.03l-8.22,1.55c-0.56,0.11-1.04,0.45-1.32,0.95c-0.28,0.5-0.32,1.09-0.12,1.62
		c3.1,8.06,10.01,12.69,18.97,12.69C129.08,311.59,137.19,299.78,137.19,278.33z M114.67,278.56c-4.15,0-8.35-3-8.35-8.75
		c0-6.93,4.54-9.38,8.43-9.38c4.03,0,8.47,2.79,8.9,10.59C122.64,274.79,119.25,278.56,114.67,278.56z"/>
	<path d="M129.62,348.99c-7.39,4.26-9.92,13.71-5.65,21.1c4.26,7.38,13.71,9.92,21.1,5.65c7.39-4.26,9.92-13.71,5.65-21.1
		C146.45,347.26,137,344.73,129.62,348.99z"/>
	<path d="M205.36,409.29c-7.39-4.26-16.83-1.73-21.1,5.65c-4.26,7.39-1.73,16.83,5.65,21.1c7.39,4.26,16.83,1.73,21.09-5.65
		C215.28,423,212.74,413.55,205.36,409.29z"/>
	<path d="M354.65,409.29c-7.39,4.27-9.92,13.71-5.65,21.1c4.27,7.39,13.71,9.92,21.1,5.65c7.39-4.26,9.92-13.71,5.65-21.09
		C371.48,407.55,362.03,405.02,354.65,409.29z"/>
	<path d="M430.39,348.99c-7.39-4.27-16.83-1.73-21.1,5.65c-4.26,7.39-1.73,16.83,5.65,21.1c7.39,4.26,16.83,1.73,21.1-5.65
		C440.3,362.7,437.77,353.25,430.39,348.99z"/>
	<path d="M430.38,211.01c7.39-4.27,9.92-13.71,5.65-21.1c-4.26-7.39-13.71-9.92-21.09-5.65c-7.39,4.26-9.92,13.71-5.65,21.1
		C413.55,212.74,423,215.27,430.38,211.01z"/>
	<path d="M354.64,150.71c7.39,4.26,16.83,1.73,21.1-5.65c4.26-7.39,1.73-16.83-5.65-21.1c-7.38-4.26-16.83-1.73-21.09,5.65
		C344.72,137,347.26,146.45,354.64,150.71z"/>
	<path d="M383.26,209.58l-90.7,51.87c-3.58-2.43-7.9-3.85-12.56-3.85c-4.17,0-8.07,1.14-11.41,3.13l-62.23-40.77
		c-4.56-2.99-10.67-1.71-13.66,2.85c-2.99,4.56-1.71,10.67,2.85,13.66l62.24,40.77c-0.11,0.91-0.18,1.83-0.18,2.76
		c0,12.37,10.03,22.4,22.4,22.4c12.37,0,22.4-10.03,22.4-22.4c0-0.48-0.02-0.95-0.05-1.42l90.7-51.87
		c4.73-2.71,6.37-8.73,3.67-13.46C394.01,208.52,387.99,206.87,383.26,209.58z"/>
	<path d="M244.59,103.9h8.55v42.21c0,1.08,0.88,1.97,1.97,1.97h9.93c1.09,0,1.97-0.88,1.97-1.97V88.41c0-1.09-0.88-1.97-1.97-1.97
		h-7.69c-0.76,0-1.43,0.42-1.77,1.1c-1.8,3.66-6.09,6.29-11.2,6.88c-1,0.11-1.75,0.95-1.75,1.96v5.55
		C242.62,103.01,243.5,103.9,244.59,103.9z"/>
	<path d="M276.96,148.07h38.37c1.08,0,1.97-0.88,1.97-1.97v-8.38c0-1.09-0.88-1.97-1.97-1.97h-24.97c1.01-4.82,5.59-8.95,9.88-10.99
		c12.01-6.38,17.14-12.8,17.14-21.44c0-11.19-8.06-18.42-20.54-18.42c-11.56,0-19.69,6.19-21.75,16.57
		c-0.11,0.53,0.01,1.08,0.33,1.52c0.31,0.44,0.8,0.73,1.33,0.81l9.3,1.31c0.09,0.01,0.19,0.02,0.28,0.02c0.91,0,1.69-0.62,1.91-1.5
		c0.98-3.96,3.9-6.42,7.63-6.42c4.2,0,7.25,2.71,7.25,6.44c0,3.96-3.06,7.5-9.35,10.83c-11.22,6.05-18.76,17.22-18.76,27.8v3.82
		C274.99,147.19,275.87,148.07,276.96,148.07z"/>
</g>
</svg>
