<?xml version="1.0" encoding="utf-8"?>
<!-- Generator: Adobe Illustrator 23.0.1, SVG Export Plug-In . SVG Version: 6.00 Build 0)  -->
<svg version="1.1" id="レイヤー_1" xmlns="http://www.w3.org/2000/svg" xmlns:xlink="http://www.w3.org/1999/xlink" x="0px"
	 y="0px" viewBox="0 0 560 560" style="enable-background:new 0 0 560 560;" xml:space="preserve">
<g>
	<path d="M340.49,92.11l-0.22-0.22l0,0l-0.11-0.11L108.02,323.94l-40.5,129.71c-1.9,6.09,3.06,12.09,9,12.09
		c0.88,0,1.78-0.13,2.68-0.41l129.71-40.5l231.54-231.54l0.5-0.5v0l0.11-0.11L340.49,92.11z M166.01,354.79l-25.08-25.08
		l129.53-129.53l74.6-74.6l25.08,25.09L166.01,354.79z M194.85,407.81l-78.1,24.39l-16.1-16.1l24.41-78.18l34.94,34.93l23.96,23.96
		L194.85,407.81z M203.14,391.92l-25.08-25.09L382.18,162.7l25.09,25.08l-74.6,74.6L203.31,391.74L203.14,391.92z"/>
	<polygon points="347.37,84.33 347.37,84.33 347.37,84.33 347.27,84.44 448.41,185.58 466.67,167.32 365.53,66.18 	"/>
	<path d="M470.08,62.77C442.91,35.6,401.74,32.42,376.93,55c-0.62,0.55-1.27,1.07-1.86,1.64l0,0.01c-0.03,0.04-0.07,0.07-0.11,0.1
		l19.12,19.12l0.04,0.04l0,0l0.11,0.11c3.48-3.48,7.67-5.91,12.27-7.35c0.03-0.01,0.05-0.01,0.07-0.02
		c2.29-0.71,4.67-1.17,7.12-1.39c0.01,0,0.03,0,0.04,0c12.35-1.09,26.3,4.01,37.09,14.79c17.26,17.26,19.96,42.65,6.02,56.59
		l19.27,19.26C500.66,133.32,497.96,90.65,470.08,62.77z"/>
	<rect x="133.74" y="490" width="292.53" height="30"/>
</g>
</svg>
